<svg xmlns="http://www.w3.org/2000/svg" xmlns:xlink="http://www.w3.org/1999/xlink" width="2000" zoomAndPan="magnify" viewBox="0 0 1500 1499.999933" height="2000" preserveAspectRatio="xMidYMid meet" version="1.0"><path fill="#000000" d="M 634.597656 74.070312 L 627.914062 74.179688 C 554.175781 80.652344 474.117188 127.488281 387.742188 214.695312 C 355.390625 243.664062 306.585938 307.1875 241.320312 405.265625 C 207.234375 461.171875 178.988281 519.914062 156.585938 581.484375 C 132.6875 653.136719 117.617188 707.460938 111.382812 744.460938 C 100.457031 828.207031 87.253906 954.652344 71.769531 1123.789062 C 74.070312 1174.324219 71.789062 1250.867188 64.925781 1353.414062 C 65.652344 1373.25 67.230469 1390.59375 69.65625 1405.445312 C 71 1417.984375 75.363281 1432.652344 82.742188 1449.453125 C 99.957031 1466.53125 114.191406 1474.257812 125.449219 1472.636719 C 162.988281 1470.933594 199.667969 1423.140625 235.488281 1329.253906 C 241.625 1314.890625 247.460938 1298.964844 252.992188 1281.472656 C 290.144531 1145.699219 321.597656 1035.632812 347.347656 951.269531 C 376.851562 861.253906 414.972656 757.414062 461.707031 639.753906 L 824.203125 145.515625 C 768.890625 103.472656 705.6875 79.65625 634.597656 74.070312 " fill-opacity="1" fill-rule="nonzero"/><path fill="#000000" d="M 562.695312 376.09375 L 554.679688 376.664062 C 517.011719 385.65625 480.457031 413.050781 445.019531 458.847656 C 413.234375 500.683594 383.769531 557.941406 356.628906 630.617188 L 343.253906 668.238281 L 184.113281 1344.449219 C 247.167969 1408.558594 314.675781 1437.175781 386.628906 1430.300781 C 416.074219 1426.855469 439.421875 1421.652344 456.683594 1414.691406 C 477.425781 1403.292969 496.71875 1389.710938 514.558594 1373.941406 L 540.226562 1348.652344 C 589.386719 1294.796875 625.472656 1221.277344 648.488281 1128.09375 C 660.972656 1055.234375 670.066406 986.703125 675.769531 922.507812 L 681.785156 829.460938 L 682.714844 742.910156 L 678.558594 662.855469 L 669.316406 589.304688 L 654.992188 522.246094 L 635.582031 461.6875 L 611.085938 407.628906 C 608.242188 402.957031 605.230469 398.804688 602.058594 395.171875 C 594.65625 384.398438 581.539062 378.039062 562.695312 376.09375 " fill-opacity="1" fill-rule="nonzero"/><path fill="#000000" d="M 713.273438 55.777344 L 710.320312 55.8125 L 662.253906 72.652344 C 631.148438 86.539062 601.917969 105.746094 574.558594 130.28125 C 547.199219 154.8125 521.714844 184.667969 498.101562 219.84375 C 450.875 290.199219 411.144531 381.84375 378.90625 494.78125 L 473.703125 1265.089844 C 475.734375 1278.34375 478.121094 1290.742188 480.863281 1302.285156 C 500.65625 1380.296875 536.554688 1421.847656 588.554688 1426.925781 C 607.539062 1431.066406 626.800781 1410.851562 646.347656 1366.289062 L 688.273438 1187.832031 C 698.6875 1148.335938 707.289062 1123.996094 714.078125 1114.8125 C 732.964844 1088.699219 750.230469 1067.320312 765.871094 1050.683594 C 838.242188 983.390625 890.152344 930.726562 921.59375 892.691406 C 976.449219 826.148438 1015.546875 770.984375 1038.894531 727.195312 C 1078.632812 648.914062 1101.730469 576.226562 1108.195312 509.136719 C 1110.09375 460.113281 1101.507812 419.667969 1082.433594 387.800781 C 1041.132812 316.320312 999.910156 259.632812 958.765625 217.742188 C 857.140625 106 775.3125 52.011719 713.273438 55.777344 " fill-opacity="1" fill-rule="nonzero"/><path fill="#000000" d="M 868.199219 26.410156 L 824.832031 27.722656 C 712.878906 34.722656 630.503906 69.710938 577.695312 132.691406 L 694.585938 256.648438 C 728.667969 234.863281 778.453125 212.382812 843.9375 189.210938 C 898.503906 172.628906 946.578125 168.460938 988.152344 176.707031 C 1092.589844 213.339844 1161.386719 288.28125 1194.546875 401.527344 C 1212 459.984375 1210.234375 524.425781 1189.242188 594.855469 C 1179.554688 623.589844 1162.472656 661.203125 1138.003906 707.691406 C 1110 756.472656 1078.796875 805.75 1044.394531 855.527344 C 1034 873.847656 1027.167969 888.796875 1023.90625 900.382812 C 1020.902344 908.273438 1019.578125 923.769531 1019.929688 946.871094 C 1020.964844 955.15625 1023.277344 962.082031 1026.875 967.640625 C 1034.066406 978.761719 1046.375 984.429688 1063.804688 984.648438 C 1133.203125 960.847656 1193.332031 925.441406 1244.1875 878.429688 C 1269.617188 854.921875 1292.726562 828.515625 1313.519531 799.207031 L 1342.96875 753.070312 C 1403.960938 643.953125 1427.601562 538.1875 1413.890625 435.773438 C 1409.285156 402.96875 1400.503906 371.425781 1387.550781 341.144531 L 1364.988281 296.667969 C 1323.382812 233.65625 1279.777344 185.628906 1234.175781 152.585938 C 1210.933594 134.25 1186.753906 117.835938 1161.632812 103.355469 C 1097.191406 70.523438 1057.398438 53.136719 1042.257812 51.199219 C 984.773438 32.382812 926.753906 24.121094 868.199219 26.410156 " fill-opacity="1" fill-rule="nonzero"/><path fill="#fefefe" d="M 491.28125 1180.425781 C 495.332031 1180.425781 499.570312 1180.871094 504 1181.765625 L 503.902344 1181.765625 C 504.3125 1181.878906 504.714844 1181.992188 505.109375 1182.109375 C 530.726562 1189.691406 537.648438 1213.375 525.878906 1253.171875 L 525.839844 1253.171875 C 519.417969 1270.167969 509.152344 1282.570312 495.042969 1290.371094 L 494.972656 1290.371094 C 488.53125 1293.363281 482.246094 1294.859375 476.105469 1294.859375 C 470.027344 1294.859375 464.09375 1293.390625 458.304688 1290.453125 L 458.246094 1290.453125 C 447.386719 1283.96875 440.890625 1272.894531 438.757812 1257.234375 L 438.75 1257.234375 C 437.609375 1245.769531 438.371094 1234.929688 441.03125 1224.707031 L 440.933594 1224.707031 C 445.210938 1210.070312 452.667969 1198.390625 463.3125 1189.667969 L 463.300781 1189.667969 C 471.316406 1183.503906 480.644531 1180.425781 491.28125 1180.425781 Z M 490.828125 1149.125 C 473.472656 1149.125 457.957031 1154.382812 444.273438 1164.902344 L 443.957031 1165.148438 C 437.304688 1170.542969 431.507812 1176.640625 426.566406 1183.441406 L 426.472656 1183.441406 C 425.054688 1184.597656 423.820312 1186.023438 422.847656 1187.695312 C 417.3125 1197.207031 413.230469 1207.152344 410.59375 1217.527344 L 410.5 1217.527344 C 409.582031 1220.839844 408.789062 1224.253906 408.117188 1227.765625 C 407.808594 1229.359375 407.757812 1230.941406 407.929688 1232.46875 L 407.835938 1232.46875 C 406.773438 1241.453125 406.71875 1250.738281 407.671875 1260.324219 L 407.726562 1260.792969 C 411.09375 1286.71875 422.601562 1305.542969 442.238281 1317.273438 L 442.925781 1317.660156 C 453.777344 1323.414062 464.816406 1326.292969 476.042969 1326.292969 C 486.980469 1326.292969 498.097656 1323.5625 509.394531 1318.097656 L 510.152344 1317.707031 C 531.324219 1306 546.445312 1287.753906 555.511719 1262.96875 L 555.824219 1262.03125 C 573.5 1202.269531 559.550781 1165.648438 513.972656 1152.160156 C 513.042969 1151.886719 512.113281 1151.625 511.183594 1151.378906 L 510.300781 1151.171875 C 503.570312 1149.808594 497.082031 1149.125 490.828125 1149.125 Z M 490.828125 1149.125 " fill-opacity="1" fill-rule="nonzero"/><path fill="#fefefe" d="M 242.570312 1173.003906 C 249.132812 1173.003906 255.390625 1175.632812 261.339844 1180.894531 C 272.417969 1191.050781 278.78125 1205.773438 280.425781 1225.066406 L 280.328125 1225.066406 C 279.230469 1259.011719 264.90625 1277.28125 237.347656 1279.863281 C 236.492188 1279.777344 235.648438 1279.675781 234.820312 1279.566406 C 206.882812 1275.871094 195.078125 1257.699219 199.394531 1225.058594 C 199.644531 1223.175781 199.546875 1221.328125 199.152344 1219.582031 L 199.058594 1219.582031 C 199.792969 1215.925781 200.78125 1212.351562 202.019531 1208.855469 L 202.027344 1208.832031 C 207.71875 1192.691406 217.636719 1181.5 231.785156 1175.261719 L 231.773438 1175.261719 C 235.457031 1173.757812 239.058594 1173.003906 242.570312 1173.003906 Z M 243.355469 1141.429688 C 235.800781 1141.429688 228.007812 1143.066406 219.976562 1146.339844 L 219.660156 1146.476562 C 197.023438 1156.300781 181.328125 1173.621094 172.574219 1198.445312 C 164.546875 1221.121094 164.105469 1245.664062 171.253906 1272.070312 C 172.203125 1275.582031 174.277344 1278.488281 176.984375 1280.507812 L 176.890625 1280.507812 C 187.003906 1297.109375 204.949219 1307.117188 230.722656 1310.53125 C 232.394531 1310.75 234.097656 1310.941406 235.839844 1311.097656 C 236.308594 1311.140625 236.78125 1311.160156 237.253906 1311.160156 C 237.644531 1311.160156 238.03125 1311.148438 238.421875 1311.117188 C 286.132812 1307.527344 310.523438 1278.503906 311.59375 1224.054688 L 311.542969 1222.421875 C 309.199219 1194.890625 299.414062 1173.296875 282.183594 1157.636719 L 282.023438 1157.492188 C 269.910156 1146.78125 257.019531 1141.429688 243.355469 1141.429688 Z M 243.355469 1141.429688 " fill-opacity="1" fill-rule="nonzero"/><path fill="#fefefe" d="M 175.128906 1313.054688 L 174.019531 1313.070312 L 172.785156 1313.109375 C 171.941406 1313.148438 171.0625 1313.214844 170.144531 1313.304688 C 169.230469 1313.390625 168.277344 1313.507812 167.289062 1313.644531 C 165.425781 1313.894531 163.183594 1314.296875 160.5625 1314.851562 C 159.207031 1315.105469 156.796875 1315.738281 153.332031 1316.746094 C 152.015625 1317.015625 150.453125 1317.390625 148.652344 1317.875 L 139.214844 1320.433594 C 138.601562 1320.628906 138.121094 1320.8125 137.773438 1320.988281 C 135.871094 1322.074219 136.230469 1322.917969 138.851562 1323.519531 C 140.105469 1323.773438 141.664062 1323.949219 143.527344 1324.054688 C 146.316406 1324.105469 149 1324.117188 151.574219 1324.09375 C 156.632812 1324.0625 161.601562 1323.792969 166.480469 1323.285156 C 169.210938 1322.980469 172.632812 1322.464844 176.742188 1321.738281 L 182.972656 1320.613281 C 183.367188 1320.515625 183.8125 1320.359375 184.304688 1320.140625 C 184.804688 1319.902344 185.203125 1319.640625 185.507812 1319.355469 C 186.097656 1318.605469 186.332031 1318.125 186.21875 1317.921875 C 186.238281 1317.214844 185.871094 1316.414062 185.109375 1315.523438 C 184.195312 1314.753906 182.902344 1314.113281 181.226562 1313.601562 C 180.054688 1313.359375 179.082031 1313.222656 178.3125 1313.183594 C 177.375 1313.113281 176.3125 1313.070312 175.128906 1313.054688 " fill-opacity="1" fill-rule="nonzero"/><path fill="#fefefe" d="M 190.367188 1332.355469 L 189.507812 1332.386719 C 188.214844 1332.457031 186.816406 1332.75 185.3125 1333.261719 C 182.613281 1334.308594 180.570312 1335.289062 179.1875 1336.207031 C 176.515625 1337.738281 173.171875 1340.441406 169.167969 1344.328125 C 165.28125 1348.570312 162.953125 1351.316406 162.183594 1352.5625 C 161.140625 1353.523438 159.835938 1354.921875 158.277344 1356.765625 C 157.816406 1357.296875 157.101562 1358.320312 156.136719 1359.832031 C 155.726562 1360.550781 155.4375 1361.203125 155.265625 1361.792969 C 155.058594 1362.480469 155.03125 1363.117188 155.1875 1363.710938 L 155.09375 1363.726562 L 154.828125 1364.191406 L 155.144531 1363.863281 L 155.238281 1363.878906 C 155.691406 1364.808594 156.324219 1365.273438 157.136719 1365.273438 C 158.429688 1365.292969 160.140625 1364.863281 162.273438 1363.988281 C 164.242188 1363.089844 166.453125 1361.945312 168.910156 1360.554688 C 178.101562 1354.867188 183.601562 1351.347656 185.414062 1349.996094 C 188.574219 1347.8125 190.742188 1346.140625 191.917969 1344.972656 C 193.046875 1343.933594 194.296875 1342.28125 195.65625 1340.019531 C 196.269531 1338.839844 196.535156 1337.671875 196.457031 1336.511719 C 196.390625 1335.511719 195.929688 1334.535156 195.070312 1333.585938 C 193.011719 1332.59375 191.445312 1332.183594 190.367188 1332.355469 " fill-opacity="1" fill-rule="nonzero"/><path fill="#fefefe" d="M 536.390625 1349.144531 L 534.957031 1349.273438 C 533.792969 1349.5 532.933594 1350.035156 532.371094 1350.875 C 532.09375 1351.296875 531.890625 1351.792969 531.761719 1352.367188 C 531.605469 1352.554688 531.582031 1353.585938 531.695312 1355.460938 C 532.441406 1360.082031 534.222656 1364.738281 537.035156 1369.425781 C 537.988281 1370.996094 538.785156 1372.234375 539.425781 1373.144531 C 541.996094 1376.6875 543.953125 1379.210938 545.300781 1380.710938 C 545.121094 1380.59375 545.171875 1380.730469 545.441406 1381.128906 C 546.113281 1382.238281 547.007812 1383.664062 548.125 1385.394531 C 552.652344 1391.507812 555.375 1395.019531 556.296875 1395.929688 C 562.3125 1402.46875 566.351562 1405.738281 568.417969 1405.742188 C 571.480469 1405.816406 572.757812 1403.347656 572.246094 1398.332031 C 571.652344 1394.714844 571.160156 1392.476562 570.769531 1391.621094 C 569.253906 1387.480469 567.144531 1382.996094 564.449219 1378.175781 C 558.636719 1368.457031 553.230469 1361.035156 548.234375 1355.917969 C 543.449219 1351.050781 539.5 1348.792969 536.390625 1349.144531 " fill-opacity="1" fill-rule="nonzero"/><path fill="#fefefe" d="M 548.96875 1314.515625 L 547.71875 1314.609375 C 544.71875 1315.101562 543.519531 1317.445312 544.128906 1321.644531 C 544.3125 1324.511719 546.519531 1328.503906 550.753906 1333.625 C 553.148438 1336.320312 556.175781 1339.132812 559.835938 1342.0625 L 559.738281 1342.078125 L 564.023438 1347.011719 C 565.59375 1348.734375 567.179688 1350.371094 568.777344 1351.925781 C 571.164062 1354.308594 574.136719 1356.886719 577.695312 1359.660156 C 584.347656 1364.273438 588.441406 1366.847656 589.976562 1367.382812 C 591.230469 1367.992188 592.332031 1368.433594 593.277344 1368.707031 C 593.773438 1369.011719 595.015625 1369.085938 597.003906 1368.929688 C 600.3125 1368.4375 601.355469 1365.960938 600.128906 1361.503906 C 598.613281 1356.703125 594.320312 1350.238281 587.25 1342.113281 C 580.320312 1334.273438 573.609375 1328.019531 567.121094 1323.355469 C 558.648438 1317.414062 552.597656 1314.46875 548.96875 1314.515625 " fill-opacity="1" fill-rule="nonzero"/></svg>