<svg xmlns="http://www.w3.org/2000/svg" xmlns:xlink="http://www.w3.org/1999/xlink" width="2000" zoomAndPan="magnify" viewBox="0 0 1500 1499.999933" height="2000" preserveAspectRatio="xMidYMid meet" version="1.0"><defs><clipPath id="ee3e43c9c0"><path d="M 70 0.359375 L 256 0.359375 L 256 806 L 70 806 Z M 70 0.359375 " clip-rule="nonzero"/></clipPath><clipPath id="baea301260"><path d="M 70.417969 10.277344 L 133.449219 0.585938 L 255.660156 795.324219 L 192.628906 805.015625 Z M 70.417969 10.277344 " clip-rule="nonzero"/></clipPath><clipPath id="170bb171b4"><path d="M 50 2 L 131 2 L 131 805 L 50 805 Z M 50 2 " clip-rule="nonzero"/></clipPath><clipPath id="a599ed7430"><path d="M 0.417969 10.277344 L 63.449219 0.585938 L 185.660156 795.324219 L 122.628906 805.015625 Z M 0.417969 10.277344 " clip-rule="nonzero"/></clipPath><clipPath id="c4ed3c80c7"><path d="M 63.964844 0.507812 L 0.933594 10.199219 L 123.144531 804.9375 L 186.175781 795.246094 Z M 63.964844 0.507812 " clip-rule="nonzero"/></clipPath><clipPath id="396c29a992"><path d="M 63.964844 0.507812 L 0.933594 10.199219 L 123.144531 804.9375 L 186.175781 795.246094 Z M 63.964844 0.507812 " clip-rule="nonzero"/></clipPath><clipPath id="da5cf5f49c"><path d="M 63.964844 0.507812 L 0.933594 10.199219 L 123.144531 804.9375 L 186.175781 795.246094 Z M 63.964844 0.507812 " clip-rule="nonzero"/></clipPath><clipPath id="004f4aa55b"><path d="M 63.835938 0.527344 L 1.078125 10.175781 L 123.289062 804.910156 L 186.046875 795.257812 Z M 63.835938 0.527344 " clip-rule="nonzero"/></clipPath><clipPath id="1e8d3884b1"><rect x="0" width="186" y="0" height="806"/></clipPath><clipPath id="6fd8ea7a56"><path d="M 0 109 L 177 109 L 177 914 L 0 914 Z M 0 109 " clip-rule="nonzero"/></clipPath><clipPath id="6c1e1036ee"><path d="M -8.4375 118.933594 L 54.59375 109.242188 L 176.804688 903.980469 L 113.773438 913.675781 Z M -8.4375 118.933594 " clip-rule="nonzero"/></clipPath><clipPath id="79c0e5839b"><path d="M 41 2 L 122 2 L 122 804.800781 L 41 804.800781 Z M 41 2 " clip-rule="nonzero"/></clipPath><clipPath id="5d8f2cb5c9"><path d="M -8.4375 9.933594 L 54.59375 0.242188 L 176.804688 794.980469 L 113.773438 804.675781 Z M -8.4375 9.933594 " clip-rule="nonzero"/></clipPath><clipPath id="e49ede38b1"><path d="M 55.105469 0.164062 L -7.921875 9.855469 L 114.289062 804.59375 L 177.320312 794.902344 Z M 55.105469 0.164062 " clip-rule="nonzero"/></clipPath><clipPath id="ab63e6ed59"><path d="M 55.105469 0.164062 L -7.921875 9.855469 L 114.289062 804.59375 L 177.320312 794.902344 Z M 55.105469 0.164062 " clip-rule="nonzero"/></clipPath><clipPath id="2a56945657"><path d="M 55.105469 0.164062 L -7.921875 9.855469 L 114.289062 804.59375 L 177.320312 794.902344 Z M 55.105469 0.164062 " clip-rule="nonzero"/></clipPath><clipPath id="45592e10a5"><path d="M 54.980469 0.183594 L -7.777344 9.832031 L 114.433594 804.566406 L 177.191406 794.917969 Z M 54.980469 0.183594 " clip-rule="nonzero"/></clipPath><clipPath id="01b8171285"><rect x="0" width="177" y="0" height="805"/></clipPath><clipPath id="bcb69b3470"><path d="M 177 109 L 363 109 L 363 914 L 177 914 Z M 177 109 " clip-rule="nonzero"/></clipPath><clipPath id="c70d1e0252"><path d="M 177.261719 118.933594 L 240.292969 109.242188 L 362.503906 903.980469 L 299.472656 913.675781 Z M 177.261719 118.933594 " clip-rule="nonzero"/></clipPath><clipPath id="622b74fd4b"><path d="M 50 2 L 130 2 L 130 804.800781 L 50 804.800781 Z M 50 2 " clip-rule="nonzero"/></clipPath><clipPath id="cf35f6b124"><path d="M 0.261719 9.933594 L 63.292969 0.242188 L 185.503906 794.980469 L 122.472656 804.675781 Z M 0.261719 9.933594 " clip-rule="nonzero"/></clipPath><clipPath id="f4473176eb"><path d="M 63.804688 0.164062 L 0.773438 9.855469 L 122.984375 804.59375 L 186.015625 794.902344 Z M 63.804688 0.164062 " clip-rule="nonzero"/></clipPath><clipPath id="4377218649"><path d="M 63.804688 0.164062 L 0.773438 9.855469 L 122.984375 804.59375 L 186.015625 794.902344 Z M 63.804688 0.164062 " clip-rule="nonzero"/></clipPath><clipPath id="ee8e6d85c7"><path d="M 63.804688 0.164062 L 0.773438 9.855469 L 122.984375 804.59375 L 186.015625 794.902344 Z M 63.804688 0.164062 " clip-rule="nonzero"/></clipPath><clipPath id="79fd5238ff"><path d="M 63.675781 0.183594 L 0.921875 9.832031 L 123.132812 804.566406 L 185.886719 794.917969 Z M 63.675781 0.183594 " clip-rule="nonzero"/></clipPath><clipPath id="1de5625427"><rect x="0" width="186" y="0" height="805"/></clipPath><clipPath id="d226d7ea59"><path d="M 1137 109 L 1323 109 L 1323 914 L 1137 914 Z M 1137 109 " clip-rule="nonzero"/></clipPath><clipPath id="9b8c3af3d5"><path d="M 1137.046875 118.933594 L 1200.078125 109.242188 L 1322.289062 903.980469 L 1259.257812 913.675781 Z M 1137.046875 118.933594 " clip-rule="nonzero"/></clipPath><clipPath id="e4b641eed2"><path d="M 50 2 L 130 2 L 130 804.800781 L 50 804.800781 Z M 50 2 " clip-rule="nonzero"/></clipPath><clipPath id="9b42e4ea93"><path d="M 0.046875 9.933594 L 63.078125 0.242188 L 185.289062 794.980469 L 122.257812 804.675781 Z M 0.046875 9.933594 " clip-rule="nonzero"/></clipPath><clipPath id="8fc1a87abe"><path d="M 63.589844 0.164062 L 0.558594 9.855469 L 122.773438 804.59375 L 185.804688 794.902344 Z M 63.589844 0.164062 " clip-rule="nonzero"/></clipPath><clipPath id="e620ca06db"><path d="M 63.589844 0.164062 L 0.558594 9.855469 L 122.773438 804.59375 L 185.804688 794.902344 Z M 63.589844 0.164062 " clip-rule="nonzero"/></clipPath><clipPath id="acf7abddac"><path d="M 63.589844 0.164062 L 0.558594 9.855469 L 122.773438 804.59375 L 185.804688 794.902344 Z M 63.589844 0.164062 " clip-rule="nonzero"/></clipPath><clipPath id="2642aad0a2"><path d="M 63.464844 0.183594 L 0.707031 9.832031 L 122.917969 804.566406 L 185.675781 794.917969 Z M 63.464844 0.183594 " clip-rule="nonzero"/></clipPath><clipPath id="0d1c9ef0a9"><rect x="0" width="186" y="0" height="805"/></clipPath><clipPath id="5c839be232"><path d="M 1229 0.359375 L 1416 0.359375 L 1416 806 L 1229 806 Z M 1229 0.359375 " clip-rule="nonzero"/></clipPath><clipPath id="6b41c535d8"><path d="M 1229.894531 10.277344 L 1292.925781 0.585938 L 1415.136719 795.324219 L 1352.105469 805.015625 Z M 1229.894531 10.277344 " clip-rule="nonzero"/></clipPath><clipPath id="dd9e49b865"><path d="M 50 2 L 131 2 L 131 805 L 50 805 Z M 50 2 " clip-rule="nonzero"/></clipPath><clipPath id="1840ad54ee"><path d="M 0.894531 10.277344 L 63.925781 0.585938 L 186.136719 795.324219 L 123.105469 805.015625 Z M 0.894531 10.277344 " clip-rule="nonzero"/></clipPath><clipPath id="dfa49d7c61"><path d="M 64.441406 0.507812 L 1.410156 10.199219 L 123.621094 804.9375 L 186.652344 795.246094 Z M 64.441406 0.507812 " clip-rule="nonzero"/></clipPath><clipPath id="aa7dd68ea2"><path d="M 64.441406 0.507812 L 1.410156 10.199219 L 123.621094 804.9375 L 186.652344 795.246094 Z M 64.441406 0.507812 " clip-rule="nonzero"/></clipPath><clipPath id="22d7a06c1e"><path d="M 64.441406 0.507812 L 1.410156 10.199219 L 123.621094 804.9375 L 186.652344 795.246094 Z M 64.441406 0.507812 " clip-rule="nonzero"/></clipPath><clipPath id="be9b0debae"><path d="M 64.3125 0.527344 L 1.554688 10.175781 L 123.765625 804.910156 L 186.523438 795.257812 Z M 64.3125 0.527344 " clip-rule="nonzero"/></clipPath><clipPath id="35bfac6f2e"><rect x="0" width="187" y="0" height="806"/></clipPath><clipPath id="2924699784"><path d="M 1322 109 L 1500 109 L 1500 914 L 1322 914 Z M 1322 109 " clip-rule="nonzero"/></clipPath><clipPath id="c39a081c44"><path d="M 1322.746094 118.933594 L 1385.777344 109.242188 L 1507.988281 903.980469 L 1444.957031 913.675781 Z M 1322.746094 118.933594 " clip-rule="nonzero"/></clipPath><clipPath id="71364d8747"><path d="M 50 2 L 131 2 L 131 804.800781 L 50 804.800781 Z M 50 2 " clip-rule="nonzero"/></clipPath><clipPath id="c6c64aabeb"><path d="M 0.746094 9.933594 L 63.777344 0.242188 L 185.988281 794.980469 L 122.957031 804.675781 Z M 0.746094 9.933594 " clip-rule="nonzero"/></clipPath><clipPath id="1565c078ae"><path d="M 64.289062 0.164062 L 1.257812 9.855469 L 123.46875 804.59375 L 186.5 794.902344 Z M 64.289062 0.164062 " clip-rule="nonzero"/></clipPath><clipPath id="97e02ea4ee"><path d="M 64.289062 0.164062 L 1.257812 9.855469 L 123.46875 804.59375 L 186.5 794.902344 Z M 64.289062 0.164062 " clip-rule="nonzero"/></clipPath><clipPath id="0331f549d1"><path d="M 64.289062 0.164062 L 1.257812 9.855469 L 123.46875 804.59375 L 186.5 794.902344 Z M 64.289062 0.164062 " clip-rule="nonzero"/></clipPath><clipPath id="05754cf8ac"><path d="M 64.160156 0.183594 L 1.40625 9.832031 L 123.617188 804.566406 L 186.371094 794.917969 Z M 64.160156 0.183594 " clip-rule="nonzero"/></clipPath><clipPath id="26022d0996"><rect x="0" width="178" y="0" height="805"/></clipPath><clipPath id="b915cabdeb"><rect x="0" width="1500" y="0" height="915"/></clipPath></defs><g transform="matrix(1, 0, 0, 1, 0, 219)"><g clip-path="url(#b915cabdeb)"><g clip-path="url(#ee3e43c9c0)"><g clip-path="url(#baea301260)"><g transform="matrix(1, 0, 0, 1, 70, 0.000000000000113687)"><g clip-path="url(#1e8d3884b1)"><g clip-path="url(#170bb171b4)"><g clip-path="url(#a599ed7430)"><g clip-path="url(#c4ed3c80c7)"><g clip-path="url(#396c29a992)"><g clip-path="url(#da5cf5f49c)"><g clip-path="url(#004f4aa55b)"><path fill="#28292a" d="M 50.46875 2.582031 C 50.46875 2.582031 157.816406 353.890625 123.289062 804.910156 C 123.289062 804.910156 102.542969 397.011719 50.46875 2.582031 " fill-opacity="1" fill-rule="nonzero"/></g></g></g></g></g></g></g></g></g></g><g clip-path="url(#6fd8ea7a56)"><g clip-path="url(#6c1e1036ee)"><g transform="matrix(1, 0, 0, 1, 0, 109)"><g clip-path="url(#01b8171285)"><g clip-path="url(#79c0e5839b)"><g clip-path="url(#5d8f2cb5c9)"><g clip-path="url(#e49ede38b1)"><g clip-path="url(#ab63e6ed59)"><g clip-path="url(#2a56945657)"><g clip-path="url(#45592e10a5)"><path fill="#28292a" d="M 41.613281 2.238281 C 41.613281 2.238281 148.960938 353.550781 114.433594 804.566406 C 114.433594 804.566406 93.683594 396.667969 41.613281 2.238281 " fill-opacity="1" fill-rule="nonzero"/></g></g></g></g></g></g></g></g></g></g><g clip-path="url(#bcb69b3470)"><g clip-path="url(#c70d1e0252)"><g transform="matrix(1, 0, 0, 1, 177, 109)"><g clip-path="url(#1de5625427)"><g clip-path="url(#622b74fd4b)"><g clip-path="url(#cf35f6b124)"><g clip-path="url(#f4473176eb)"><g clip-path="url(#4377218649)"><g clip-path="url(#ee8e6d85c7)"><g clip-path="url(#79fd5238ff)"><path fill="#28292a" d="M 50.308594 2.238281 C 50.308594 2.238281 157.660156 353.550781 123.132812 804.566406 C 123.132812 804.566406 102.382812 396.667969 50.308594 2.238281 " fill-opacity="1" fill-rule="nonzero"/></g></g></g></g></g></g></g></g></g></g><g clip-path="url(#d226d7ea59)"><g clip-path="url(#9b8c3af3d5)"><g transform="matrix(1, 0, 0, 1, 1137, 109)"><g clip-path="url(#0d1c9ef0a9)"><g clip-path="url(#e4b641eed2)"><g clip-path="url(#9b42e4ea93)"><g clip-path="url(#8fc1a87abe)"><g clip-path="url(#e620ca06db)"><g clip-path="url(#acf7abddac)"><g clip-path="url(#2642aad0a2)"><path fill="#28292a" d="M 50.09375 2.238281 C 50.09375 2.238281 157.445312 353.550781 122.917969 804.566406 C 122.917969 804.566406 102.167969 396.667969 50.09375 2.238281 " fill-opacity="1" fill-rule="nonzero"/></g></g></g></g></g></g></g></g></g></g><g clip-path="url(#5c839be232)"><g clip-path="url(#6b41c535d8)"><g transform="matrix(1, 0, 0, 1, 1229, 0.000000000000113687)"><g clip-path="url(#35bfac6f2e)"><g clip-path="url(#dd9e49b865)"><g clip-path="url(#1840ad54ee)"><g clip-path="url(#dfa49d7c61)"><g clip-path="url(#aa7dd68ea2)"><g clip-path="url(#22d7a06c1e)"><g clip-path="url(#be9b0debae)"><path fill="#28292a" d="M 50.945312 2.582031 C 50.945312 2.582031 158.292969 353.890625 123.765625 804.910156 C 123.765625 804.910156 103.019531 397.011719 50.945312 2.582031 " fill-opacity="1" fill-rule="nonzero"/></g></g></g></g></g></g></g></g></g></g><g clip-path="url(#2924699784)"><g clip-path="url(#c39a081c44)"><g transform="matrix(1, 0, 0, 1, 1322, 109)"><g clip-path="url(#26022d0996)"><g clip-path="url(#71364d8747)"><g clip-path="url(#c6c64aabeb)"><g clip-path="url(#1565c078ae)"><g clip-path="url(#97e02ea4ee)"><g clip-path="url(#0331f549d1)"><g clip-path="url(#05754cf8ac)"><path fill="#28292a" d="M 50.792969 2.238281 C 50.792969 2.238281 158.144531 353.550781 123.617188 804.566406 C 123.617188 804.566406 102.867188 396.667969 50.792969 2.238281 " fill-opacity="1" fill-rule="nonzero"/></g></g></g></g></g></g></g></g></g></g></g></g></svg>