<svg xmlns="http://www.w3.org/2000/svg" xmlns:xlink="http://www.w3.org/1999/xlink" width="2000" zoomAndPan="magnify" viewBox="0 0 1500 1499.999933" height="2000" preserveAspectRatio="xMidYMid meet" version="1.0"><defs><clipPath id="ab9d3784d7"><path d="M 102 24 L 1419 24 L 1419 1499.964844 L 102 1499.964844 Z M 102 24 " clip-rule="nonzero"/></clipPath></defs><g clip-path="url(#ab9d3784d7)"><path fill="#000000" d="M 536.414062 250.957031 C 559.898438 276.003906 581.144531 283.308594 595.828125 277.941406 C 637.203125 262.960938 678.804688 253.046875 720.476562 248.421875 C 744.40625 245.738281 764.757812 230.160156 781.457031 200.863281 C 779.816406 216.441406 776.089844 229.5625 770.273438 240.222656 C 786.898438 237.988281 804.71875 232.46875 823.726562 223.675781 C 821.863281 228.222656 818.65625 231.800781 815.527344 235.675781 C 812.246094 239.777344 813.515625 243.128906 817.761719 243.203125 C 840.203125 243.652344 860.105469 243.429688 877.476562 243.203125 C 880.308594 243.203125 882.398438 241.789062 883.589844 239.777344 C 934.730469 150.621094 993.101562 82.335938 1058.632812 34.625 C 1078.6875 20.015625 1096.652344 20.015625 1108.730469 37.980469 C 1175.003906 136.230469 1213.097656 252.226562 1218.464844 383.648438 C 1218.914062 395.203125 1218.914062 397.960938 1222.417969 401.613281 C 1280.417969 461.101562 1316.648438 536.09375 1337.820312 619.957031 C 1339.382812 626.070312 1338.042969 625.101562 1344.304688 624.207031 C 1363.761719 621.449219 1378.96875 619.511719 1389.332031 621.894531 C 1396.5625 623.535156 1395.894531 626.441406 1388.660156 628.605469 C 1376.433594 632.332031 1362.941406 635.984375 1347.660156 638.222656 C 1342.441406 638.96875 1341.769531 637.625 1342.292969 642.246094 C 1344.527344 661.40625 1336.625 681.085938 1345.570312 687.347656 C 1371.441406 705.535156 1398.351562 707.398438 1413.410156 718.058594 C 1422.207031 724.320312 1420.046875 728.046875 1408.789062 724.097656 C 1385.605469 715.972656 1365.925781 708.070312 1348.179688 705.015625 C 1346.167969 704.640625 1345.125 705.835938 1345.050781 707.921875 C 1344.675781 719.101562 1335.582031 735.054688 1344.304688 747.429688 C 1356.15625 764.277344 1384.1875 767.707031 1405.734375 784.179688 C 1415.5 791.636719 1411.027344 798.792969 1399.472656 794.46875 C 1377.253906 786.121094 1360.109375 775.386719 1345.421875 768.378906 C 1343.484375 767.410156 1341.023438 768.378906 1340.652344 770.988281 C 1328.722656 856.191406 1286.976562 937.746094 1206.015625 1007.222656 C 1190.882812 1020.191406 1174.929688 1031.597656 1163.300781 1049.710938 C 1156.664062 1060.074219 1158.082031 1068.421875 1168.367188 1075.953125 C 1237.027344 1126.417969 1262.898438 1194.179688 1248.285156 1279.238281 C 1229.351562 1389.191406 1145.707031 1483.492188 985.277344 1497.207031 C 758.125 1516.589844 630.046875 1435.78125 597.769531 1321.804688 C 586.585938 1282.21875 574.0625 1247.855469 564.519531 1217.363281 C 548.789062 1167.195312 516.359375 1124.40625 461.863281 1105.546875 C 293.457031 1047.253906 190.953125 960.332031 163.816406 826.523438 C 162.996094 822.496094 162.25 821.828125 157.40625 824.585938 C 144.957031 831.667969 131.535156 840.390625 115.734375 847.84375 C 107.085938 851.945312 104.027344 847.097656 112.003906 840.3125 C 125.273438 829.058594 141.824219 820.859375 158.152344 811.167969 C 159.195312 810.570312 160.089844 809.078125 160.015625 806.917969 C 159.566406 782.691406 160.910156 761.890625 161.355469 744.375 C 161.507812 737.367188 157.628906 734.832031 153.230469 734.160156 C 137.054688 731.851562 125.199219 735.578125 114.464844 744.671875 C 102.984375 754.363281 98.734375 751.457031 106.117188 740.273438 C 113.792969 728.644531 133.175781 723.054688 162.027344 719.996094 C 163.890625 719.773438 164.5625 717.984375 164.636719 716.570312 C 165.382812 703.96875 166.425781 693.160156 167.320312 684.140625 C 167.617188 680.863281 165.53125 676.613281 160.3125 676.3125 C 138.992188 675.269531 127.734375 673.855469 127.585938 666.996094 C 127.4375 660.210938 140.410156 658.796875 165.53125 661.179688 C 169.035156 661.480469 170.972656 659.390625 171.570312 656.558594 C 184.988281 584.773438 215.105469 520.363281 260.730469 462.367188 C 273.554688 446.042969 274.96875 431.058594 275.117188 417.417969 C 276.460938 283.90625 287.941406 175.519531 310.082031 94.710938 C 323.949219 44.242188 358.761719 34.328125 392.832031 74.0625 C 435.175781 123.558594 476.925781 187.519531 536.414062 251.03125 Z M 536.414062 250.957031 " fill-opacity="1" fill-rule="evenodd"/></g><path fill="#ffffff" d="M 465.144531 409.292969 C 514.945312 404.074219 567.128906 414.808594 607.90625 444.777344 C 647.867188 474.222656 671.648438 518.5 671.648438 568.445312 C 671.648438 674.078125 572.199219 751.53125 473.421875 761.964844 C 423.621094 767.183594 371.4375 756.449219 330.65625 726.484375 C 290.699219 697.039062 266.917969 652.757812 266.917969 602.8125 C 266.917969 497.179688 366.367188 419.730469 465.144531 409.292969 Z M 469.246094 432.625 C 559.300781 423.15625 632.359375 476.90625 632.359375 552.71875 C 632.359375 628.53125 559.375 697.707031 469.246094 707.175781 C 379.191406 716.644531 306.132812 662.894531 306.132812 587.082031 C 306.132812 511.269531 379.113281 442.09375 469.246094 432.625 Z M 1025.605469 406.011719 C 1112.902344 402.433594 1183.652344 459.757812 1183.652344 534.082031 C 1183.652344 608.402344 1112.902344 671.542969 1025.605469 675.121094 C 938.308594 678.699219 867.5625 621.375 867.5625 547.050781 C 867.5625 472.730469 938.308594 409.589844 1025.605469 406.011719 Z M 1023.964844 382.53125 C 1123.042969 378.429688 1222.863281 444.179688 1222.863281 549.886719 C 1222.863281 655.589844 1125.351562 726.183594 1027.171875 730.210938 C 928.097656 734.308594 828.273438 668.5625 828.273438 562.855469 C 828.273438 457.152344 925.785156 386.554688 1023.964844 382.53125 Z M 1023.964844 382.53125 " fill-opacity="1" fill-rule="evenodd"/></svg>