<svg xmlns="http://www.w3.org/2000/svg" xmlns:xlink="http://www.w3.org/1999/xlink" width="2000" zoomAndPan="magnify" viewBox="0 0 1500 1499.999933" height="2000" preserveAspectRatio="xMidYMid meet" version="1.0"><defs><g/><clipPath id="03cf096189"><path d="M 273.457031 0.953125 L 1389.265625 0.953125 L 1389.265625 755.589844 L 273.457031 755.589844 Z M 273.457031 0.953125 " clip-rule="nonzero"/></clipPath><clipPath id="ed58db9489"><rect x="0" width="1117" y="0" height="756"/></clipPath><clipPath id="c850cb3b90"><rect x="0" width="755" y="0" height="99"/></clipPath><clipPath id="faa20e66c2"><path d="M 994 1038 L 1095.945312 1038 L 1095.945312 1065 L 994 1065 Z M 994 1038 " clip-rule="nonzero"/></clipPath><clipPath id="0783c30902"><rect x="0" width="1390" y="0" height="1469"/></clipPath></defs><g transform="matrix(1, 0, 0, 1, 55, 16)"><g clip-path="url(#0783c30902)"><g clip-path="url(#03cf096189)"><g transform="matrix(1, 0, 0, 1, 273, 0.000000000000110134)" display="none"><g clip-path="url(#ed58db9489)"><path fill="#000000" d="M 822.457031 717.898438 C 828.347656 708.699219 834.710938 699.765625 840.011719 690.242188 C 847.773438 676.296875 855.007812 662.042969 862.007812 647.699219 C 865.613281 640.3125 868.746094 632.605469 871.1875 624.761719 C 875.507812 610.902344 879.238281 596.859375 883.007812 582.835938 C 884.585938 576.957031 885.738281 570.953125 886.875 564.964844 C 887.359375 562.417969 888.585938 560.644531 890.839844 559.609375 C 893.921875 558.199219 896.972656 556.585938 900.207031 555.664062 C 910.574219 552.707031 920.785156 549.40625 930.394531 544.417969 C 931.972656 543.597656 933.664062 542.898438 935.382812 542.453125 C 952.636719 538.003906 969.0625 531.304688 985.324219 524.148438 C 992.214844 521.117188 998.984375 517.773438 1005.988281 515.027344 C 1013.421875 512.109375 1021.054688 509.691406 1028.621094 507.125 C 1059.144531 496.761719 1080.902344 476.410156 1094.9375 447.785156 C 1100.765625 435.894531 1105.378906 423.390625 1110.25 411.050781 C 1114 401.554688 1114.203125 391.390625 1114.691406 381.375 C 1115.136719 372.242188 1114.914062 363.078125 1115.042969 353.929688 C 1115.117188 348.734375 1115.0625 343.523438 1115.503906 338.355469 C 1116.027344 332.191406 1115.660156 326.179688 1113.96875 320.238281 C 1113.179688 317.480469 1112.597656 314.648438 1111.621094 311.957031 C 1103.78125 290.390625 1096.476562 268.601562 1087.78125 247.382812 C 1081.335938 231.648438 1073.53125 216.414062 1065.488281 201.40625 C 1053.230469 178.535156 1036.964844 158.84375 1016.089844 143.175781 C 1015.101562 142.433594 1014.085938 141.726562 1012.769531 141.292969 C 1013.753906 143.929688 1016.050781 145.496094 1017.878906 147.414062 C 1019.734375 149.363281 1021.707031 151.199219 1023.574219 153.136719 C 1025.566406 155.199219 1027.527344 157.296875 1029.453125 159.425781 C 1031.257812 161.421875 1033.015625 163.457031 1034.761719 165.507812 C 1036.625 167.691406 1038.476562 169.882812 1040.28125 172.117188 C 1041.964844 174.203125 1043.578125 176.347656 1044.753906 179 C 1043.875 178.128906 1042.980469 177.277344 1042.121094 176.386719 C 1031.917969 165.808594 1021.71875 155.222656 1011.515625 144.644531 C 1010.023438 143.097656 1008.398438 141.664062 1006.996094 140.039062 C 993.640625 124.566406 978.085938 111.691406 960.878906 100.746094 C 922.792969 76.523438 881.992188 58.300781 838.777344 45.429688 C 832.074219 43.433594 825.355469 41.503906 818.648438 39.523438 C 805.230469 35.554688 791.691406 32.226562 777.851562 29.9375 C 763.183594 27.511719 748.753906 23.59375 734.0625 21.394531 C 701.101562 16.460938 668.054688 12.082031 635.019531 7.675781 C 593.152344 2.089844 551.039062 0.953125 508.878906 1.570312 C 492.402344 1.8125 475.945312 3.160156 459.472656 3.945312 C 455.003906 4.160156 450.519531 4.117188 446.046875 4.261719 C 442.464844 4.378906 438.84375 4.300781 435.320312 4.828125 C 426.070312 6.210938 416.808594 6.746094 407.457031 6.59375 C 400.144531 6.476562 392.988281 6.84375 385.75 9.191406 C 378.679688 11.488281 370.960938 11.800781 363.511719 12.878906 C 329.59375 17.789062 297.140625 27.929688 265.277344 40.222656 C 260.261719 42.15625 255.167969 43.914062 250.222656 46.011719 C 242.640625 49.226562 235.089844 52.535156 227.644531 56.050781 C 218.570312 60.335938 209.570312 64.785156 200.628906 69.339844 C 194.085938 72.667969 187.566406 76.074219 181.253906 79.808594 C 170.917969 85.921875 160.683594 92.214844 150.550781 98.652344 C 143.148438 103.355469 135.960938 108.390625 128.707031 113.320312 C 125.445312 115.539062 122.3125 117.949219 119.019531 120.121094 C 105.613281 128.957031 93.464844 139.21875 83.042969 151.484375 C 80.953125 153.941406 78.726562 156.285156 76.480469 158.601562 C 75.621094 159.488281 74.503906 160.835938 73.546875 160.800781 C 69.140625 160.636719 68.011719 164.066406 66.152344 166.839844 C 64.960938 168.617188 63.5625 170.261719 62.195312 171.914062 C 61.167969 173.15625 59.816406 174.179688 59 175.535156 C 54.570312 182.871094 50.242188 190.269531 45.917969 197.671875 C 44.746094 199.679688 43.757812 201.800781 42.59375 203.816406 C 28.527344 228.175781 17.703125 253.917969 9.992188 280.953125 C 6.039062 294.808594 3.929688 309.015625 3.101562 323.375 C 2.214844 338.769531 1.703125 354.1875 1.066406 369.597656 C 0.742188 377.390625 2.007812 385.007812 4.21875 392.433594 C 8.273438 406.046875 13.683594 419.117188 20.667969 431.5 C 23.578125 436.65625 26.78125 441.640625 29.710938 446.785156 C 42.90625 469.917969 60.742188 488.792969 82.019531 504.640625 C 94.808594 514.167969 109.007812 520.878906 123.628906 526.929688 C 126.519531 528.128906 130.621094 527.824219 131.695312 532.070312 C 131.746094 532.273438 132.300781 532.464844 132.625 532.472656 C 137.96875 532.597656 141.890625 536.121094 146.328125 538.328125 C 162.730469 546.496094 179.46875 553.710938 197.167969 558.699219 C 211.308594 562.683594 225.339844 567.105469 239.289062 571.734375 C 261.179688 579.003906 283.753906 582.914062 306.472656 586.28125 C 324.382812 588.9375 342.238281 591.964844 360.171875 594.425781 C 373.484375 596.25 386.917969 597.191406 400.242188 598.945312 C 416.949219 601.148438 433.574219 603.941406 450.277344 606.164062 C 459.507812 607.390625 468.808594 608.230469 478.105469 608.78125 C 497.613281 609.9375 517.128906 610.972656 536.65625 611.71875 C 562.355469 612.695312 587.902344 611.023438 613.246094 606.503906 C 616.761719 605.875 620.382812 605.410156 623.933594 605.519531 C 653.539062 606.449219 683.089844 604.964844 712.648438 603.769531 C 718.535156 603.53125 724.445312 603.734375 730.363281 602.824219 C 725.488281 602.371094 720.613281 601.921875 715.742188 601.46875 C 715.746094 601.28125 715.753906 601.097656 715.757812 600.910156 C 724.8125 599.355469 734.050781 598.480469 742.878906 596.089844 C 755.832031 592.578125 769.269531 593.699219 782.230469 590.886719 C 788.859375 589.449219 795.457031 587.839844 802.058594 586.261719 C 803.429688 585.929688 804.75 585.390625 806.589844 584.78125 C 807.070312 586.265625 807.640625 587.515625 807.875 588.824219 C 813.371094 619.292969 812.480469 649.523438 804.480469 679.492188 C 800.78125 693.351562 793.757812 705.6875 786.785156 718.015625 C 782.375 725.816406 777.449219 733.328125 772.902344 741.054688 C 771.550781 743.351562 770.550781 745.890625 769.675781 748.417969 C 768.839844 750.828125 769.324219 753.101562 771.71875 754.488281 C 773.664062 755.613281 775.605469 754.664062 777.597656 752.21875 C 779.5 749.878906 781.417969 747.46875 783.714844 745.550781 C 792.246094 738.421875 801.058594 731.628906 809.519531 724.414062 C 814.65625 720.035156 819.339844 715.125 824.847656 709.859375 C 823.648438 712.839844 822.742188 715.09375 821.835938 717.347656 C 822.042969 717.53125 822.25 717.714844 822.457031 717.898438 Z M 20.488281 352.796875 C 24.070312 345.707031 24.410156 343.644531 25.09375 337.3125 C 26.402344 325.195312 27.546875 313.03125 29.621094 301.035156 C 31.761719 288.679688 34.085938 276.238281 37.816406 264.296875 C 48.4375 230.292969 67.679688 201.644531 94.15625 177.90625 C 108.179688 165.339844 122.488281 153.089844 136.625 140.652344 C 138.363281 139.125 140.191406 137.523438 141.410156 135.597656 C 149.183594 123.261719 160.339844 114.4375 172.402344 107 C 191.488281 95.234375 211.378906 84.902344 232.503906 77.140625 C 269.398438 63.582031 307.113281 52.746094 345.082031 42.710938 C 376.398438 34.433594 408.214844 29.546875 440.570312 28.164062 C 448.449219 27.828125 456.335938 27.605469 464.207031 27.140625 C 478.699219 26.285156 493.167969 24.8125 507.667969 24.46875 C 527.199219 24.003906 546.75 24.347656 566.292969 24.398438 C 567.882812 24.402344 569.464844 24.832031 571.054688 25.035156 C 574.414062 25.464844 577.761719 26.105469 581.132812 26.253906 C 597.601562 26.988281 614.101562 27.253906 630.550781 28.324219 C 649.683594 29.570312 668.761719 31.65625 687.886719 33.046875 C 703.332031 34.167969 718.375 37.015625 733.3125 41.101562 C 770.535156 51.289062 806.730469 64.535156 843.074219 77.355469 C 874.914062 88.585938 906.019531 101.46875 934.964844 119.101562 C 938.792969 121.433594 942.777344 123.5 946.628906 125.789062 C 956.585938 131.714844 967.601562 136.277344 974.066406 146.867188 C 974.101562 137.089844 964.707031 134.488281 959.179688 127.589844 C 963.128906 128.773438 965.429688 130.652344 967.523438 132.742188 C 980.203125 145.414062 992.902344 158.066406 1005.460938 170.855469 C 1014.425781 179.988281 1021.761719 190.328125 1028.191406 201.421875 C 1033.765625 211.03125 1039.777344 220.429688 1046.203125 229.492188 C 1058.40625 246.691406 1068.300781 265.078125 1077.003906 284.269531 C 1085.894531 303.859375 1090.957031 324.085938 1091.210938 345.636719 C 1091.300781 352.941406 1092.933594 360.21875 1093.453125 367.539062 C 1093.945312 374.480469 1094.921875 381.617188 1093.910156 388.402344 C 1090.703125 409.855469 1087.230469 431.351562 1075.433594 450.289062 C 1072.738281 459.207031 1066.394531 465.324219 1059.121094 470.371094 C 1049.707031 476.910156 1040.089844 483.210938 1030.203125 488.996094 C 1008.027344 501.972656 984.285156 511.78125 961.015625 522.535156 C 959.738281 523.125 958.210938 523.871094 956.945312 523.65625 C 949.648438 522.4375 943.566406 525.496094 937.644531 528.933594 C 925.15625 536.179688 911.800781 541.289062 898.117188 545.710938 C 894.402344 546.910156 890.886719 548.777344 887.371094 550.515625 C 885.734375 551.320312 884.566406 552.085938 882.480469 551.046875 C 879.648438 549.640625 878.28125 550.550781 877.386719 553.664062 C 876.445312 556.933594 875.824219 560.292969 874.914062 563.574219 C 871.703125 575.152344 868.253906 586.667969 865.214844 598.292969 C 860.980469 614.488281 855.730469 630.257812 847.738281 645.042969 C 843.730469 652.460938 840.324219 660.214844 836.085938 667.488281 C 829.859375 678.167969 823.144531 688.566406 816.585938 699.050781 C 815.792969 700.320312 814.667969 701.390625 813.699219 702.550781 C 813.867188 700.03125 814.933594 698.050781 815.867188 696.007812 C 818.027344 691.285156 820.5 686.660156 822.15625 681.761719 C 825.25 672.589844 827.90625 663.269531 830.652344 653.984375 C 835.488281 637.664062 835.125 621.136719 832.183594 604.484375 C 831.277344 611.609375 830.367188 618.730469 829.460938 625.855469 C 828.382812 623.804688 828.09375 621.859375 827.90625 619.902344 C 826.695312 607.363281 824.628906 595.015625 820.1875 583.148438 C 819.75 581.980469 819.875 580.417969 820.226562 579.175781 C 821.382812 575.101562 820.398438 573.148438 816.363281 572.039062 C 815.015625 571.671875 813.589844 571.414062 812.371094 570.78125 C 808.109375 568.574219 806.882812 568.972656 805.269531 573.359375 C 804.96875 574.175781 804.644531 574.984375 804.101562 576.378906 C 791.960938 578.761719 779.734375 581.546875 767.371094 583.460938 C 758.183594 584.886719 748.800781 584.992188 739.546875 586.050781 C 734.417969 586.636719 729.421875 588.410156 724.296875 588.90625 C 697.667969 591.480469 670.976562 591.816406 644.238281 591.179688 C 633.507812 590.921875 622.75 591.664062 612 591.921875 C 605.378906 592.078125 598.707031 592.746094 592.136719 592.207031 C 563.914062 589.882812 535.691406 587.46875 507.519531 584.578125 C 473.285156 581.0625 439.113281 576.933594 404.894531 573.261719 C 364.058594 568.878906 323.429688 563.0625 283.03125 555.6875 C 242.257812 548.242188 201.910156 539.140625 162.613281 525.613281 C 138.84375 517.425781 116.890625 506.003906 96.070312 492.058594 C 75.796875 478.476562 60.804688 460.726562 51.84375 437.945312 C 48.105469 428.433594 44.285156 418.949219 40.425781 409.484375 C 39.738281 407.800781 38.671875 406.273438 37.210938 403.652344 C 36.675781 405.648438 36.273438 406.316406 36.371094 406.898438 C 38.765625 421.421875 44.191406 435.070312 49.25 449.796875 C 48.144531 448.796875 47.691406 448.527344 47.429688 448.128906 C 35.738281 430.402344 25.351562 412.007812 18.703125 391.710938 C 16.398438 384.675781 14.929688 377.519531 15.039062 370.058594 C 15.140625 363.421875 14.980469 356.78125 14.988281 350.144531 C 14.988281 348.441406 15.195312 346.738281 15.339844 344.554688 C 17.195312 347.523438 18.726562 349.976562 20.488281 352.796875 Z M 539.773438 13.402344 C 535.492188 13.402344 531.207031 13.257812 526.933594 13.429688 C 512.824219 14.011719 498.722656 14.769531 484.613281 15.300781 C 482.007812 15.398438 479.371094 14.753906 476.746094 14.449219 C 476.78125 14 476.820312 13.546875 476.855469 13.097656 C 497.8125 12.195312 518.789062 12.578125 539.773438 13.402344 Z M 387.609375 24.097656 C 402.976562 20.429688 418.386719 17.035156 435.464844 17.960938 C 418.738281 20.105469 403.171875 22.101562 387.609375 24.097656 Z M 72.632812 183.613281 C 72.367188 183.324219 72.101562 183.035156 71.835938 182.746094 C 75.769531 178.183594 78.792969 172.800781 83.605469 169.03125 C 83.960938 169.34375 84.320312 169.660156 84.675781 169.972656 C 80.660156 174.519531 76.648438 179.066406 72.632812 183.613281 Z M 261.449219 567.71875 C 261.515625 567.425781 261.578125 567.128906 261.644531 566.835938 C 265.230469 567.609375 268.816406 568.386719 272.402344 569.160156 C 272.332031 569.476562 272.261719 569.796875 272.195312 570.113281 C 268.613281 569.316406 265.03125 568.515625 261.449219 567.71875 Z M 20.488281 352.796875 C 18.726562 349.976562 17.195312 347.523438 15.339844 344.554688 C 15.195312 346.738281 14.988281 348.441406 14.988281 350.144531 C 14.980469 356.78125 15.140625 363.421875 15.039062 370.058594 C 14.929688 377.519531 16.398438 384.675781 18.703125 391.710938 C 25.351562 412.007812 35.738281 430.402344 47.429688 448.128906 C 47.691406 448.527344 48.144531 448.796875 49.25 449.796875 C 44.191406 435.070312 38.765625 421.421875 36.371094 406.898438 C 36.273438 406.316406 36.675781 405.648438 37.210938 403.652344 C 38.671875 406.273438 39.738281 407.800781 40.425781 409.484375 C 44.285156 418.949219 48.105469 428.433594 51.84375 437.945312 C 60.804688 460.726562 75.796875 478.476562 96.070312 492.058594 C 116.890625 506.003906 138.84375 517.425781 162.613281 525.613281 C 201.910156 539.140625 242.257812 548.242188 283.03125 555.6875 C 323.429688 563.0625 364.058594 568.878906 404.894531 573.261719 C 439.113281 576.933594 473.285156 581.0625 507.519531 584.578125 C 535.691406 587.46875 563.914062 589.882812 592.136719 592.207031 C 598.707031 592.746094 605.378906 592.078125 612 591.921875 C 622.75 591.664062 633.507812 590.921875 644.242188 591.179688 C 670.976562 591.816406 697.667969 591.480469 724.296875 588.90625 C 729.421875 588.410156 734.421875 586.636719 739.546875 586.050781 C 748.800781 584.992188 758.183594 584.886719 767.371094 583.460938 C 779.734375 581.546875 791.960938 578.761719 804.101562 576.378906 C 804.644531 574.984375 804.96875 574.175781 805.269531 573.359375 C 806.882812 568.972656 808.109375 568.574219 812.371094 570.78125 C 813.589844 571.414062 815.015625 571.671875 816.363281 572.039062 C 820.398438 573.148438 821.382812 575.101562 820.226562 579.175781 C 819.875 580.417969 819.75 581.980469 820.1875 583.148438 C 824.628906 595.015625 826.695312 607.363281 827.90625 619.902344 C 828.09375 621.859375 828.382812 623.804688 829.460938 625.855469 C 830.367188 618.730469 831.277344 611.609375 832.183594 604.484375 C 835.125 621.136719 835.488281 637.664062 830.652344 653.984375 C 827.90625 663.269531 825.25 672.589844 822.15625 681.761719 C 820.5 686.660156 818.027344 691.285156 815.867188 696.007812 C 814.933594 698.050781 813.867188 700.03125 813.699219 702.550781 C 814.667969 701.390625 815.792969 700.320312 816.585938 699.050781 C 823.144531 688.566406 829.859375 678.167969 836.085938 667.488281 C 840.324219 660.214844 843.730469 652.460938 847.738281 645.042969 C 855.730469 630.257812 860.980469 614.488281 865.214844 598.292969 C 868.253906 586.667969 871.703125 575.152344 874.914062 563.574219 C 875.824219 560.292969 876.445312 556.933594 877.386719 553.664062 C 878.28125 550.550781 879.648438 549.640625 882.480469 551.046875 C 884.566406 552.085938 885.734375 551.320312 887.371094 550.515625 C 890.886719 548.777344 894.402344 546.910156 898.117188 545.710938 C 911.800781 541.289062 925.15625 536.179688 937.644531 528.933594 C 943.566406 525.496094 949.648438 522.4375 956.945312 523.65625 C 958.210938 523.871094 959.738281 523.125 961.015625 522.535156 C 984.285156 511.78125 1008.027344 501.972656 1030.203125 488.996094 C 1040.089844 483.210938 1049.707031 476.910156 1059.121094 470.371094 C 1066.394531 465.324219 1072.738281 459.207031 1075.433594 450.289062 C 1087.230469 431.351562 1090.703125 409.855469 1093.910156 388.402344 C 1094.921875 381.617188 1093.945312 374.480469 1093.453125 367.539062 C 1092.933594 360.21875 1091.300781 352.941406 1091.210938 345.636719 C 1090.957031 324.085938 1085.894531 303.859375 1077.003906 284.269531 C 1068.300781 265.078125 1058.40625 246.691406 1046.203125 229.492188 C 1039.777344 220.429688 1033.765625 211.03125 1028.191406 201.421875 C 1021.761719 190.328125 1014.425781 179.988281 1005.460938 170.855469 C 992.902344 158.066406 980.203125 145.414062 967.523438 132.742188 C 965.429688 130.652344 963.128906 128.773438 959.179688 127.589844 C 964.707031 134.488281 974.101562 137.089844 974.066406 146.867188 C 967.601562 136.277344 956.585938 131.714844 946.628906 125.789062 C 942.777344 123.5 938.792969 121.433594 934.964844 119.101562 C 906.019531 101.46875 874.914062 88.585938 843.074219 77.355469 C 806.730469 64.535156 770.535156 51.289062 733.3125 41.101562 C 718.375 37.015625 703.332031 34.167969 687.886719 33.046875 C 668.761719 31.65625 649.683594 29.570312 630.550781 28.324219 C 614.101562 27.253906 597.601562 26.988281 581.132812 26.253906 C 577.761719 26.105469 574.414062 25.464844 571.054688 25.035156 C 569.464844 24.832031 567.882812 24.402344 566.292969 24.398438 C 546.75 24.347656 527.199219 24.003906 507.667969 24.46875 C 493.167969 24.8125 478.699219 26.285156 464.210938 27.140625 C 456.335938 27.605469 448.449219 27.828125 440.570312 28.164062 C 408.214844 29.546875 376.398438 34.433594 345.082031 42.710938 C 307.113281 52.746094 269.398438 63.582031 232.503906 77.140625 C 211.378906 84.902344 191.488281 95.234375 172.402344 107 C 160.339844 114.4375 149.183594 123.261719 141.410156 135.597656 C 140.191406 137.523438 138.363281 139.125 136.625 140.652344 C 122.488281 153.089844 108.179688 165.339844 94.15625 177.90625 C 67.679688 201.644531 48.4375 230.292969 37.816406 264.296875 C 34.089844 276.238281 31.761719 288.679688 29.621094 301.035156 C 27.546875 313.03125 26.402344 325.195312 25.09375 337.3125 C 24.410156 343.644531 24.070312 345.707031 20.488281 352.796875 Z M 20.488281 352.796875 " fill-opacity="1" fill-rule="nonzero"/><path fill="#000000" d="M 822.457031 717.898438 C 828.347656 708.699219 834.710938 699.765625 840.011719 690.242188 C 847.773438 676.296875 855.007812 662.042969 862.007812 647.699219 C 865.613281 640.3125 868.746094 632.605469 871.1875 624.761719 C 875.507812 610.902344 879.238281 596.859375 883.007812 582.835938 C 884.585938 576.957031 885.738281 570.953125 886.875 564.964844 C 887.359375 562.417969 888.585938 560.644531 890.839844 559.609375 C 893.921875 558.199219 896.972656 556.585938 900.207031 555.664062 C 910.574219 552.707031 920.785156 549.40625 930.394531 544.417969 C 931.972656 543.597656 933.664062 542.898438 935.382812 542.453125 C 952.636719 538.003906 969.0625 531.304688 985.324219 524.148438 C 992.214844 521.117188 998.984375 517.773438 1005.988281 515.027344 C 1013.421875 512.109375 1021.054688 509.691406 1028.621094 507.125 C 1059.144531 496.761719 1080.902344 476.410156 1094.9375 447.785156 C 1100.765625 435.894531 1105.378906 423.390625 1110.25 411.050781 C 1114 401.554688 1114.203125 391.390625 1114.691406 381.375 C 1115.136719 372.242188 1114.914062 363.078125 1115.042969 353.929688 C 1115.117188 348.734375 1115.0625 343.523438 1115.503906 338.355469 C 1116.027344 332.191406 1115.660156 326.179688 1113.96875 320.238281 C 1113.179688 317.480469 1112.597656 314.648438 1111.621094 311.957031 C 1103.78125 290.390625 1096.476562 268.601562 1087.78125 247.382812 C 1081.335938 231.648438 1073.53125 216.414062 1065.488281 201.40625 C 1053.230469 178.535156 1036.964844 158.84375 1016.089844 143.175781 C 1015.101562 142.433594 1014.085938 141.726562 1012.769531 141.292969 C 1013.753906 143.929688 1016.050781 145.496094 1017.878906 147.414062 C 1019.734375 149.363281 1021.707031 151.199219 1023.574219 153.136719 C 1025.566406 155.199219 1027.527344 157.296875 1029.453125 159.425781 C 1031.257812 161.421875 1033.015625 163.457031 1034.761719 165.507812 C 1036.625 167.691406 1038.476562 169.882812 1040.28125 172.117188 C 1041.964844 174.203125 1043.578125 176.347656 1044.753906 179 C 1043.875 178.128906 1042.980469 177.277344 1042.121094 176.386719 C 1031.917969 165.808594 1021.71875 155.222656 1011.515625 144.644531 C 1010.023438 143.097656 1008.398438 141.664062 1006.996094 140.039062 C 993.640625 124.566406 978.085938 111.691406 960.878906 100.746094 C 922.792969 76.523438 881.992188 58.300781 838.777344 45.429688 C 832.074219 43.433594 825.355469 41.503906 818.648438 39.523438 C 805.230469 35.554688 791.691406 32.226562 777.851562 29.9375 C 763.183594 27.511719 748.753906 23.59375 734.0625 21.394531 C 701.101562 16.460938 668.054688 12.082031 635.019531 7.675781 C 593.152344 2.089844 551.039062 0.953125 508.878906 1.570312 C 492.402344 1.8125 475.945312 3.160156 459.472656 3.945312 C 455.003906 4.160156 450.519531 4.117188 446.046875 4.261719 C 442.464844 4.378906 438.84375 4.300781 435.320312 4.828125 C 426.070312 6.210938 416.808594 6.746094 407.457031 6.59375 C 400.144531 6.476562 392.988281 6.84375 385.75 9.191406 C 378.679688 11.488281 370.960938 11.800781 363.511719 12.878906 C 329.59375 17.789062 297.140625 27.929688 265.277344 40.222656 C 260.261719 42.15625 255.167969 43.914062 250.222656 46.011719 C 242.640625 49.226562 235.089844 52.535156 227.644531 56.050781 C 218.570312 60.335938 209.570312 64.785156 200.628906 69.339844 C 194.085938 72.667969 187.566406 76.074219 181.253906 79.808594 C 170.917969 85.921875 160.683594 92.214844 150.550781 98.652344 C 143.148438 103.355469 135.960938 108.390625 128.707031 113.320312 C 125.445312 115.539062 122.3125 117.949219 119.019531 120.121094 C 105.613281 128.957031 93.464844 139.21875 83.042969 151.484375 C 80.953125 153.941406 78.726562 156.285156 76.480469 158.601562 C 75.621094 159.488281 74.503906 160.835938 73.546875 160.800781 C 69.140625 160.636719 68.011719 164.066406 66.152344 166.839844 C 64.960938 168.617188 63.5625 170.261719 62.195312 171.914062 C 61.167969 173.15625 59.816406 174.179688 59 175.535156 C 54.570312 182.871094 50.242188 190.269531 45.917969 197.671875 C 44.746094 199.679688 43.757812 201.800781 42.59375 203.816406 C 28.527344 228.175781 17.703125 253.917969 9.992188 280.953125 C 6.039062 294.808594 3.929688 309.015625 3.101562 323.375 C 2.214844 338.769531 1.703125 354.1875 1.066406 369.597656 C 0.742188 377.390625 2.007812 385.007812 4.21875 392.433594 C 8.273438 406.046875 13.683594 419.117188 20.667969 431.5 C 23.578125 436.65625 26.78125 441.640625 29.710938 446.785156 C 42.90625 469.917969 60.742188 488.792969 82.019531 504.640625 C 94.808594 514.167969 109.007812 520.878906 123.628906 526.929688 C 126.519531 528.128906 130.621094 527.824219 131.695312 532.070312 C 131.746094 532.273438 132.300781 532.464844 132.625 532.472656 C 137.96875 532.597656 141.890625 536.121094 146.328125 538.328125 C 162.730469 546.496094 179.46875 553.710938 197.167969 558.699219 C 211.308594 562.683594 225.339844 567.105469 239.289062 571.734375 C 261.179688 579.003906 283.753906 582.914062 306.472656 586.28125 C 324.382812 588.9375 342.238281 591.964844 360.171875 594.425781 C 373.484375 596.25 386.917969 597.191406 400.242188 598.945312 C 416.949219 601.148438 433.574219 603.941406 450.277344 606.164062 C 459.507812 607.390625 468.808594 608.230469 478.105469 608.78125 C 497.613281 609.9375 517.128906 610.972656 536.65625 611.71875 C 562.355469 612.695312 587.902344 611.023438 613.246094 606.503906 C 616.761719 605.875 620.382812 605.410156 623.933594 605.519531 C 653.539062 606.449219 683.089844 604.964844 712.648438 603.769531 C 718.535156 603.53125 724.445312 603.734375 730.363281 602.824219 C 725.488281 602.371094 720.613281 601.921875 715.742188 601.46875 C 715.746094 601.28125 715.753906 601.097656 715.757812 600.910156 C 724.8125 599.355469 734.050781 598.480469 742.878906 596.089844 C 755.832031 592.578125 769.269531 593.699219 782.230469 590.886719 C 788.859375 589.449219 795.457031 587.839844 802.058594 586.261719 C 803.429688 585.929688 804.75 585.390625 806.589844 584.78125 C 807.070312 586.265625 807.640625 587.515625 807.875 588.824219 C 813.371094 619.292969 812.480469 649.523438 804.480469 679.492188 C 800.78125 693.351562 793.757812 705.6875 786.785156 718.015625 C 782.375 725.816406 777.449219 733.328125 772.902344 741.054688 C 771.550781 743.351562 770.550781 745.890625 769.675781 748.417969 C 768.839844 750.828125 769.324219 753.101562 771.71875 754.488281 C 773.664062 755.613281 775.605469 754.664062 777.597656 752.21875 C 779.5 749.878906 781.417969 747.46875 783.714844 745.550781 C 792.246094 738.421875 801.058594 731.628906 809.519531 724.414062 C 814.65625 720.035156 819.339844 715.125 824.847656 709.859375 C 823.648438 712.839844 822.742188 715.09375 821.835938 717.347656 C 822.042969 717.53125 822.25 717.714844 822.457031 717.898438 Z M 20.488281 352.796875 C 24.070312 345.707031 24.410156 343.644531 25.09375 337.3125 C 26.402344 325.195312 27.546875 313.03125 29.621094 301.035156 C 31.761719 288.679688 34.085938 276.238281 37.816406 264.296875 C 48.4375 230.292969 67.679688 201.644531 94.15625 177.90625 C 108.179688 165.339844 122.488281 153.089844 136.625 140.652344 C 138.363281 139.125 140.191406 137.523438 141.410156 135.597656 C 149.183594 123.261719 160.339844 114.4375 172.402344 107 C 191.488281 95.234375 211.378906 84.902344 232.503906 77.140625 C 269.398438 63.582031 307.113281 52.746094 345.082031 42.710938 C 376.398438 34.433594 408.214844 29.546875 440.570312 28.164062 C 448.449219 27.828125 456.335938 27.605469 464.207031 27.140625 C 478.699219 26.285156 493.167969 24.8125 507.667969 24.46875 C 527.199219 24.003906 546.75 24.347656 566.292969 24.398438 C 567.882812 24.402344 569.464844 24.832031 571.054688 25.035156 C 574.414062 25.464844 577.761719 26.105469 581.132812 26.253906 C 597.601562 26.988281 614.101562 27.253906 630.550781 28.324219 C 649.683594 29.570312 668.761719 31.65625 687.886719 33.046875 C 703.332031 34.167969 718.375 37.015625 733.3125 41.101562 C 770.535156 51.289062 806.730469 64.535156 843.074219 77.355469 C 874.914062 88.585938 906.019531 101.46875 934.964844 119.101562 C 938.792969 121.433594 942.777344 123.5 946.628906 125.789062 C 956.585938 131.714844 967.601562 136.277344 974.066406 146.867188 C 974.101562 137.089844 964.707031 134.488281 959.179688 127.589844 C 963.128906 128.773438 965.429688 130.652344 967.523438 132.742188 C 980.203125 145.414062 992.902344 158.066406 1005.460938 170.855469 C 1014.425781 179.988281 1021.761719 190.328125 1028.191406 201.421875 C 1033.765625 211.03125 1039.777344 220.429688 1046.203125 229.492188 C 1058.40625 246.691406 1068.300781 265.078125 1077.003906 284.269531 C 1085.894531 303.859375 1090.957031 324.085938 1091.210938 345.636719 C 1091.300781 352.941406 1092.933594 360.21875 1093.453125 367.539062 C 1093.945312 374.480469 1094.921875 381.617188 1093.910156 388.402344 C 1090.703125 409.855469 1087.230469 431.351562 1075.433594 450.289062 C 1072.738281 459.207031 1066.394531 465.324219 1059.121094 470.371094 C 1049.707031 476.910156 1040.089844 483.210938 1030.203125 488.996094 C 1008.027344 501.972656 984.285156 511.78125 961.015625 522.535156 C 959.738281 523.125 958.210938 523.871094 956.945312 523.65625 C 949.648438 522.4375 943.566406 525.496094 937.644531 528.933594 C 925.15625 536.179688 911.800781 541.289062 898.117188 545.710938 C 894.402344 546.910156 890.886719 548.777344 887.371094 550.515625 C 885.734375 551.320312 884.566406 552.085938 882.480469 551.046875 C 879.648438 549.640625 878.28125 550.550781 877.386719 553.664062 C 876.445312 556.933594 875.824219 560.292969 874.914062 563.574219 C 871.703125 575.152344 868.253906 586.667969 865.214844 598.292969 C 860.980469 614.488281 855.730469 630.257812 847.738281 645.042969 C 843.730469 652.460938 840.324219 660.214844 836.085938 667.488281 C 829.859375 678.167969 823.144531 688.566406 816.585938 699.050781 C 815.792969 700.320312 814.667969 701.390625 813.699219 702.550781 C 813.867188 700.03125 814.933594 698.050781 815.867188 696.007812 C 818.027344 691.285156 820.5 686.660156 822.15625 681.761719 C 825.25 672.589844 827.90625 663.269531 830.652344 653.984375 C 835.488281 637.664062 835.125 621.136719 832.183594 604.484375 C 831.277344 611.609375 830.367188 618.730469 829.460938 625.855469 C 828.382812 623.804688 828.09375 621.859375 827.90625 619.902344 C 826.695312 607.363281 824.628906 595.015625 820.1875 583.148438 C 819.75 581.980469 819.875 580.417969 820.226562 579.175781 C 821.382812 575.101562 820.398438 573.148438 816.363281 572.039062 C 815.015625 571.671875 813.589844 571.414062 812.371094 570.78125 C 808.109375 568.574219 806.882812 568.972656 805.269531 573.359375 C 804.96875 574.175781 804.644531 574.984375 804.101562 576.378906 C 791.960938 578.761719 779.734375 581.546875 767.371094 583.460938 C 758.183594 584.886719 748.800781 584.992188 739.546875 586.050781 C 734.417969 586.636719 729.421875 588.410156 724.296875 588.90625 C 697.667969 591.480469 670.976562 591.816406 644.238281 591.179688 C 633.507812 590.921875 622.75 591.664062 612 591.921875 C 605.378906 592.078125 598.707031 592.746094 592.136719 592.207031 C 563.914062 589.882812 535.691406 587.46875 507.519531 584.578125 C 473.285156 581.0625 439.113281 576.933594 404.894531 573.261719 C 364.058594 568.878906 323.429688 563.0625 283.03125 555.6875 C 242.257812 548.242188 201.910156 539.140625 162.613281 525.613281 C 138.84375 517.425781 116.890625 506.003906 96.070312 492.058594 C 75.796875 478.476562 60.804688 460.726562 51.84375 437.945312 C 48.105469 428.433594 44.285156 418.949219 40.425781 409.484375 C 39.738281 407.800781 38.671875 406.273438 37.210938 403.652344 C 36.675781 405.648438 36.273438 406.316406 36.371094 406.898438 C 38.765625 421.421875 44.191406 435.070312 49.25 449.796875 C 48.144531 448.796875 47.691406 448.527344 47.429688 448.128906 C 35.738281 430.402344 25.351562 412.007812 18.703125 391.710938 C 16.398438 384.675781 14.929688 377.519531 15.039062 370.058594 C 15.140625 363.421875 14.980469 356.78125 14.988281 350.144531 C 14.988281 348.441406 15.195312 346.738281 15.339844 344.554688 C 17.195312 347.523438 18.726562 349.976562 20.488281 352.796875 Z M 539.773438 13.402344 C 535.492188 13.402344 531.207031 13.257812 526.933594 13.429688 C 512.824219 14.011719 498.722656 14.769531 484.613281 15.300781 C 482.007812 15.398438 479.371094 14.753906 476.746094 14.449219 C 476.78125 14 476.820312 13.546875 476.855469 13.097656 C 497.8125 12.195312 518.789062 12.578125 539.773438 13.402344 Z M 387.609375 24.097656 C 402.976562 20.429688 418.386719 17.035156 435.464844 17.960938 C 418.738281 20.105469 403.171875 22.101562 387.609375 24.097656 Z M 72.632812 183.613281 C 72.367188 183.324219 72.101562 183.035156 71.835938 182.746094 C 75.769531 178.183594 78.792969 172.800781 83.605469 169.03125 C 83.960938 169.34375 84.320312 169.660156 84.675781 169.972656 C 80.660156 174.519531 76.648438 179.066406 72.632812 183.613281 Z M 261.449219 567.71875 C 261.515625 567.425781 261.578125 567.128906 261.644531 566.835938 C 265.230469 567.609375 268.816406 568.386719 272.402344 569.160156 C 272.332031 569.476562 272.261719 569.796875 272.195312 570.113281 C 268.613281 569.316406 265.03125 568.515625 261.449219 567.71875 Z M 261.449219 567.71875 " fill-opacity="1" fill-rule="nonzero"/><path fill="#ffffff" d="M 20.488281 352.796875 C 18.726562 349.976562 17.195312 347.523438 15.339844 344.554688 C 15.195312 346.738281 14.988281 348.441406 14.988281 350.144531 C 14.980469 356.78125 15.140625 363.421875 15.039062 370.058594 C 14.929688 377.519531 16.398438 384.675781 18.703125 391.710938 C 25.351562 412.007812 35.738281 430.402344 47.429688 448.128906 C 47.691406 448.527344 48.144531 448.796875 49.25 449.796875 C 44.191406 435.070312 38.765625 421.421875 36.371094 406.898438 C 36.273438 406.316406 36.675781 405.648438 37.210938 403.652344 C 38.671875 406.273438 39.738281 407.800781 40.425781 409.484375 C 44.285156 418.949219 48.105469 428.433594 51.84375 437.945312 C 60.804688 460.726562 75.796875 478.476562 96.070312 492.058594 C 116.890625 506.003906 138.84375 517.425781 162.613281 525.613281 C 201.910156 539.140625 242.257812 548.242188 283.03125 555.6875 C 323.429688 563.0625 364.058594 568.878906 404.894531 573.261719 C 439.113281 576.933594 473.285156 581.0625 507.519531 584.578125 C 535.691406 587.46875 563.914062 589.882812 592.136719 592.207031 C 598.707031 592.746094 605.378906 592.078125 612 591.921875 C 622.75 591.664062 633.507812 590.921875 644.242188 591.179688 C 670.976562 591.816406 697.667969 591.480469 724.296875 588.90625 C 729.421875 588.410156 734.421875 586.636719 739.546875 586.050781 C 748.800781 584.992188 758.183594 584.886719 767.371094 583.460938 C 779.734375 581.546875 791.960938 578.761719 804.101562 576.378906 C 804.644531 574.984375 804.96875 574.175781 805.269531 573.359375 C 806.882812 568.972656 808.109375 568.574219 812.371094 570.78125 C 813.589844 571.414062 815.015625 571.671875 816.363281 572.039062 C 820.398438 573.148438 821.382812 575.101562 820.226562 579.175781 C 819.875 580.417969 819.75 581.980469 820.1875 583.148438 C 824.628906 595.015625 826.695312 607.363281 827.90625 619.902344 C 828.09375 621.859375 828.382812 623.804688 829.460938 625.855469 C 830.367188 618.730469 831.277344 611.609375 832.183594 604.484375 C 835.125 621.136719 835.488281 637.664062 830.652344 653.984375 C 827.90625 663.269531 825.25 672.589844 822.15625 681.761719 C 820.5 686.660156 818.027344 691.285156 815.867188 696.007812 C 814.933594 698.050781 813.867188 700.03125 813.699219 702.550781 C 814.667969 701.390625 815.792969 700.320312 816.585938 699.050781 C 823.144531 688.566406 829.859375 678.167969 836.085938 667.488281 C 840.324219 660.214844 843.730469 652.460938 847.738281 645.042969 C 855.730469 630.257812 860.980469 614.488281 865.214844 598.292969 C 868.253906 586.667969 871.703125 575.152344 874.914062 563.574219 C 875.824219 560.292969 876.445312 556.933594 877.386719 553.664062 C 878.28125 550.550781 879.648438 549.640625 882.480469 551.046875 C 884.566406 552.085938 885.734375 551.320312 887.371094 550.515625 C 890.886719 548.777344 894.402344 546.910156 898.117188 545.710938 C 911.800781 541.289062 925.15625 536.179688 937.644531 528.933594 C 943.566406 525.496094 949.648438 522.4375 956.945312 523.65625 C 958.210938 523.871094 959.738281 523.125 961.015625 522.535156 C 984.285156 511.78125 1008.027344 501.972656 1030.203125 488.996094 C 1040.089844 483.210938 1049.707031 476.910156 1059.121094 470.371094 C 1066.394531 465.324219 1072.738281 459.207031 1075.433594 450.289062 C 1087.230469 431.351562 1090.703125 409.855469 1093.910156 388.402344 C 1094.921875 381.617188 1093.945312 374.480469 1093.453125 367.539062 C 1092.933594 360.21875 1091.300781 352.941406 1091.210938 345.636719 C 1090.957031 324.085938 1085.894531 303.859375 1077.003906 284.269531 C 1068.300781 265.078125 1058.40625 246.691406 1046.203125 229.492188 C 1039.777344 220.429688 1033.765625 211.03125 1028.191406 201.421875 C 1021.761719 190.328125 1014.425781 179.988281 1005.460938 170.855469 C 992.902344 158.066406 980.203125 145.414062 967.523438 132.742188 C 965.429688 130.652344 963.128906 128.773438 959.179688 127.589844 C 964.707031 134.488281 974.101562 137.089844 974.066406 146.867188 C 967.601562 136.277344 956.585938 131.714844 946.628906 125.789062 C 942.777344 123.5 938.792969 121.433594 934.964844 119.101562 C 906.019531 101.46875 874.914062 88.585938 843.074219 77.355469 C 806.730469 64.535156 770.535156 51.289062 733.3125 41.101562 C 718.375 37.015625 703.332031 34.167969 687.886719 33.046875 C 668.761719 31.65625 649.683594 29.570312 630.550781 28.324219 C 614.101562 27.253906 597.601562 26.988281 581.132812 26.253906 C 577.761719 26.105469 574.414062 25.464844 571.054688 25.035156 C 569.464844 24.832031 567.882812 24.402344 566.292969 24.398438 C 546.75 24.347656 527.199219 24.003906 507.667969 24.46875 C 493.167969 24.8125 478.699219 26.285156 464.210938 27.140625 C 456.335938 27.605469 448.449219 27.828125 440.570312 28.164062 C 408.214844 29.546875 376.398438 34.433594 345.082031 42.710938 C 307.113281 52.746094 269.398438 63.582031 232.503906 77.140625 C 211.378906 84.902344 191.488281 95.234375 172.402344 107 C 160.339844 114.4375 149.183594 123.261719 141.410156 135.597656 C 140.191406 137.523438 138.363281 139.125 136.625 140.652344 C 122.488281 153.089844 108.179688 165.339844 94.15625 177.90625 C 67.679688 201.644531 48.4375 230.292969 37.816406 264.296875 C 34.089844 276.238281 31.761719 288.679688 29.621094 301.035156 C 27.546875 313.03125 26.402344 325.195312 25.09375 337.3125 C 24.410156 343.644531 24.070312 345.707031 20.488281 352.796875 Z M 20.488281 352.796875 " fill-opacity="1" fill-rule="nonzero"/></g></g></g><g transform="matrix(1, 0, 0, 1, 470, 258)" display="none"><g clip-path="url(#c850cb3b90)"><g fill="#000000" fill-opacity="1"><g transform="translate(0.448289, 68.915348)"><g><path d="M 39.796875 -13.5625 C 42.085938 -13.5625 44.304688 -13.90625 46.453125 -14.59375 C 48.609375 -15.289062 50.191406 -15.957031 51.203125 -16.59375 L 52.71875 -17.625 L 59.109375 -4.859375 C 58.890625 -4.703125 58.59375 -4.488281 58.21875 -4.21875 C 57.851562 -3.957031 56.992188 -3.46875 55.640625 -2.75 C 54.285156 -2.03125 52.832031 -1.40625 51.28125 -0.875 C 49.738281 -0.34375 47.71875 0.132812 45.21875 0.5625 C 42.726562 0.988281 40.148438 1.203125 37.484375 1.203125 C 31.367188 1.203125 25.570312 -0.296875 20.09375 -3.296875 C 14.625 -6.304688 10.210938 -10.441406 6.859375 -15.703125 C 3.503906 -20.972656 1.828125 -26.664062 1.828125 -32.78125 C 1.828125 -37.40625 2.8125 -41.84375 4.78125 -46.09375 C 6.75 -50.351562 9.367188 -54 12.640625 -57.03125 C 15.910156 -60.0625 19.722656 -62.476562 24.078125 -64.28125 C 28.441406 -66.09375 32.910156 -67 37.484375 -67 C 41.742188 -67 45.664062 -66.492188 49.25 -65.484375 C 52.84375 -64.472656 55.382812 -63.460938 56.875 -62.453125 L 59.109375 -60.9375 L 52.71875 -48.171875 C 52.351562 -48.492188 51.796875 -48.878906 51.046875 -49.328125 C 50.304688 -49.785156 48.816406 -50.382812 46.578125 -51.125 C 44.347656 -51.875 42.085938 -52.25 39.796875 -52.25 C 36.179688 -52.25 32.9375 -51.660156 30.0625 -50.484375 C 27.195312 -49.316406 24.925781 -47.773438 23.25 -45.859375 C 21.570312 -43.953125 20.296875 -41.894531 19.421875 -39.6875 C 18.546875 -37.476562 18.109375 -35.226562 18.109375 -32.9375 C 18.109375 -27.9375 19.984375 -23.457031 23.734375 -19.5 C 27.484375 -15.539062 32.835938 -13.5625 39.796875 -13.5625 Z M 39.796875 -13.5625 "/></g></g></g><g fill="#000000" fill-opacity="1"><g transform="translate(60.50534, 68.915348)"><g><path d="M 7.578125 -5.0625 C 3.742188 -9.238281 1.828125 -14.359375 1.828125 -20.421875 C 1.828125 -26.484375 3.742188 -31.613281 7.578125 -35.8125 C 11.410156 -40.007812 16.273438 -42.109375 22.171875 -42.109375 C 27.597656 -42.109375 32.066406 -40.410156 35.578125 -37.015625 L 35.578125 -40.921875 L 49.6875 -40.921875 L 49.6875 0 L 35.734375 0 L 35.734375 -4.625 L 35.578125 -4.625 C 32.066406 -0.738281 27.597656 1.203125 22.171875 1.203125 C 16.273438 1.203125 11.410156 -0.882812 7.578125 -5.0625 Z M 19.578125 -27.359375 C 17.742188 -25.546875 16.828125 -23.226562 16.828125 -20.40625 C 16.828125 -17.59375 17.703125 -15.296875 19.453125 -13.515625 C 21.210938 -11.734375 23.53125 -10.84375 26.40625 -10.84375 C 29.164062 -10.84375 31.4375 -11.742188 33.21875 -13.546875 C 35 -15.359375 35.890625 -17.648438 35.890625 -20.421875 C 35.890625 -23.234375 34.972656 -25.546875 33.140625 -27.359375 C 31.304688 -29.171875 29.0625 -30.078125 26.40625 -30.078125 C 23.6875 -30.078125 21.410156 -29.171875 19.578125 -27.359375 Z M 19.578125 -27.359375 "/></g></g></g><g fill="#000000" fill-opacity="1"><g transform="translate(114.421083, 68.915348)"><g><path d="M 7.171875 -40.921875 L 7.171875 -56.15625 L 21.296875 -56.15625 L 21.296875 -40.921875 L 29.90625 -40.921875 L 29.90625 -30.15625 L 21.296875 -30.15625 L 21.296875 -17.15625 C 21.296875 -13.375 22.359375 -11.484375 24.484375 -11.484375 C 25.015625 -11.484375 25.570312 -11.585938 26.15625 -11.796875 C 26.75 -12.015625 27.203125 -12.226562 27.515625 -12.4375 L 28 -12.765625 L 31.5 -1.359375 C 28.46875 0.347656 25.015625 1.203125 21.140625 1.203125 C 18.484375 1.203125 16.195312 0.738281 14.28125 -0.1875 C 12.363281 -1.125 10.910156 -2.375 9.921875 -3.9375 C 8.941406 -5.507812 8.238281 -7.160156 7.8125 -8.890625 C 7.382812 -10.617188 7.171875 -12.46875 7.171875 -14.4375 L 7.171875 -30.15625 L 1.28125 -30.15625 L 1.28125 -40.921875 Z M 7.171875 -40.921875 "/></g></g></g><g fill="#000000" fill-opacity="1"><g transform="translate(145.925137, 68.915348)"><g/></g></g><g fill="#000000" fill-opacity="1"><g transform="translate(167.69882, 68.915348)"><g><path d="M 8.640625 -4.859375 C 4.097656 -8.898438 1.828125 -14.082031 1.828125 -20.40625 C 1.828125 -26.738281 4.191406 -31.9375 8.921875 -36 C 13.660156 -40.070312 19.515625 -42.109375 26.484375 -42.109375 C 33.335938 -42.109375 39.117188 -40.0625 43.828125 -35.96875 C 48.535156 -31.875 50.890625 -26.6875 50.890625 -20.40625 C 50.890625 -14.132812 48.585938 -8.960938 43.984375 -4.890625 C 39.390625 -0.828125 33.554688 1.203125 26.484375 1.203125 C 19.140625 1.203125 13.191406 -0.816406 8.640625 -4.859375 Z M 19.578125 -27.359375 C 17.742188 -25.546875 16.828125 -23.226562 16.828125 -20.40625 C 16.828125 -17.59375 17.703125 -15.296875 19.453125 -13.515625 C 21.210938 -11.734375 23.53125 -10.84375 26.40625 -10.84375 C 29.164062 -10.84375 31.4375 -11.742188 33.21875 -13.546875 C 35 -15.359375 35.890625 -17.648438 35.890625 -20.421875 C 35.890625 -23.234375 34.972656 -25.546875 33.140625 -27.359375 C 31.304688 -29.171875 29.0625 -30.078125 26.40625 -30.078125 C 23.6875 -30.078125 21.410156 -29.171875 19.578125 -27.359375 Z M 19.578125 -27.359375 "/></g></g></g><g fill="#000000" fill-opacity="1"><g transform="translate(220.019419, 68.915348)"><g><path d="M 29.90625 0 L 20.34375 0 L -1.59375 -40.921875 L 14.671875 -40.921875 L 24.640625 -18.828125 L 34.453125 -40.921875 L 44.1875 -40.921875 L 54 -18.828125 L 63.96875 -40.921875 L 80.25 -40.921875 L 58.3125 0 L 48.734375 0 L 39.328125 -21.140625 Z M 29.90625 0 "/></g></g></g><g fill="#000000" fill-opacity="1"><g transform="translate(298.659865, 68.915348)"><g><path d="M 4.78125 0 L 4.78125 -40.921875 L 18.90625 -40.921875 L 18.90625 -36.609375 L 19.0625 -36.609375 C 22.726562 -40.273438 26.640625 -42.109375 30.796875 -42.109375 C 32.816406 -42.109375 34.820312 -41.84375 36.8125 -41.3125 C 38.800781 -40.78125 40.710938 -39.957031 42.546875 -38.84375 C 44.390625 -37.726562 45.878906 -36.144531 47.015625 -34.09375 C 48.160156 -32.050781 48.734375 -29.671875 48.734375 -26.953125 L 48.734375 0 L 34.625 0 L 34.625 -23.125 C 34.625 -25.257812 33.941406 -27.125 32.578125 -28.71875 C 31.222656 -30.3125 29.457031 -31.109375 27.28125 -31.109375 C 25.15625 -31.109375 23.226562 -30.28125 21.5 -28.625 C 19.769531 -26.976562 18.90625 -25.144531 18.90625 -23.125 L 18.90625 0 Z M 4.78125 0 "/></g></g></g><g fill="#000000" fill-opacity="1"><g transform="translate(351.379277, 68.915348)"><g><path d="M 46.1875 -18.5 L 16.515625 -18.5 C 16.515625 -15.632812 17.441406 -13.507812 19.296875 -12.125 C 21.160156 -10.738281 23.179688 -10.046875 25.359375 -10.046875 C 27.648438 -10.046875 29.457031 -10.351562 30.78125 -10.96875 C 32.113281 -11.582031 33.632812 -12.789062 35.34375 -14.59375 L 45.546875 -9.484375 C 41.296875 -2.359375 34.222656 1.203125 24.328125 1.203125 C 18.160156 1.203125 12.867188 -0.910156 8.453125 -5.140625 C 4.035156 -9.367188 1.828125 -14.460938 1.828125 -20.421875 C 1.828125 -26.378906 4.035156 -31.484375 8.453125 -35.734375 C 12.867188 -39.984375 18.160156 -42.109375 24.328125 -42.109375 C 30.816406 -42.109375 36.09375 -40.234375 40.15625 -36.484375 C 44.226562 -32.742188 46.265625 -27.390625 46.265625 -20.421875 C 46.265625 -19.460938 46.238281 -18.820312 46.1875 -18.5 Z M 16.90625 -26.328125 L 32.46875 -26.328125 C 32.144531 -28.453125 31.304688 -30.082031 29.953125 -31.21875 C 28.597656 -32.363281 26.859375 -32.9375 24.734375 -32.9375 C 22.390625 -32.9375 20.523438 -32.328125 19.140625 -31.109375 C 17.753906 -29.890625 17.007812 -28.296875 16.90625 -26.328125 Z M 16.90625 -26.328125 "/></g></g></g><g fill="#000000" fill-opacity="1"><g transform="translate(399.313261, 68.915348)"><g><path d="M 4.78125 0 L 4.78125 -40.921875 L 18.90625 -40.921875 L 18.90625 -35.015625 L 19.0625 -35.015625 C 19.164062 -35.234375 19.335938 -35.5 19.578125 -35.8125 C 19.816406 -36.132812 20.332031 -36.691406 21.125 -37.484375 C 21.925781 -38.285156 22.78125 -39.003906 23.6875 -39.640625 C 24.59375 -40.273438 25.765625 -40.84375 27.203125 -41.34375 C 28.640625 -41.851562 30.101562 -42.109375 31.59375 -42.109375 C 33.132812 -42.109375 34.648438 -41.894531 36.140625 -41.46875 C 37.628906 -41.050781 38.71875 -40.628906 39.40625 -40.203125 L 40.515625 -39.5625 L 34.625 -27.59375 C 32.863281 -29.082031 30.414062 -29.828125 27.28125 -29.828125 C 25.582031 -29.828125 24.117188 -29.453125 22.890625 -28.703125 C 21.671875 -27.960938 20.804688 -27.0625 20.296875 -26 C 19.796875 -24.9375 19.4375 -24.03125 19.21875 -23.28125 C 19.007812 -22.539062 18.90625 -21.957031 18.90625 -21.53125 L 18.90625 0 Z M 4.78125 0 "/></g></g></g><g fill="#000000" fill-opacity="1"><g transform="translate(439.032261, 68.915348)"><g><path d="M 7.171875 -64.5625 C 8.773438 -66.1875 10.71875 -67 13 -67 C 15.289062 -67 17.257812 -66.175781 18.90625 -64.53125 C 20.550781 -62.882812 21.375 -60.914062 21.375 -58.625 C 21.375 -51.601562 17.332031 -44.71875 9.25 -37.96875 L 5.5 -40.921875 C 5.820312 -41.234375 6.234375 -41.671875 6.734375 -42.234375 C 7.242188 -42.796875 8.003906 -43.96875 9.015625 -45.75 C 10.023438 -47.53125 10.6875 -49.320312 11 -51.125 C 9.195312 -51.550781 7.707031 -52.457031 6.53125 -53.84375 C 5.363281 -55.226562 4.78125 -56.820312 4.78125 -58.625 C 4.78125 -60.96875 5.578125 -62.945312 7.171875 -64.5625 Z M 7.171875 -64.5625 "/></g></g></g><g fill="#000000" fill-opacity="1"><g transform="translate(457.615433, 68.915348)"><g><path d="M 22.578125 -42.109375 C 24.910156 -42.109375 27.21875 -41.84375 29.5 -41.3125 C 31.789062 -40.78125 33.5 -40.25 34.625 -39.71875 L 36.296875 -38.921875 L 31.671875 -29.671875 C 28.472656 -31.367188 25.441406 -32.21875 22.578125 -32.21875 C 20.984375 -32.21875 19.851562 -32.046875 19.1875 -31.703125 C 18.519531 -31.359375 18.1875 -30.707031 18.1875 -29.75 C 18.1875 -29.539062 18.210938 -29.328125 18.265625 -29.109375 C 18.316406 -28.898438 18.421875 -28.703125 18.578125 -28.515625 C 18.742188 -28.328125 18.890625 -28.164062 19.015625 -28.03125 C 19.148438 -27.90625 19.378906 -27.757812 19.703125 -27.59375 C 20.023438 -27.4375 20.273438 -27.316406 20.453125 -27.234375 C 20.640625 -27.160156 20.945312 -27.039062 21.375 -26.875 C 21.800781 -26.71875 22.117188 -26.597656 22.328125 -26.515625 C 22.546875 -26.441406 22.90625 -26.320312 23.40625 -26.15625 C 23.914062 -26 24.300781 -25.894531 24.5625 -25.84375 C 26.21875 -25.363281 27.65625 -24.832031 28.875 -24.25 C 30.09375 -23.664062 31.378906 -22.867188 32.734375 -21.859375 C 34.097656 -20.847656 35.148438 -19.570312 35.890625 -18.03125 C 36.640625 -16.488281 37.015625 -14.734375 37.015625 -12.765625 C 37.015625 -3.453125 30.550781 1.203125 17.625 1.203125 C 14.695312 1.203125 11.914062 0.75 9.28125 -0.15625 C 6.65625 -1.0625 4.757812 -1.96875 3.59375 -2.875 L 1.828125 -4.3125 L 7.578125 -13.953125 C 8.003906 -13.585938 8.5625 -13.148438 9.25 -12.640625 C 9.945312 -12.140625 11.195312 -11.445312 13 -10.5625 C 14.8125 -9.6875 16.378906 -9.25 17.703125 -9.25 C 20.628906 -9.25 22.09375 -10.234375 22.09375 -12.203125 C 22.09375 -13.109375 21.71875 -13.8125 20.96875 -14.3125 C 20.226562 -14.820312 18.96875 -15.394531 17.1875 -16.03125 C 15.40625 -16.664062 14.007812 -17.25 13 -17.78125 C 10.445312 -19.113281 8.425781 -20.617188 6.9375 -22.296875 C 5.445312 -23.972656 4.703125 -26.191406 4.703125 -28.953125 C 4.703125 -33.097656 6.3125 -36.328125 9.53125 -38.640625 C 12.75 -40.953125 17.097656 -42.109375 22.578125 -42.109375 Z M 22.578125 -42.109375 "/></g></g></g><g fill="#000000" fill-opacity="1"><g transform="translate(496.855901, 68.915348)"><g/></g></g><g fill="#000000" fill-opacity="1"><g transform="translate(518.629584, 68.915348)"><g><path d="M 4.78125 0 L 4.78125 -40.921875 L 18.90625 -40.921875 L 18.90625 -36.609375 L 19.0625 -36.609375 C 22.726562 -40.273438 26.640625 -42.109375 30.796875 -42.109375 C 32.816406 -42.109375 34.820312 -41.84375 36.8125 -41.3125 C 38.800781 -40.78125 40.710938 -39.957031 42.546875 -38.84375 C 44.390625 -37.726562 45.878906 -36.144531 47.015625 -34.09375 C 48.160156 -32.050781 48.734375 -29.671875 48.734375 -26.953125 L 48.734375 0 L 34.625 0 L 34.625 -23.125 C 34.625 -25.257812 33.941406 -27.125 32.578125 -28.71875 C 31.222656 -30.3125 29.457031 -31.109375 27.28125 -31.109375 C 25.15625 -31.109375 23.226562 -30.28125 21.5 -28.625 C 19.769531 -26.976562 18.90625 -25.144531 18.90625 -23.125 L 18.90625 0 Z M 4.78125 0 "/></g></g></g><g fill="#000000" fill-opacity="1"><g transform="translate(571.348997, 68.915348)"><g><path d="M 7.578125 -5.0625 C 3.742188 -9.238281 1.828125 -14.359375 1.828125 -20.421875 C 1.828125 -26.484375 3.742188 -31.613281 7.578125 -35.8125 C 11.410156 -40.007812 16.273438 -42.109375 22.171875 -42.109375 C 27.597656 -42.109375 32.066406 -40.410156 35.578125 -37.015625 L 35.578125 -40.921875 L 49.6875 -40.921875 L 49.6875 0 L 35.734375 0 L 35.734375 -4.625 L 35.578125 -4.625 C 32.066406 -0.738281 27.597656 1.203125 22.171875 1.203125 C 16.273438 1.203125 11.410156 -0.882812 7.578125 -5.0625 Z M 19.578125 -27.359375 C 17.742188 -25.546875 16.828125 -23.226562 16.828125 -20.40625 C 16.828125 -17.59375 17.703125 -15.296875 19.453125 -13.515625 C 21.210938 -11.734375 23.53125 -10.84375 26.40625 -10.84375 C 29.164062 -10.84375 31.4375 -11.742188 33.21875 -13.546875 C 35 -15.359375 35.890625 -17.648438 35.890625 -20.421875 C 35.890625 -23.234375 34.972656 -25.546875 33.140625 -27.359375 C 31.304688 -29.171875 29.0625 -30.078125 26.40625 -30.078125 C 23.6875 -30.078125 21.410156 -29.171875 19.578125 -27.359375 Z M 19.578125 -27.359375 "/></g></g></g><g fill="#000000" fill-opacity="1"><g transform="translate(625.823065, 68.915348)"><g><path d="M 4.78125 0 L 4.78125 -40.921875 L 18.90625 -40.921875 L 18.90625 -36.609375 L 19.0625 -36.609375 C 22.726562 -40.273438 26.640625 -42.109375 30.796875 -42.109375 C 33.765625 -42.109375 36.550781 -41.5 39.15625 -40.28125 C 41.769531 -39.0625 43.738281 -37.175781 45.0625 -34.625 C 49.21875 -39.613281 53.738281 -42.109375 58.625 -42.109375 C 62.988281 -42.109375 66.738281 -40.882812 69.875 -38.4375 C 73.007812 -36 74.578125 -32.171875 74.578125 -26.953125 L 74.578125 0 L 60.46875 0 L 60.46875 -23.125 C 60.46875 -25.3125 59.867188 -27.132812 58.671875 -28.59375 C 57.472656 -30.0625 55.675781 -30.796875 53.28125 -30.796875 C 51.207031 -30.796875 49.625 -30.171875 48.53125 -28.921875 C 47.445312 -27.671875 46.851562 -26.164062 46.75 -24.40625 L 46.75 0 L 32.625 0 L 32.625 -23.125 C 32.625 -25.3125 32.023438 -27.132812 30.828125 -28.59375 C 29.628906 -30.0625 27.832031 -30.796875 25.4375 -30.796875 C 23.257812 -30.796875 21.625 -30.113281 20.53125 -28.75 C 19.445312 -27.394531 18.90625 -25.785156 18.90625 -23.921875 L 18.90625 0 Z M 4.78125 0 "/></g></g></g><g fill="#000000" fill-opacity="1"><g transform="translate(704.383756, 68.915348)"><g><path d="M 46.1875 -18.5 L 16.515625 -18.5 C 16.515625 -15.632812 17.441406 -13.507812 19.296875 -12.125 C 21.160156 -10.738281 23.179688 -10.046875 25.359375 -10.046875 C 27.648438 -10.046875 29.457031 -10.351562 30.78125 -10.96875 C 32.113281 -11.582031 33.632812 -12.789062 35.34375 -14.59375 L 45.546875 -9.484375 C 41.296875 -2.359375 34.222656 1.203125 24.328125 1.203125 C 18.160156 1.203125 12.867188 -0.910156 8.453125 -5.140625 C 4.035156 -9.367188 1.828125 -14.460938 1.828125 -20.421875 C 1.828125 -26.378906 4.035156 -31.484375 8.453125 -35.734375 C 12.867188 -39.984375 18.160156 -42.109375 24.328125 -42.109375 C 30.816406 -42.109375 36.09375 -40.234375 40.15625 -36.484375 C 44.226562 -32.742188 46.265625 -27.390625 46.265625 -20.421875 C 46.265625 -19.460938 46.238281 -18.820312 46.1875 -18.5 Z M 16.90625 -26.328125 L 32.46875 -26.328125 C 32.144531 -28.453125 31.304688 -30.082031 29.953125 -31.21875 C 28.597656 -32.363281 26.859375 -32.9375 24.734375 -32.9375 C 22.390625 -32.9375 20.523438 -32.328125 19.140625 -31.109375 C 17.753906 -29.890625 17.007812 -28.296875 16.90625 -26.328125 Z M 16.90625 -26.328125 "/></g></g></g></g></g><path fill="#000000" d="M 495.050781 938.003906 C 432.9375 829.25 0.984375 960.714844 15.355469 1263.921875 C 17.355469 1306.0625 14.746094 1355.277344 46.003906 1386.914062 C 121.960938 1463.796875 374.601562 1457.65625 471.09375 1452.933594 C 571.878906 1448.003906 896.113281 1468.222656 935.945312 1345.496094 C 951.175781 1298.574219 925.320312 1256.828125 933.332031 1213.453125 C 940.816406 1172.933594 1021.304688 1164.816406 1024.207031 1088.320312 C 1026.992188 1015 957.5625 964.054688 934.398438 898.917969 C 922.328125 864.992188 923.976562 684.0625 912.964844 678.304688 C 882.367188 662.300781 800.597656 801.347656 715.109375 799.257812 C 620.550781 796.945312 626.644531 625.488281 587.765625 635.234375 C 538.296875 647.632812 510.222656 883.941406 495.050781 938.003906 Z M 495.050781 938.003906 " fill-opacity="1" fill-rule="evenodd"/><path fill="#ffffff" d="M 588.894531 1060.933594 C 561.609375 1065.089844 534.246094 1073.085938 507.511719 1079.894531 C 503.957031 1080.796875 501.808594 1084.417969 502.710938 1087.980469 C 503.613281 1091.542969 507.230469 1093.695312 510.78125 1092.792969 C 537.09375 1086.085938 564.027344 1078.179688 590.894531 1074.085938 C 594.511719 1073.535156 597.007812 1070.144531 596.460938 1066.511719 C 595.910156 1062.882812 592.519531 1060.382812 588.894531 1060.933594 Z M 588.894531 1060.933594 " fill-opacity="1" fill-rule="evenodd"/><path fill="#ffffff" d="M 597.574219 1114.546875 C 599.574219 1113.753906 601.148438 1112 601.632812 1109.734375 C 602.324219 1106.429688 601.011719 1104.597656 600.292969 1103.707031 C 598.707031 1101.722656 596.386719 1100.472656 593.054688 1101.464844 C 592.332031 1101.6875 591.085938 1102.234375 589.777344 1103.4375 C 588.675781 1104.464844 586.792969 1106.820312 585.761719 1107.746094 C 580.058594 1112.820312 574.085938 1117.597656 568.238281 1122.503906 C 552.78125 1135.472656 537.335938 1148.414062 521.464844 1160.882812 C 518.585938 1163.148438 518.078125 1167.335938 520.335938 1170.222656 C 522.597656 1173.117188 526.769531 1173.621094 529.65625 1171.355469 C 545.636719 1158.800781 561.191406 1145.769531 576.753906 1132.703125 C 582.699219 1127.71875 588.777344 1122.855469 594.578125 1117.695312 C 595.207031 1117.132812 596.582031 1115.640625 597.574219 1114.546875 Z M 588.53125 1107.710938 C 588.484375 1108.152344 588.484375 1108.550781 588.523438 1108.921875 C 588.484375 1108.523438 588.492188 1108.117188 588.53125 1107.710938 Z M 588.550781 1107.496094 L 588.539062 1107.621094 L 588.570312 1107.398438 Z M 588.550781 1107.496094 " fill-opacity="1" fill-rule="evenodd"/><g clip-path="url(#faa20e66c2)"><path fill="#ffffff" d="M 1003.023438 1039.054688 C 1001.984375 1038.765625 1000.867188 1038.726562 999.75 1038.980469 C 995.996094 1039.851562 995.140625 1042.53125 994.8125 1043.765625 C 994.554688 1044.742188 993.605469 1050.269531 999.515625 1051.910156 C 1000.125 1052.082031 1004.722656 1052.742188 1011.519531 1053.746094 C 1017.875 1054.679688 1024.230469 1055.65625 1030.582031 1056.605469 C 1049.671875 1059.46875 1068.820312 1062.066406 1088.035156 1063.992188 C 1091.679688 1064.359375 1094.929688 1061.6875 1095.296875 1058.03125 C 1095.660156 1054.378906 1092.996094 1051.113281 1089.351562 1050.753906 C 1070.355469 1048.847656 1051.421875 1046.273438 1032.542969 1043.445312 C 1026.175781 1042.496094 1019.8125 1041.515625 1013.445312 1040.578125 C 1008.613281 1039.863281 1004.082031 1039.210938 1003.023438 1039.054688 Z M 1007.027344 1048.722656 C 1006.144531 1050.300781 1004.628906 1051.511719 1002.734375 1051.949219 C 1005.359375 1051.34375 1006.476562 1049.777344 1007.027344 1048.722656 Z M 1007.484375 1043.203125 C 1008.027344 1044.589844 1008.027344 1045.941406 1007.640625 1047.230469 C 1007.929688 1046.195312 1007.96875 1045.082031 1007.710938 1043.96875 C 1007.648438 1043.707031 1007.574219 1043.453125 1007.484375 1043.203125 Z M 1007.484375 1043.203125 " fill-opacity="1" fill-rule="evenodd"/></g><path fill="#ffffff" d="M 997.027344 1094.574219 C 1022.054688 1109.472656 1044.664062 1128.101562 1070.675781 1141.585938 C 1073.925781 1143.269531 1077.929688 1141.992188 1079.617188 1138.734375 C 1081.300781 1135.472656 1080.027344 1131.453125 1076.769531 1129.761719 C 1050.976562 1116.394531 1028.585938 1097.878906 1003.769531 1083.109375 L 1003.316406 1082.859375 C 1002.453125 1082.0625 1001.371094 1081.484375 1000.144531 1081.234375 C 996.550781 1080.503906 993.042969 1082.832031 992.320312 1086.433594 C 992.03125 1087.84375 992.089844 1089.589844 993.242188 1091.410156 C 993.574219 1091.933594 994.117188 1092.621094 994.9375 1093.269531 C 995.449219 1093.667969 996.605469 1094.332031 997.027344 1094.574219 Z M 997.027344 1094.574219 " fill-opacity="1" fill-rule="evenodd"/><path fill="#ffffff" d="M 677.472656 881.097656 C 666.429688 879.253906 650.703125 885.722656 640.722656 889.421875 C 557.953125 920.125 628.988281 1020.230469 689.007812 1019.070312 C 767.433594 1017.550781 756.417969 865.269531 677.472656 881.097656 Z M 677.472656 881.097656 " fill-opacity="1" fill-rule="evenodd"/><path fill="#000000" d="M 694.355469 897.921875 C 685.5 893.980469 670.964844 895.585938 661.824219 896.28125 C 586.027344 902.074219 624.3125 997.46875 674.808594 1010.019531 C 740.796875 1026.414062 763.804688 903.078125 694.355469 897.921875 Z M 694.355469 897.921875 " fill-opacity="1" fill-rule="evenodd"/><path fill="#ffffff" d="M 863.035156 877.117188 C 768.21875 875.886719 804.285156 1018.109375 882.433594 1015.3125 C 960.003906 1012.53125 931.6875 875.867188 863.035156 877.117188 Z M 863.035156 877.117188 " fill-opacity="1" fill-rule="evenodd"/><path fill="#000000" d="M 865.894531 890.390625 C 783.714844 889.378906 814.976562 1006.226562 882.707031 1003.929688 C 949.933594 1001.644531 925.394531 889.363281 865.894531 890.390625 Z M 865.894531 890.390625 " fill-opacity="1" fill-rule="evenodd"/></g></g></svg>