<svg xmlns="http://www.w3.org/2000/svg" viewBox="0 0 1000 1000"><g fill="#fff" stroke-width="0"><path d="M0 419v419h145.5c144.5 0 145.5 0 145.5-2 0-1.1-.3-2-.8-2-.4 0-.8-1.9-.8-4.2 0-2.4-.4-8.5-.9-13.6-.6-7.6-1.1-9.2-2.3-8.7-1.1.4-1.2.2-.4-.7.5-.7 1-4.7 1-8.9v-7.6l-4.6-2.3c-2.6-1.3-5.1-2.3-5.5-2.2-.5.2-.6-.2-.3-.7.4-.5-.7-1.9-2.3-3-5.4-3.9-6.8-8.8-7.6-26.7-.5-10.8-.3-16.9.4-18.2.6-1 .8-2.2.5-2.4-.3-.3-.7-5.4-.9-11.3-.3-6.6-.9-11.3-1.7-12.3-1-1.2-1-1.4 0-.8 1.2.7 1.7-.6.6-1.7-.4-.4-.5-12-.4-25.9.8-65.7.9-104.9.2-104.5-.4.3-.8-3.6-.9-8.5s-.6-9.5-1.1-10.1c-.5-.7-1-6.1-1.1-12.2-.2-6-.6-11.2-.9-11.5-1-.7-.9-72 .1-72 .5 0 .8-3.7.7-8.3-.1-4.5-.1-8.4 0-8.7 1-3.3.9-5-.2-4.4-.8.5-.8.1.1-1 1.2-1.4 1.2-1.9.2-2.6-1.1-.6-1.1-.8 0-1.2 1.2-.4 1.2-.8 0-2.2-1.2-1.5-1.2-1.7 0-1.4 1.1.2 1.5-2.3 2.1-13.2.9-18.7 1-55.6.2-64.6-.6-6.3-.5-7.4.8-6.9 1.5.6 17.3-6.3 22-9.6 1.8-1.4 2.8-3.2 3.3-6.2 1.7-10.8 6.4-24.2 14.2-40.1 2.9-6.1 5.3-11.5 5.3-12.2 0-1.6 2.8-7 3.5-6.7.3.2.5.1.5-.2-.1-.3.6-1.3 1.5-2.1.8-.9 1.6-2.2 1.6-3 .3-3.1.4-3.5 1.7-4.3.7-.4 1.4-1.7 1.5-2.9 0-1.1.5-1.8 1.1-1.5.5.4.7-.1.3-1.1-.4-.9-.3-1.5.2-1.1 1.2.7 3.5-6.1 2.5-7.6-.4-.7-.3-.9.4-.5 1.4.8 3.2-1.5 14-17.9 1.4-2.2 4.7-5.7 7.2-7.8 4.2-3.5 4.9-3.8 10.5-3.6 3.3.1 6.6.6 7.3 1.2.6.5 1.2.7 1.2.4s1.5 0 3.4.8c1.8.8 3.7 1.1 4.1.7.5-.4.5-.1.1.5-.4.7-.3 1.3.2 1.3s2.2 1.9 3.8 4.2c1.5 2.4 3.6 5.1 4.6 6.1s1.8 2.4 1.8 3.2 1.8 5.3 4 10.1c2.2 4.7 4.2 10.2 4.6 12.2s1.2 4.3 1.8 5.1c.8 1.1.8 1.3-.1.7-.9-.5-1.1-.2-.7.8.3.8 1.1 1.4 1.7 1.2.7-.1.9-.1.5.1-1.6.9-.7 3.1 2.6 6.1 2.6 2.3 3.6 2.8 4.5 1.9s1.1-.8.6.4c-.8 2.1 2.5 3.5 3.7 1.7.4-.7.8-1 .8-.7s5.5-2.3 12.3-5.8c16.4-8.5 25.6-12.6 27.3-11.9 1.1.4 1.4 3 1.4 11.5 0 6 .4 11.2.9 11.5 1.6 1 11.1-4.6 14-8.3 2.4-3 2.8-4 1.8-5-.9-1-.8-1.1.5-.6 1.9.7 3.8-2.1 3-4.4-.2-.8 0-1.1.6-.7.5.3 1.2-.1 1.6-.9.3-.8.1-1.7-.4-2-.6-.4-1-1.2-1-1.8 0-.8.3-.7.9.2.7 1.1 1.1.9 2-.8.7-1.1.9-2.1.5-2.1-.3 0-.1-.7.6-1.5s1-2.2.6-3c-.3-.9-.2-1.4.3-1.1 1 .7 4.2-10.5 3.6-13.2-.2-1.5 0-1.9 1.1-1.5.9.3 1.4-.1 1.4-1.1s1.1-3.4 2.5-5.4 2.5-4.2 2.5-4.9.7-1.3 1.5-1.3 1.5-.4 1.5-.9c0-2.7 11.8-4.3 15.9-2.2 1.4.8 2.1.8 2.4-.2.4-.9.6-.9.6.1.1.7 1.7 2.9 3.7 4.8 3.8 3.5 5.1 4.3 3.8 2.2-.4-.7-.3-.8.5-.4.6.4.9 1.1.6 1.6s-.1 1.9.6 3.1c.8 1.5 1.3 1.8 1.9 1 .5-.9.9-.8 1.3.4.4.9.3 1.3-.3 1-1.4-.9-1.3-.1.7 4 .9 1.9 2.1 3.5 2.5 3.5.5 0 .7.3.4.8-.2.4.3 2.3 1.2 4.2.8 1.9 1.6 3.7 1.7 4 2.1 6.8 3 9 3.7 9 .5 0 .7.4.4.8-.7 1.1 3.8 13.4 4.6 12.6.4-.3.4.4.1 1.7-.4 1.5-.3 2 .5 1.5s1-.2.6.8c-.7 1.8 3.4 8.9 4.7 8.1.5-.4.6.1.3 1-.7 1.8 1.5 7.7 2.6 7 .4-.3.8.1.7.8-.1 3.4.4 4.8 1.5 4.1.6-.4.8-.3.5.3-.9 1.5.9 6.8 2.2 6.5.7-.1 1 .2.7.7-.7 1.1-.1 3.6 3.8 18.1 1.4 5.2 2.9 13 3.3 17.2l.6 7.8h19.3c14.5 0 19.3-.3 19.7-1.3.3-.9 1-.7 2.5.6 1.6 1.5 1.9 2.4 1.2 5-2.4 8.9-4 33.1-3 46.2.5 6 .9 12.3.9 13.8.1 1.6.5 2.6.9 2.3.5-.3.6.9.4 2.6-.3 1.7-.1 2.8.4 2.5s.9 5.3 1 12.6c.1 12.9.1 13 2.8 15.4 1.5 1.3 3.3 2 3.9 1.7.7-.4.9-.4.5.1-.4.4-.3 1.4.3 2.2 1 1.1 1.5 1.1 2.7.1 1.1-.9 1.4-1 .9-.1-.8 1.3 12.1 15.5 13.4 14.7.4-.2 1.1.1 1.5.7.4.8.3.9-.4.5s-1.2-.3-1.2.3c0 .5.3 1.1.8 1.3.4.1 2.4 2.9 4.6 6 2.1 3.1 4.5 5.9 5.3 6.2s1.2 1 .9 1.4c-.7 1.2 2.9 6.4 3.8 5.5.4-.5.7-.3.6.2-.5 2.3.1 3.7 1.3 3.2.8-.3 1.4.1 1.4.9 0 .7-.5 1.1-1.1.8s-.4 0 .4.8c.8.7 1.6 2 1.8 2.8s.7 1.7 1.1 2 1.3 2 2 3.7c.8 1.8 1.7 3.3 2.2 3.3s.9.7.9 1.6.5 1.2 1.2.8c.6-.4.8-.3.5.3-1 1.6 2.2 8.5 3.5 7.7.6-.4.8-.3.4.4-.8 1.3 6.7 16.5 7.8 15.5.4-.4.4 0 .1.8-.3.9.2 2.4 1.2 3.5s1.5 1.5 1.1 1c-.5-.6-.8-1.4-.8-2 0-.5.6-.1 1.4 1 1 1.3 1.1 2.3.4 3.1-.6.8-.7 1.3-.1 1.3.5 0 1 .6 1 1.4 0 2.5 17.8 38.4 18.7 37.9.5-.4.6-.1.2.5-.3.6-.2 1.3.4 1.7s.8 1 .5 1.5c-.9 1.4.7 4.1 2 3.6.9-.3 1.2.4 1 2.2-.2 2.2 2.8 10.5 4.5 12.2.3.3.6 1.2.8 2 .4 1.8 4.9 14.5 6.4 18 .7 1.4 1.1 2.8 1 3.3-.1.4 1.1 4.8 2.8 9.8 1.6 5.1 3 9.8 3 10.5 0 .8.4 1.4 1 1.4.5 0 .6.7.3 1.7-.4.9-.2 1.4.3 1.1s1 1.2 1.1 3.4c0 2.3.5 4.3 1 4.7.4.3.9 1.9 1.1 3.6.2 1.6.7 3.1 1.2 3.3.4.2.6 1.1.3 2-.2 1 .1 3.8.7 6.2 1.8 7.5 1.9 8.3 2.6 12.4.3 2.2 1.3 4.6 2.2 5.4.9.7 1.1 1.1.5.7-.7-.3-1.3-.1-1.3.4 0 .6.5 1.1 1.1 1.1.5 0 .7.4.4 1-.3.5 0 2 .7 3.2.6 1.3 1.3 2.7 1.3 3.3.1 1.3 1.5 6.6 2.2 8.5.9 2.3 1.3 4.1 2 9.2.3 2.7 1 4.8 1.5 4.8s.6.5.3 1c-.4.6-.1 1.8.7 2.7 1.1 1.4 1.1 1.6-.1.9-1-.7-1.1-.3-.5 1.5.4 1.3.7 3.3.6 4.4s.9 3.1 2.1 4.5c1.2 1.3 1.4 1.9.5 1.2-1.5-1.2-1.6-.8-1.1 5.5.3 3.7.9 6.9 1.3 7.1.4.1.5 1.4.2 2.7-.2 1.4-.1 3.3.3 4.2.4 1 .7 3.3.6 5-.2 1.8.1 3.3.6 3.3.4 0 .9 6.2 1.1 13.8.2 7.5.7 13.8 1.2 14 .4.2.5 1.2.2 2.4-.3 1.3-.1 1.9.5 1.5.5-.3 1 0 1 .8s-.4 1.2-.8.9c-.4-.2-.7.5-.6 1.6s.4 2 .8 2c2 0 18.4-3.2 19.3-3.7.6-.4 1.7-.8 2.6-.9 3.6-.3 15-4.7 14.5-5.5-.4-.5.1-.6.9-.3.9.3 1.6.2 1.6-.3s.6-1 1.3-1c1.9 0 6.7-3.3 6.7-4.7 0-.7.3-.6.9.2.6 1 1.7.5 4.4-2.1 2-1.9 3.8-3.2 4.1-3 .7.7 6.6-7.1 6.6-8.7 0-1.2.2-1.2.9-.2.7 1.1.9 1.1 1.4-.2.4-.9.6-1.7.5-1.9-.1-.1 1.1-1.5 2.6-3.1 1.4-1.6 2.4-3.6 2.1-4.3-.3-.8 0-1.1.6-.8.6.4.9.1.7-.6-.1-.8.6-2.6 1.6-4.1 1-1.6 1.6-3.5 1.2-4.3-.3-.8-.1-1.5.5-1.5s.7-.5.4-1c-.3-.6-.1-1 .5-1s.8-.5.5-1-.1-1 .4-1c.6 0 1.1-.5 1.1-1.1 0-.5-.6-.7-1.2-.3-.8.5-.7.1.2-1 .8-1 1.5-2.3 1.7-3 .1-.6.9-3.7 1.7-6.9s1.7-7.7 2-10 .8-5.1 1.1-6.2c1.9-8 5.6-21.8 6.9-26 1.8-5.8 1.9-6.8.7-6-.5.3-1.3.1-1.6-.5-.4-.6-.3-1 .2-.9 1.9.3 3.3-.2 3.3-1.2 0-.5-.4-.8-.8-.5-.5.3-.9-.1-.9-.8 0-.8.6-1.2 1.4-.9.7.3 1.4-.2 1.4-1.1.2-1.7.5-3.3.9-4.1.1-.3.3-.8.4-1.3.1-.4.9-2.4 1.9-4.5s1.6-4.5 1.3-5.3c-.4-1-.2-1.2.6-.8.8.5.9.2.5-1-.4-1-.3-1.5.3-1.1.5.3 1.3-.7 1.6-2.2.4-1.5 1.4-3.8 2.2-5.1.8-1.2 1-2.2.6-2.2-.5 0-.3-.4.4-.9.8-.5 1.5-2 1.5-3.4.1-1.4.5-2.3.8-2.1.4.2.9-.5 1.2-1.7.5-1.8.3-1.8-1.1-.7-1.5 1.1-1.5 1.1-.5-.3.7-.9 1-1.9.6-2.3s0-.4.9-.1c1.7.7 3.2-2 2.1-3.7-.3-.6-.1-.8.4-.5 1.3.8 4.6-7 3.7-8.6-.4-.7-.4-.9.1-.5.4.4 1.4.1 2.1-.7 1.7-1.7 1.8-2.9.2-1.9-.7.4-.8.3-.4-.5.4-.6 1.1-.9 1.6-.6.9.6 5.3-6.1 5.3-8.1 0-.8.9-1.6 2-2 1.2-.4 1.7-1.2 1.4-2.4s0-1.7.8-1.4c1.3.5 3-1.2 3-3.1 0-.6.5-1 1-1 1.9 0 3.6-1.7 3.1-3.1-.3-.8 0-1.1.8-.8 1.4.5 3.1-1.2 3.1-3.1 0-.6.5-1 1-1 1.2 0 15.8-9.6 16.3-10.8.2-.4.7-.7 1.2-.7.4 0 3.9-1.4 7.6-3.2 3.8-1.8 7.5-3.3 8.2-3.4 3-.5 4.3-1.4 3.6-2.6-.5-.8-.1-.8 1 .1 1.5 1.3 1.9 1.3 2.7 0 .7-1.1.9-1.1.9-.1s1.6 1.3 5.8 1.2c3.1-.2 7 .3 8.5.9 1.6.6 3.4 1.1 4 1.1.7 0 2.6.9 4.3 1.9 2.4 1.5 3.5 1.7 4.4.8 1-.9 1.1-.9.5.1-.9 1.6 2.3 5.4 3.8 4.5.5-.3.7-.1.3.5-.3.5-.3 1.2.2 1.4.4.1 1.8 2.8 3.1 5.8 2.3 5.4 4.5 22.7 2.9 23.2-.3.2-.8 1-1 1.8s-.9 2.1-1.6 2.8c-.7.8-1 1.8-.7 2.3.4.5.1.9-.4.9-.6 0-1.1.7-1.1 1.6 0 .8-.4 1.2-1 .9-.5-.3-1 0-1 .7s-.9 1.9-2 2.6c-1.2.7-1.8 1.7-1.5 2.3.4.5.2.8-.3.7-1.6-.5-7.3 4.2-6.6 5.4.4.6.3.8-.4.4-1.3-.8-12.4 6.8-11.4 7.9.4.5.2.5-.5.1-1.6-.9-5.6 3.1-4.7 4.7.5.9.3.9-.7-.1-1.9-1.8-10.1 7.1-9.5 10.5.3 1.3.1 2.1-.5 1.8-.5-.4-.7-1.1-.4-1.6.4-.5.4-.9.2-.9s-1.7 1.9-3.2 4.1c-1.5 2.3-2.1 3.8-1.3 3.4.7-.4.1.4-1.5 1.9-1.5 1.5-2.7 3.6-2.7 4.6 0 1.1-.4 2-.9 2-.9 0-2.7 4-2.2 4.8.1.1-.5 1-1.4 1.8-1.2 1.2-3.8 8.4-5 13.8-.1.6-.5 1.9-1 2.9-.4 1-.5 2.1-.2 2.4.4.3.2 1.3-.3 2.2s-1.1 3.9-1.5 6.6c-.4 2.8-.9 6.3-1.1 7.9-.3 2.6-.2 2.7 1.4 1.5 1.4-1.1 1.5-1.1.5 0-.6.7-.9 2.1-.6 3 .4 1.2.3 1.3-.5.2-1.3-1.9-1.9-.5-2.6 6.5-.3 3.4-.9 7-1.3 7.9-.5 1.4-.3 1.6.8 1 1.1-.7 1.2-.6.3.6-.6.8-1 2.2-.9 3.2.2.9-.1 1.5-.6 1.1-.5-.3-.9.2-.9 1.1s-1.2 5.1-2.6 9.3-2.7 8.4-2.9 9.2-.4 1.7-.5 2-.2.8-.1 1.2c0 .5-.4.8-1 .8-.8 0-.7.5.1 1.5 1.1 1.3 1 1.4-.4.9-.9-.4-1.6-.3-1.4.2.1.5-1 2.8-2.6 5.1-1.6 2.4-2.5 4.7-2 5.4.4.8.3.9-.4.5-1.3-.8-4.6 3.9-3.8 5.3.4.5.1 1.3-.5 1.7-.8.4-.9.3-.5-.4s.4-1.2-.1-1.1c-.4 0-2.8 2.7-5.3 6-2.5 3.2-7.6 8.7-11.5 12.1-3.8 3.4-6.9 6.5-6.7 7 .1.5-.2.7-.7.4s-2.2.4-3.7 1.6c-3.6 2.8-4.4 3.9-3.6 5.3.3.5-.1.4-1-.3-1.3-1-1.7-1-2.2.3-.3.9-1 1.4-1.5 1-.6-.3-1.4.3-2 1.2-.6 1-1.1 1.5-1.1 1 0-.4-1.8.2-4 1.3-2.5 1.3-3.8 2.5-3.4 3.2s.3.8-.4.4c-.6-.4-2.8.2-4.9 1.3l-3.8 2 94.8.1h94.7V0H0zm826.1-198.5c-.1 1.5-2.4 1.2-2.9-.3-.3-.9.2-1.3 1.2-1 1 .1 1.7.7 1.7 1.3m-10.3 16.7c-.6 1.8-2.8 2.1-2.8.4 0-.9.7-1.6 1.6-1.6s1.4.5 1.2 1.2M461 277.6c0 .8-1.9 1.3-2.4.6-.3-.5.1-.9.9-.9s1.5.2 1.5.3m250 35.9c0 .8-.7 1.5-1.5 1.5s-1.5-.7-1.5-1.5.7-1.5 1.5-1.5 1.5.7 1.5 1.5m185.4 275.3c.3.5-.1.9-.9.9s-1.2-.4-.9-.9c.3-.4.7-.8.9-.8s.6.4.9.8m63 31.8c.3.8.2 1.2-.4.9s-1-1-1-1.6c0-1.4.7-1.1 1.4.7m-251.7 14.9c0 .8-.4 1.2-.9.9s-.6-1-.3-1.5c.9-1.3 1.2-1.1 1.2.6m16.1 64c-.3.3-.9-.2-1.2-1.2-.6-1.4-.5-1.5.5-.6.7.7 1 1.5.7 1.8m-449.7 85.8c-1 .9-1.1.8-.5-.6.3-1 .9-1.5 1.2-1.2s0 1.1-.7 1.8m586.2 19.1c.4 1 .1 1.3-.8.9-.8-.3-1.2-.9-.9-1.4.7-1.2 1.1-1.1 1.7.5"/><path d="M435.5 271.9c-2.2 1.4-4.5 2.6-5.1 2.7s-4.6 2-8.8 4.1c-7.4 3.9-7.5 4-5 5.1 1.4.7 7.3 1.2 13.4 1.2h10.8l.4-7.8c.2-5-.1-7.9-.7-7.9s-2.9 1.2-5 2.6m-150.3 75.6c-4.1 1.8-4 2.1.2 2.3 2.1.1 3.6-.4 4-1.3.8-2.2-.6-2.5-4.2-1m-14.3 20.7c0 6.2-.2 12-.4 12.9-.1.9-.6 13-.9 27s-.6 25.4-.7 25.4c-2 0-4.2 101.8-2.3 103.8.3.3.7 4.8.9 9.9.2 8.9.7 12.9 2.1 20.8.4 1.9.7 5.1.7 7-.1 1.9.1 3.8.3 4.2.6 1 .6 74.7 0 75.6-.3.5-.5 7.2-.5 15s-.3 14.6-.6 15.2c-.4.6-.1 1.7.5 2.5.9 1.1 1 1.5.1 1.5-.8 0-1 1.3-.7 3.7.3 2.1.7 6.6.8 10 .2 3.5.5 6.3.8 6.3s.6 5 .8 11.2c.1 6.9.7 11.7 1.5 12.7.9 1.2.9 1.3 0 .7-.7-.4-1.3-.2-1.3.3 0 .6.5 1.1 1.1 1.1.5 0 .8.4.5.9-.3.4.3 1.6 1.4 2.6s2 2.2 2 2.8c0 .5-.9-.1-2-1.4-1.8-2.2-2-2.2-1.7-.4.1 1.1.6 2.6 1.1 3.3.4.7.5 3 .1 5s-.7 8.2-.6 13.6c.1 8.9.4 10.3 2.6 13.2 1.4 1.8 3.4 3.6 4.5 3.9s2 1.2 2 2c0 1.2 1.6 2.3 5 3.2 7.5 2.2 139 2 175.5-.2 13.2-.8 27.8-2.2 32.5-3.1 6.8-1.3 16.8-1.7 49.5-2.1 45.5-.4 45.7-.4 50.2-7.1 3-4.5 3.7-11.4 3.8-35.2 0-18.9-.1-20.5-1.7-20.4-1 .1-1.6-.1-1.4-.5.5-.7-23.4-11.8-29.4-13.6-1.4-.4-5.5-2.3-9.2-4.1-6-3-20.7-9-34.3-14-2.7-1-7-2.8-9.4-4.1-2.5-1.2-4.9-1.9-5.5-1.6s-.8.3-.4-.2c.9-1-7-4.7-8.3-3.9-.5.3-.9.1-.9-.5s-4.6-2.4-10.2-4.1c-5.7-1.7-11-3.5-11.8-3.9-2.3-1.3-27.2-8.7-37-11-14.5-3.5-18.7-4.9-27.7-8.7-4.9-2-9.6-3.7-10.5-3.7-.9-.1-1.5-.3-1.2-.6.3-.4-3.5-2.8-13.7-8.7-1-.6-1.6-1.4-1.2-1.7.6-.6-1.3-1-2-.5-.1.2-2-1.6-4.1-3.9-2.1-2.4-4.3-4-4.9-3.6s-.7.1-.2-.7c.6-1 .4-1.2-.9-.7-1 .4-1.5.3-1.1-.3.9-1.4-3.4-7.2-4.7-6.4-.7.4-.8.2-.4-.4.9-1.4-3.8-8.5-4.9-7.4-.5.4-.5.2-.2-.5.4-.6-.2-3.3-1.4-6-2.6-6-3.2-15.1-1.3-20.5.7-2.2 1.1-4.5.7-5.1-.3-.6-.1-.7.5-.3.7.4 2.3-1.4 4.2-4.7 1.6-2.9 4.1-6 5.5-6.7 1.3-.7 2.2-1.6 2-2-.2-.3 1.8-1.4 4.6-2.4 2.7-1 4.9-2.2 4.9-2.8 0-.5.3-.7.8-.4.4.2 3.7-.2 7.2-1.1 10.3-2.4 30.7-.6 49.8 4.5 3.9 1.1 7.2 1.7 7.2 1.5 0-.3.7 0 1.5.7.8.6 1.9.9 2.5.5.5-.3 1-.2 1 .4s.7.8 1.5.5c.8-.4 1.5-.2 1.5.3 0 .8 5.9 3.3 9 3.9.3 0 2.3.9 4.5 1.9 2.2.9 5 1.8 6.2 1.9 1.1 0 1.9.5 1.5 1-.3.5.2.7 1.1.3 1-.3 1.7-.2 1.7.3 0 .7 5.8 3.2 8 3.5.3 0 1 .3 1.6.7s3.7 1.7 7 2.9c3.2 1.2 8.2 3.2 11 4.5 2.8 1.2 7.1 2.8 9.5 3.4 5.9 1.5 9.8 2.9 13.2 4.7 1.5.8 3.6 1.2 4.5.8.9-.3 1.3-.3.9.1-.7.8 5.3 2.9 21.8 7.8 5 1.5 9.7 3 10.5 3.3.8.4 1.7.7 2 .8s1.2.5 2 .8c9.9 4.1 22.9 6.9 21.5 4.6-.4-.5-.1-.9.4-.9.6 0 1-.3.9-.8-.1-.4.4-1.8 1.1-3.1 1.3-2.3 1.2-6.8-.5-27.4-.4-4.8-.3-7.7.4-7.7 1.2 0 1-10.4-.6-39-3.3-57.6-3.5-70.3-1.6-84 .3-1.9.8-8.2 1.1-13.9.5-8.3.3-10.2-.7-9.6-.8.5-1.1.4-.7-.2s.4-4.5 0-8.7c-.5-6.3-.9-7.6-2.1-7.1-1.1.4-1.2.2-.4-.8 1.3-1.5 1.2-26.7-.1-26.7-.5 0-.5-.5-.1-1.1s1.1-4.8 1.6-9.3c.4-4.4.9-9 1.1-10.1.2-2-.5-2-160.5-2.3L271 357zM423.7 438a755 755 0 0 1 2.8 18.5c3.3 25.1 6.7 43.3 9.7 52.2 1.7 5.1 3.4 9 3.8 8.8 1.7-1.1 9.2-43.4 10.4-58.4.6-7.7 1.7-10.1 4.6-10.1 2.8 0 4.8 4.2 6.6 13.7.9 4.8 2 10.4 2.5 12.3s.8 3.7.8 4c-.1.3.6 2.3 1.4 4.5s2.5 7.6 3.7 12c2.5 8.8 5.5 15.5 7 15.5 2.3 0 2.9-5.7 3.4-37.9.3-21.8.9-34.8 1.6-35.5s1.5-.5 2.5.5c1.3 1.2 1.5 4.3 1.4 16-.5 58.8-.5 58.1-5.1 61.3-4.6 3.3-8.5 1.3-12.3-6.3-2.3-4.7-11.5-38.4-11.5-42.4 0-.5-.4-.6-.9-.3-.4.3-1.1 2.9-1.5 5.8-1.3 9.6-6.6 38.2-8.1 43.3-.8 2.7-2.1 6-3 7.2-1.8 2.6-5.7 3-7.4.9-3.5-4.2-11.3-35.3-13.7-54.6-.3-2.5-1.6-11.5-2.9-20-1.2-8.5-2-16.1-1.7-16.8.2-.7 1.4-1.2 2.6-1 1.7.2 2.3 1.4 3.3 6.8m-94.9-.5c9.2 3.9 13.3 11.5 10.7 20.1-2.2 7.2-13.9 20.3-21.2 23.7-1.2.5-2 1.4-1.6 2s.1.7-.7.2c-.7-.4-1.5-.4-1.9.1-.3.5-3 2-5.8 3.3-5.6 2.6-5.8 3-3 10.1.5 1.4 1.3 7.4 1.7 13.5 1 14.1 1.9 18.7 3.4 17.8.6-.4.4.4-.5 1.7-4.1 6.2-6.5 1.6-8.4-16.2-.7-7.3-2.3-16.7-3.4-20.8-3-11.5-4.3-24-3.9-40l.3-14.4 3.5-.8c9.6-2.3 13.1-2.7 19.8-2.3 3.9.3 8.9 1.2 11 2m167 21.2c.5 1.7-2.6 2.9-4 1.5-.6-.6-.7-1.5-.3-2.2.9-1.4 3.7-.9 4.3.7m39.2 8.8c1.7.9 3.8 3.2 4.8 5.1 1.5 3.3 1.5 3.8-.2 8.6-1 2.8-3.5 7.9-5.7 11.4-4.7 7.7-11.2 20.5-10.6 21 .2.2 1.8-.1 3.7-.6 1.8-.5 6.5-1.2 10.4-1.6 5.8-.5 7.4-.3 8.5.9 1.9 2.4.7 3.4-4.6 4.1-2.7.3-8.3 1.1-12.5 1.8-7.1 1.1-7.9 1-9.8-.7-1.1-1-2-2.7-2-3.7 0-2.3 8.3-18.8 11.6-23.3 2.7-3.6 6.3-11.4 6.4-13.6 0-4-2.4-5.1-13.6-6.3-10.4-1-10.9-1.2-11.2-3.5l-.4-2.4 11.1.6c7 .4 12.2 1.2 14.1 2.2m-37.3 7.7c2 2.6 5.1 29.6 3.9 34.2-.7 2.9-4 3.6-5 1-.3-.9-.6-5-.7-9.2 0-4.2-.6-11.4-1.2-15.9-1.2-7.7-.8-11.3 1.2-11.3.5 0 1.3.6 1.8 1.2m-138.9 7c.5.7 1.3 2.6 1.6 4.3.4 1.6 2.4 7.7 4.5 13.4 4.4 12 5 11.9 7.1-.9 1.6-10.5 2.8-13.8 5.6-15.7 2.3-1.4 2.6-1.4 4.3.1 1 .9 2.8 4.9 4 8.9s2.7 8.3 3.3 9.7 1.2 3.1 1.4 3.8c.1.7 1 2.5 1.9 3.9 2.7 4 4.2 1.2 6-11.2 2.2-15.6 2.3-15.7 3.7-16.7 2.3-1.4 4.3-.4 4.2 2.2-.1 1.4-.9 7.9-1.9 14.5-1.7 12.2-3.5 17.1-6.7 18.1-1 .3-1.8.9-1.8 1.4 0 2.3-5.8-1.5-8.2-5.3-2.6-4.1-7.8-18.4-7.8-21.5 0-3.8-1.2.3-2.5 8.7-1.7 10.4-3.2 14-6.9 16.4-2.3 1.5-2.6 1.5-4.5-.1-1.9-1.5-6.7-13.9-10.9-28-1.4-4.6-1.4-5.5-.1-6.3 1.9-1.2 2.5-1.1 3.7.3m-18.9 2.8c1.6 1.1 3.1 1.7 3.5 1.5.3-.3.4-.2.1.1-.2.4.4 1.9 1.4 3.3 4.2 5.9 7.7 16 8.7 25.3.5 4.6.5 4.8-2 4.8-3 0-3.4-.6-4.1-5.6-1.1-9.2-1.1-9.1-6.3-8.7-2.6.3-6 .8-7.7 1.2-2.9.7-3 .8-3.3 7.9-.2 5.8-.6 7.4-2.2 8.2-1.3.7-2.1.7-2.6-.1-.9-1.5-.5-22.6.6-27.3 1.7-7.7 6.6-6.6 5.4 1.2l-.7 4.5 6.4-.7c3.5-.4 6.5-.9 6.7-1.1.9-.9-4.4-7.5-8.7-10.7-3.6-2.7-4.9-4.3-4.4-5.4.8-2 5.3-1.3 9.2 1.6m-68.3 78.4c0 1.4-.5 2.1-.9 1.7s-.5-1.5-.1-2.4c.9-2.4 1.2-2.1 1 .7M390.5 637c-.3.5-1.2 1-1.8 1-.7 0-.6-.4.3-1 1.9-1.2 2.3-1.2 1.5 0"/><path d="M305.6 442c-2.8.5-5.3.7-5.8.4-1.2-.8-.8 20.7.5 31.1 1 7.1 1.6 9 2.9 9.3 2.2.4 18-10 23.5-15.4 4.5-4.5 6.7-8.2 7.7-12.9.8-4-2.4-9.2-6.9-11-4.4-1.9-15.6-2.6-21.9-1.5m428.3 400.5c-.3.3-165.6.5-367.2.5H0v157h1000V843H868.7c-72.2.1-132-.2-132.8-.5s-1.7-.3-2 0"/></g><path fill="#d4d4d4" d="M365.7 223.1c.7.7 1.5 1 1.8.7s-.2-.9-1.2-1.2c-1.4-.6-1.5-.5-.6.5m148.6 6.4c0 .8.4 1.2.9.9s.6-1 .3-1.5c-.9-1.3-1.2-1.1-1.2.6m3.7 4.4c0 .6.4 1.3 1 1.6s.7-.1.4-.9c-.7-1.8-1.4-2.1-1.4-.7M381.2 238c.7 1 1.4 1.8 1.5 1.6.6-.6-.9-3.6-1.8-3.6-.5 0-.4.9.3 2m96.1.5c0 .8.4 1.2.9.9s.6-1 .3-1.5c-.9-1.3-1.2-1.1-1.2.6m-152.6 13.2c.3.7.6 1.3.8 1.3s.5-.6.8-1.3c.3-.8-.1-1.4-.8-1.4s-1.1.6-.8 1.4m144.6 10c.1 1.7.4 1.9 1.4 1.1 1.5-1.2 1.8-2.2.4-1.4-.5.4-1.1 0-1.4-.6-.3-.7-.4-.3-.4.9m-21.9 9.8c0 5.5.1 7.6.3 4.7s.2-7.4 0-10-.3-.2-.3 5.3m-17-3.9c-1.8 1.4-1.8 1.4.6.3 3.1-1.4 3.6-1.9 2.4-1.9-.6 0-1.9.7-3 1.6m-36.9 2.4c-.3.6.1.7.9.4 1.8-.7 2.1-1.4.7-1.4-.6 0-1.3.4-1.6 1m47.5 7.3.5 8.2.3-7.4c.2-4.1-.1-7.8-.5-8.2s-.6 2.9-.3 7.4m-10-3.2c0 .5.5.7 1 .4.6-.3 1-.8 1-1.1 0-.2-.4-.4-1-.4-.5 0-1 .5-1 1.1m27.6 4.1c.3.5 1 .6 1.5.3 1.3-.9 1.1-1.2-.6-1.2-.8 0-1.2.4-.9.9m-46.1 4.8c-.4.6-.4 1-.1 1 .2 0 1.1.3 2 .6s1.6.2 1.6-.4c0-1.4-2.8-2.3-3.5-1.2m34.5.5c0 .8.4 1.5 1 1.5.5 0 .7-.7.4-1.5-.4-.8-.8-1.5-1-1.5s-.4.7-.4 1.5m92.5 3.6c-.4.6-.5 1.2-.2 1.5.2.3.7-.2 1-1.1.7-1.7.1-2-.8-.4m10.6 31.5c0 1.1.3 1.4.6.6.3-.7.2-1.6-.1-1.9-.3-.4-.6.2-.5 1.3M287 346c-1.2.7-1 .9.8.7 1.2 0 2.2-.5 2.2-.9 0-1.1-1.2-1-3 .2m-6 3c-.9.6-1 1-.3 1 .6 0 1.5-.5 1.8-1 .8-1.2.4-1.2-1.5 0m314-.2c0 .5 1.2 1.4 2.7 2.1 2.8 1.3 2.8 1.3.9-.8-2-2.2-3.6-2.7-3.6-1.3m-331 3.1c0 1.7.2 3.1.4 3.1.8 0 1.3-5.1.5-5.6-.5-.3-.9.9-.9 2.5m327.1 14.7c0 1.1.3 1.4.6.6.3-.7.2-1.6-.1-1.9-.3-.4-.6.2-.5 1.3m5.1 1.4c0 1.4.2 1.9.5 1.2.2-.6.2-1.8 0-2.5-.3-.6-.5-.1-.5 1.3m-6.5 10c-.3 1.1-.1 2 .4 2s.9-.9.9-2-.2-2-.4-2-.6.9-.9 2M418 431.4c0 .2 1.1.6 2.5.8 1.3.3 2.2.1 1.9-.3-.5-.9-4.4-1.3-4.4-.5m-156.4 3.8c.3.5 1 .6 1.5.3 1.3-.9 1.1-1.2-.6-1.2-.8 0-1.2.4-.9.9m50.7.5c1.5.2 3.9.2 5.5 0 1.5-.2.2-.4-2.8-.4s-4.3.2-2.7.4m105.8 4.9c0 1.1.3 1.4.6.6.3-.7.2-1.6-.1-1.9-.3-.4-.6.2-.5 1.3m175 1c0 1.1.3 1.4.6.6.3-.7.2-1.6-.1-1.9-.3-.4-.6.2-.5 1.3m-286.3.1c.6.2 1.8.2 2.5 0 .6-.3.1-.5-1.3-.5s-1.9.2-1.2.5m13 0c.6.2 1.8.2 2.5 0 .6-.3.1-.5-1.3-.5s-1.9.2-1.2.5m-19 1c.7.3 1.6.2 1.9-.1.4-.3-.2-.6-1.3-.5-1.1 0-1.4.3-.6.6m123.3.9c0 1.1.3 1.4.6.6.3-.7.2-1.6-.1-1.9-.3-.4-.6.2-.5 1.3m168.1 5.4c0 1.4.2 1.9.5 1.2.2-.6.2-1.8 0-2.5-.3-.6-.5-.1-.5 1.3m-258.6.3c.3 1 .9 1.5 1.2 1.2s0-1.1-.7-1.8c-1-.9-1.1-.8-.5.6m119.4.1c0 .2 1.1.6 2.5.8 1.3.3 2.2.1 1.9-.3-.5-.9-4.4-1.3-4.4-.5m-112.9 3.2c0 1.1.3 1.4.6.6.3-.7.2-1.6-.1-1.9-.3-.4-.6.2-.5 1.3m269.5 1.3c-.3.5.2 1.5 1.2 2.2 1.5 1.2 1.6 1.2.5-.2-.7-.9-1-1.9-.6-2.2.3-.4.4-.7 0-.7-.3 0-.8.4-1.1.9M450.2 460c0 1.4.2 1.9.5 1.2.2-.6.2-1.8 0-2.5-.3-.6-.5-.1-.5 1.3m40.8-1.1c0 .6.4 1.3 1 1.6s.7-.1.4-.9c-.7-1.8-1.4-2.1-1.4-.7m3.6.8c-.6 1.4-.5 1.5.5.6.7-.7 1-1.5.7-1.8s-.9.2-1.2 1.2m-33.5 2.9c0 1.1.3 1.4.6.6.3-.7.2-1.6-.1-1.9-.3-.4-.6.2-.5 1.3m130.2 7.4c0 4.7.2 6.6.4 4.2.2-2.3.2-6.1 0-8.5-.2-2.3-.4-.4-.4 4.3m-164.1-4c0 1.4.2 1.9.5 1.2.2-.6.2-1.8 0-2.5-.3-.6-.5-.1-.5 1.3m27.8-.4c0 .8.5 1.2 1 .9.6-.3 1-1 1-1.6 0-.5-.4-.9-1-.9-.5 0-1 .7-1 1.6m67.8.1c.7.3 1.6.2 1.9-.1.4-.3-.2-.6-1.3-.5-1.1 0-1.4.3-.6.6M299.2 468c0 1.4.2 1.9.5 1.2.2-.6.2-1.8 0-2.5-.3-.6-.5-.1-.5 1.3m122.9.6c0 1.1.3 1.4.6.6.3-.7.2-1.6-.1-1.9-.3-.4-.6.2-.5 1.3m113.9-.2c0 .2.8 1 1.8 1.7 1.5 1.3 1.6 1.2.3-.4s-2.1-2.1-2.1-1.3M294.2 471c0 1.4.2 1.9.5 1.2.2-.6.2-1.8 0-2.5-.3-.6-.5-.1-.5 1.3m186 1c0 1.9.2 2.7.5 1.7.2-.9.2-2.5 0-3.5-.3-.9-.5-.1-.5 1.8m5.1.5c0 2.2.2 3 .4 1.7.2-1.2.2-3 0-4-.3-.9-.5.1-.4 2.3m36-1.8c.9.2 2.3.2 3 0 .6-.3-.1-.5-1.8-.5-1.6 0-2.2.2-1.2.5m-192.4 2c-1.3 1.6-1.2 1.7.4.4.9-.7 1.7-1.5 1.7-1.7 0-.8-.8-.3-2.1 1.3m99.2-.1c0 1.1.3 1.4.6.6.3-.7.2-1.6-.1-1.9-.3-.4-.6.2-.5 1.3m66.4 2.4c-.3.6.1.7.9.4 1.8-.7 2.1-1.4.7-1.4-.6 0-1.3.4-1.6 1m45.7 1.5c0 1.6.2 2.2.5 1.2.2-.9.2-2.3 0-3-.3-.6-.5.1-.5 1.8m-240.1.1c0 1.1.3 1.4.6.6.3-.7.2-1.6-.1-1.9-.3-.4-.6.2-.5 1.3m-5 2c0 1.1.3 1.4.6.6.3-.7.2-1.6-.1-1.9-.3-.4-.6.2-.5 1.3m158 0c0 1.1.3 1.4.6.6.3-.7.2-1.6-.1-1.9-.3-.4-.6.2-.5 1.3m6 0c0 1.1.3 1.4.6.6.3-.7.2-1.6-.1-1.9-.3-.4-.6.2-.5 1.3m-148.7 1c-1.8 1.4-1.8 1.5.4.4 1.2-.6 2.2-1.3 2.2-1.5 0-.8-.5-.6-2.6 1.1m95.2 2.7c.3 1 .9 1.5 1.2 1.2s0-1.1-.7-1.8c-1-.9-1.1-.8-.5.6M301 483c0 .5.5 1 1.1 1 .5 0 .7-.5.4-1-.3-.6-.8-1-1.1-1-.2 0-.4.4-.4 1m53.2 1c0 1.4.2 1.9.5 1.2.2-.6.2-1.8 0-2.5-.3-.6-.5-.1-.5 1.3m24.9-1.7c.2.1 1.5 1.1 2.9 2.2l2.5 2-1.9-2.3c-1.1-1.2-2.4-2.2-2.9-2.2q-.9 0-.6.3m21.5 1.4c-.6 1.4-.5 1.5.5.6.7-.7 1-1.5.7-1.8s-.9.2-1.2 1.2m51.5-.1c0 1.1.3 1.4.6.6.3-.7.2-1.6-.1-1.9-.3-.4-.6.2-.5 1.3m-27 2c0 1.1.3 1.4.6.6.3-.7.2-1.6-.1-1.9-.3-.4-.6.2-.5 1.3m-83.2 1.7c2.5 2.7 4.3 3.9 2.2 1.4-.6-.8-.7-1.8-.3-2.3s.3-.6-.2-.2-1.6.2-2.5-.4c-.9-.7-.5 0 .8 1.5m104.2 1.3c0 1.1.3 1.4.6.6.3-.7.2-1.6-.1-1.9-.3-.4-.6.2-.5 1.3m-111.1-.2c0 .2.8 1 1.8 1.7 1.5 1.3 1.6 1.2.3-.4s-2.1-2.1-2.1-1.3m116.1 1.2c0 1.1.3 1.4.6.6.3-.7.2-1.6-.1-1.9-.3-.4-.6.2-.5 1.3m44 1c0 1.1.3 1.4.6.6.3-.7.2-1.6-.1-1.9-.3-.4-.6.2-.5 1.3m97.2 1.9c0 2.2.2 3 .4 1.7.2-1.2.2-3 0-4-.3-.9-.5.1-.4 2.3M331.2 494c0 1.4.2 1.9.5 1.2.2-.6.2-1.8 0-2.5-.3-.6-.5-.1-.5 1.3m113.9.6c0 1.1.3 1.4.6.6.3-.7.2-1.6-.1-1.9-.3-.4-.6.2-.5 1.3m196.4-.7c-.3.5-.2 1.2.3 1.5s.9-.1.9-.9c0-1.7-.3-1.9-1.2-.6m-237.4 1.7c0 1.1.3 1.4.6.6.3-.7.2-1.6-.1-1.9-.3-.4-.6.2-.5 1.3m81.2 3.9c0 3.3.2 4.5.4 2.7s.2-4.5 0-6-.4 0-.4 3.3m-5 .5c0 2.5.2 3.5.4 2.2.2-1.2.2-3.2 0-4.5-.2-1.2-.4-.2-.4 2.3m-103.2-1.4c0 1.1.3 1.4.6.6.3-.7.2-1.6-.1-1.9-.3-.4-.6.2-.5 1.3m-51.9 1.4c0 1.4.2 1.9.5 1.2.2-.6.2-1.8 0-2.5-.3-.6-.5-.1-.5 1.3m171.1 4c0 3.6.2 5 .4 3.2.2-1.7.2-4.7 0-6.5-.2-1.7-.4-.3-.4 3.3m5 0c0 3.6.2 5 .4 3.2.2-1.7.2-4.7 0-6.5-.2-1.7-.4-.3-.4 3.3m-103.2-3.4c0 1.1.3 1.4.6.6.3-.7.2-1.6-.1-1.9-.3-.4-.6.2-.5 1.3m-98 1c0 1.1.3 1.4.6.6.3-.7.2-1.6-.1-1.9-.3-.4-.6.2-.5 1.3m38.7-.9c.7.3 1.6.2 1.9-.1.4-.3-.2-.6-1.3-.5-1.1 0-1.4.3-.6.6m-32.7 2.9c0 1.1.3 1.4.6.6.3-.7.2-1.6-.1-1.9-.3-.4-.6.2-.5 1.3m97 1c0 1.1.3 1.4.6.6.3-.7.2-1.6-.1-1.9-.3-.4-.6.2-.5 1.3m-62.3 1.1c.7.3 1.6.2 1.9-.1.4-.3-.2-.6-1.3-.5-1.1 0-1.4.3-.6.6m56.3.9c0 1.1.3 1.4.6.6.3-.7.2-1.6-.1-1.9-.3-.4-.6.2-.5 1.3m-95.8 3.4c0 2.5.2 3.5.4 2.2.2-1.2.2-3.2 0-4.5-.2-1.2-.4-.2-.4 2.3m31.5-3.3c.7.3 1.6.2 1.9-.1.4-.3-.2-.6-1.3-.5-1.1 0-1.4.3-.6.6m69.3 2.9c0 1.1.3 1.4.6.6.3-.7.2-1.6-.1-1.9-.3-.4-.6.2-.5 1.3m40 1c0 1.1.3 1.4.6.6.3-.7.2-1.6-.1-1.9-.3-.4-.6.2-.5 1.3m-46.6.4c-.4.6-1.1.7-1.7.4-.7-.4-.8-.2-.4.5.6.9 1.1.9 2.2 0 1.4-1.1 1.8-1.9 1-1.9-.3 0-.8.5-1.1 1m80.5.4c.7.7 1.3.7 2 0 .6-.6.3-1-1-1s-1.6.4-1 1m60.8.3c.6.2 1.8.2 2.5 0 .6-.3.1-.5-1.3-.5s-1.9.2-1.2.5M347.7 517c.3 1.1.9 2.2 1.3 2.5.5.3.6-.4.3-1.5s-.9-2.2-1.3-2.5c-.5-.3-.6.4-.3 1.5m190.1-.3c.6.2 1.8.2 2.5 0 .6-.3.1-.5-1.3-.5s-1.9.2-1.2.5m-145.8.7c0 .2.9.6 2 .9s2 .1 2-.4-.9-.9-2-.9-2 .2-2 .4m-84.9 2.2c0 1.1.3 1.4.6.6.3-.7.2-1.6-.1-1.9-.3-.4-.6.2-.5 1.3m213.7-.9c.7.3 1.6.2 1.9-.1.4-.3-.2-.6-1.3-.5-1.1 0-1.4.3-.6.6m4 0c.7.3 1.6.2 1.9-.1.4-.3-.2-.6-1.3-.5-1.1 0-1.4.3-.6.6m68.4 2.8c0 1.6.2 2.2.5 1.2.2-.9.2-2.3 0-3-.3-.6-.5.1-.5 1.8m-158.2.9c0 .2.8 1 1.8 1.7 1.5 1.3 1.6 1.2.3-.4s-2.1-2.1-2.1-1.3m6.9 1.3c-1.3 1.6-1.2 1.7.4.4.9-.7 1.7-1.5 1.7-1.7 0-.8-.8-.3-2.1 1.3m-132.4 5.4c-.4.6-.5 1.2-.2 1.5.2.3.7-.2 1-1.1.7-1.7.1-2-.8-.4m284.7 9.4c0 1.6.2 2.2.5 1.2.2-.9.2-2.3 0-3-.3-.6-.5.1-.5 1.8m-327.6-.2c.3 1 .9 1.5 1.2 1.2s0-1.1-.7-1.8c-1-.9-1.1-.8-.5.6m398.8.7c.1 1.4.6 2.4.9 2.2 1.1-.4 1.1-.6-.1-2.7-1.1-1.9-1.2-1.8-.8.5m-70.2 13c0 1.4.2 1.9.5 1.2.2-.6.2-1.8 0-2.5-.3-.6-.5-.1-.5 1.3m-188.4 1.7c.7.3 1.6.2 1.9-.1.4-.3-.2-.6-1.3-.5-1.1 0-1.4.3-.6.6m10 1c.7.3 1.6.2 1.9-.1.4-.3-.2-.6-1.3-.5-1.1 0-1.4.3-.6.6m12 2c.7.3 1.6.2 1.9-.1.4-.3-.2-.6-1.3-.5-1.1 0-1.4.3-.6.6M447 561c0 .5.5 1 1.1 1 .5 0 .7-.5.4-1-.3-.6-.8-1-1.1-1-.2 0-.4.4-.4 1m-176.4 1.7c-.4.9-.3 2 .1 2.4s.9-.3.9-1.7c.2-2.8-.1-3.1-1-.7m179.9-.7c-.3.5-.1 1 .4 1 .6 0 1.1-.5 1.1-1 0-.6-.2-1-.4-1-.3 0-.8.4-1.1 1m3 1c.3.5.8 1 1.1 1 .2 0 .4-.5.4-1 0-.6-.5-1-1.1-1-.5 0-.7.4-.4 1m141.6 3.6c0 1.1.3 1.4.6.6.3-.7.2-1.6-.1-1.9-.3-.4-.6.2-.5 1.3m-.7 11.1c1.7 20.6 1.8 25.1.5 27.4-.7 1.3-1.2 2.7-1.1 3.1.1.5-.3.8-.9.8-.5 0-.7.5-.3 1.1.4.8 0 .9-1.5.4-1.2-.4-2.1-.2-2.1.4 0 1.8 3.5 1.2 5.8-1 2.2-2 2.2-2.7 2.1-19.6-.1-18-.3-20.3-2.1-20.3-.7 0-.8 2.8-.4 7.7m319.9 4.8c0 .8.4 1.2.9.9s.6-1 .3-1.5c-.9-1.3-1.2-1.1-1.2.6m-19.7 6.3c-.3.5.1.9.9.9s1.2-.4.9-.9c-.3-.4-.7-.8-.9-.8s-.6.4-.9.8m-536.5 1.8c0 1.1.3 1.4.6.6.3-.7.2-1.6-.1-1.9-.3-.4-.6.2-.5 1.3m331.5-.8c-.2.4-.1 1.4.4 2.2.7 1.1.9.9.7-.8-.1-2.4-.3-2.6-1.1-1.4m-164.6.6c0 .2.9.6 2 .9s1.8.1 1.4-.4c-.5-.9-3.4-1.3-3.4-.5M862 619c-.9.6-1 1-.3 1 .6 0 1.5-.5 1.8-1 .8-1.2.4-1.2-1.5 0m96 .9c0 .6.4 1.3 1 1.6s.7-.1.4-.9c-.7-1.8-1.4-2.1-1.4-.7m-576.9 7.8c.7 1.2 1.5 2 1.8 1.7.3-.2-.3-1.2-1.3-2.2-1.7-1.6-1.8-1.6-.5.5m325.4 7.2c-.3.5-.2 1.2.3 1.5s.9-.1.9-.9c0-1.7-.3-1.9-1.2-.6M389 637c-.9.6-1 1-.3 1 .6 0 1.5-.5 1.8-1 .8-1.2.4-1.2-1.5 0m456.5 8.7c.3.3 0 1.1-.5 1.8-.7.8-.5 1.2.4 1.2 1.4 0 1.6-2.2.3-3.2-.4-.3-.5-.2-.2.2m76 11.2c-.3.5-.2 1.2.3 1.5s.9-.1.9-.9c0-1.7-.3-1.9-1.2-.6m-443.7 8.8c.7.3 1.6.2 1.9-.1.4-.3-.2-.6-1.3-.5-1.1 0-1.4.3-.6.6m433.7 3.2c-.3.5-.2 1.2.3 1.5s.9-.1.9-.9c0-1.7-.3-1.9-1.2-.6m-5.6 7.8c-1.3 1.6-1.2 1.7.4.4s2.1-2.1 1.3-2.1c-.2 0-1 .8-1.7 1.7m-72.3 1c-.6 1.4-.5 1.5.5.6.7-.7 1-1.5.7-1.8s-.9.2-1.2 1.2m-4.3 8.8c0 .8.4 1.2.9.9s.6-1 .3-1.5c-.9-1.3-1.2-1.1-1.2.6M269 688c0 .5.5 1 1.1 1 .5 0 .7-.5.4-1-.3-.6-.8-1-1.1-1-.2 0-.4.4-.4 1m558.6 2.2c.3.5 1 .6 1.5.3 1.3-.9 1.1-1.2-.6-1.2-.8 0-1.2.4-.9.9M722.5 699c.2 2.7 1 3.3 1.2 1 .1-1.1-.2-2.2-.6-2.4-.4-.3-.7.4-.6 1.4m166.9 30.2c-1 1.2-1.4 1.8-.7 1.5.6-.4 1.3-.4 1.6 0 .2.5.3.3.1-.3-.1-.6.3-1.7.9-2.3s.9-1.1.6-1.1-1.4 1-2.5 2.2m-614.8 10c1 1.4 2.1 2.4 2.3 2.2.3-.3-.6-1.5-1.8-2.7l-2.4-2.2zm-8.3 6.8c0 4.7.2 6.6.4 4.2.2-2.3.2-6.1 0-8.5-.2-2.3-.4-.4-.4 4.3m465.2-6c1 1.1 2 2 2.3 2s-.3-.9-1.3-2-2-2-2.3-2 .3.9 1.3 2m-132.3 14c0 1.4.2 1.9.5 1.2.2-.6.2-1.8 0-2.5-.3-.6-.5-.1-.5 1.3m-325.9 9c0 3 .2 4.3.4 2.7.2-1.5.2-3.9 0-5.5-.2-1.5-.4-.2-.4 2.8m526.9 14.8c-1.1 2.5-1.1 2.5.4 1 .9-.9 1.5-2.1 1.3-2.7s-1 .2-1.7 1.7m-519.5 1.3c.7.7 1.5 1 1.8.7s-.2-.9-1.2-1.2c-1.4-.6-1.5-.5-.6.5m236.6-.4c.9.2 2.5.2 3.5 0 .9-.3.1-.5-1.8-.5s-2.7.2-1.7.5m54.5 0c.7.3 1.6.2 1.9-.1.4-.3-.2-.6-1.3-.5-1.1 0-1.4.3-.6.6m-300.8.7c0 .2.8 1 1.8 1.7 1.5 1.3 1.6 1.2.3-.4s-2.1-2.1-2.1-1.3m2.6 5.3c-.6 1.4-.5 1.5.5.6.7-.7 1-1.5.7-1.8s-.9.2-1.2 1.2m191.2-1c.7.3 1.6.2 1.9-.1.4-.3-.2-.6-1.3-.5-1.1 0-1.4.3-.6.6m-174 1c.7.3 1.6.2 1.9-.1.4-.3-.2-.6-1.3-.5-1.1 0-1.4.3-.6.6m18 0c.6.2 1.8.2 2.5 0 .6-.3.1-.5-1.3-.5s-1.9.2-1.2.5m139 0c.7.3 1.6.2 1.9-.1.4-.3-.2-.6-1.3-.5-1.1 0-1.4.3-.6.6m344.3 1.6c-1.3 2.1-1.2 2.1.5.5 1-1 1.6-2 1.3-2.2-.3-.3-1.1.5-1.8 1.7m-469.3-.6c.6.2 1.8.2 2.5 0 .6-.3.1-.5-1.3-.5s-1.9.2-1.2.5m35.5 0c1.5.2 3.7.2 5 0 1.2-.2 0-.4-2.8-.4-2.7 0-3.8.2-2.2.4m21.5 0c.6.2 1.8.2 2.5 0 .6-.3.1-.5-1.3-.5s-1.9.2-1.2.5m-36 1c.7.3 1.6.2 1.9-.1.4-.3-.2-.6-1.3-.5-1.1 0-1.4.3-.6.6m440.8 4c-.6 1.4-.5 1.5.5.6.7-.7 1-1.5.7-1.8s-.9.2-1.2 1.2m81.7 3.8c0 .8.4 1.2.9.9s.6-1 .3-1.5c-.9-1.3-1.2-1.1-1.2.6m-128.8 6.4c-.3.5-.2 1.2.3 1.5s.9-.1.9-.9c0-1.7-.3-1.9-1.2-.6m121.1 3c-.3.5.1 1.1.9 1.4.9.4 1.2.1.8-.9-.6-1.6-1-1.7-1.7-.5m-25.1 21c-.3.5-.2 1.2.3 1.5s.9-.1.9-.9c0-1.7-.3-1.9-1.2-.6"/><path fill="#555" d="M278.4 350.1c-.3.5.9.9 2.5.9 1.7 0 3.1-.2 3.1-.4 0-.8-5.1-1.3-5.6-.5m7.9.6c.9.2 2.3.2 3 0 .6-.3-.1-.5-1.8-.5-1.6 0-2.2.2-1.2.5m277.5 0c4.5.2 11.9.2 16.5 0 4.5-.1.8-.3-8.3-.3s-12.8.2-8.2.3m-145.7 83.9c0 1.1.3 1.4.6.6.3-.7.2-1.6-.1-1.9-.3-.4-.6.2-.5 1.3m-107.3 2.1c.6.2 1.8.2 2.5 0 .6-.3.1-.5-1.3-.5s-1.9.2-1.2.5m7 0c.7.3 1.6.2 1.9-.1.4-.3-.2-.6-1.3-.5-1.1 0-1.4.3-.6.6m163.8 2.1c-.2.4.4.8 1.4.8s1.6-.4 1.4-.8c-.3-.4-.9-.8-1.4-.8s-1.1.4-1.4.8M299.3 440c.2.8 1.2 1.6 2.3 1.7 1.3.2 1.5.1.4-.4-.8-.3-1.9-1.1-2.3-1.7-.6-.7-.7-.6-.4.4m8.5.7c.7.3 1.6.2 1.9-.1.4-.3-.2-.6-1.3-.5-1.1 0-1.4.3-.6.6m111.3.9c0 1.1.3 1.4.6.6.3-.7.2-1.6-.1-1.9-.3-.4-.6.2-.5 1.3m180 2c0 1.1.3 1.4.6.6.3-.7.2-1.6-.1-1.9-.3-.4-.6.2-.5 1.3M298.2 446c0 1.4.2 1.9.5 1.2.2-.6.2-1.8 0-2.5-.3-.6-.5-.1-.5 1.3m-4 2c0 1.4.2 1.9.5 1.2.2-.6.2-1.8 0-2.5-.3-.6-.5-.1-.5 1.3m126 1c0 1.4.2 1.9.5 1.2.2-.6.2-1.8 0-2.5-.3-.6-.5-.1-.5 1.3m64.9 2.6c0 1.1.3 1.4.6.6.3-.7.2-1.6-.1-1.9-.3-.4-.6.2-.5 1.3M294.2 459c0 1.4.2 1.9.5 1.2.2-.6.2-1.8 0-2.5-.3-.6-.5-.1-.5 1.3m4 2c0 1.4.2 1.9.5 1.2.2-.6.2-1.8 0-2.5-.3-.6-.5-.1-.5 1.3m187 2.5c0 1.6.2 2.2.5 1.2.2-.9.2-2.3 0-3-.3-.6-.5.1-.5 1.8m-31.1 4.1c0 1.1.3 1.4.6.6.3-.7.2-1.6-.1-1.9-.3-.4-.6.2-.5 1.3m-124.2 3.1c-1.3 1.6-1.2 1.7.4.4.9-.7 1.7-1.5 1.7-1.7 0-.8-.8-.3-2.1 1.3m185.9-1c.7.3 1.6.2 1.9-.1.4-.3-.2-.6-1.3-.5-1.1 0-1.4.3-.6.6M340 486.4c0 .2.8 1 1.8 1.7 1.5 1.3 1.6 1.2.3-.4s-2.1-2.1-2.1-1.3m63.2 11.6c0 1.4.2 1.9.5 1.2.2-.6.2-1.8 0-2.5-.3-.6-.5-.1-.5 1.3m190 8.5c0 1.6.2 2.2.5 1.2.2-.9.2-2.3 0-3-.3-.6-.5.1-.5 1.8m-290.9 6c0 2.7.2 3.8.4 2.2.2-1.5.2-3.7 0-5-.2-1.2-.4 0-.4 2.8m26.9-1.5c0 1.9.2 2.7.5 1.7.2-.9.2-2.5 0-3.5-.3-.9-.5-.1-.5 1.8m-4 1c0 1.9.2 2.7.5 1.7.2-.9.2-2.5 0-3.5-.3-.9-.5-.1-.5 1.8m219.4 2.7c-.6 1.4-.5 1.5.5.6.7-.7 1-1.5.7-1.8s-.9.2-1.2 1.2m-218.9 7.4c.7.7 1.5 1 1.8.7s-.2-.9-1.2-1.2c-1.4-.6-1.5-.5-.6.5m268.4 7.5c0 1.1.3 1.4.6.6.3-.7.2-1.6-.1-1.9-.3-.4-.6.2-.5 1.3m3.1 52.9c0 1.6.2 2.2.5 1.2.2-.9.2-2.3 0-3-.3-.6-.5.1-.5 1.8m-.1 25.1c0 1.1.3 1.4.6.6.3-.7.2-1.6-.1-1.9-.3-.4-.6.2-.5 1.3m3 129c0 1.1.3 1.4.6.6.3-.7.2-1.6-.1-1.9-.3-.4-.6.2-.5 1.3m-58.8 42.1c.9.2 2.5.2 3.5 0 .9-.3.1-.5-1.8-.5s-2.7.2-1.7.5m14 0c1.5.2 3.9.2 5.5 0 1.5-.2.2-.4-2.8-.4s-4.3.2-2.7.4m-83.5 5c.7.3 1.6.2 1.9-.1.4-.3-.2-.6-1.3-.5-1.1 0-1.4.3-.6.6m-83 2c.6.2 1.8.2 2.5 0 .6-.3.1-.5-1.3-.5s-1.9.2-1.2.5m38 0c1.8.2 4.5.2 6 0s0-.4-3.3-.4-4.5.2-2.7.4m-90 1c.7.3 1.6.2 1.9-.1.4-.3-.2-.6-1.3-.5-1.1 0-1.4.3-.6.6m392 56c.7.3 1.6.2 1.9-.1.4-.3-.2-.6-1.3-.5-1.1 0-1.4.3-.6.6m15 0c1.2.2 3 .2 4 0 .9-.3-.1-.5-2.3-.4-2.2 0-3 .2-1.7.4m46 0c.7.3 1.6.2 1.9-.1.4-.3-.2-.6-1.3-.5-1.1 0-1.4.3-.6.6"/><path fill="gray" d="M588.8 350.7c.6.2 1.8.2 2.5 0 .6-.3.1-.5-1.3-.5s-1.9.2-1.2.5m-281 86c.7.3 1.6.2 1.9-.1.4-.3-.2-.6-1.3-.5-1.1 0-1.4.3-.6.6m3 4c.6.2 1.8.2 2.5 0 .6-.3.1-.5-1.3-.5s-1.9.2-1.2.5m6 0c.6.2 1.8.2 2.5 0 .6-.3.1-.5-1.3-.5s-1.9.2-1.2.5m-18.5 12.8c0 3.3.2 4.5.4 2.7s.2-4.5 0-6-.4 0-.4 3.3m182.8-.9c0 1.1.3 1.4.6.6.3-.7.2-1.6-.1-1.9-.3-.4-.6.2-.5 1.3m-142 2c0 1.1.3 1.4.6.6.3-.7.2-1.6-.1-1.9-.3-.4-.6.2-.5 1.3m112 2c0 1.1.3 1.4.6.6.3-.7.2-1.6-.1-1.9-.3-.4-.6.2-.5 1.3m-157 6c0 1.1.3 1.4.6.6.3-.7.2-1.6-.1-1.9-.3-.4-.6.2-.5 1.3m30.3 7.6-1.9 2.3 2.3-1.9c2.1-1.8 2.7-2.6 1.9-2.6-.2 0-1.2 1-2.3 2.2m2.5 3.5c-1.3 1.6-1.2 1.7.4.4s2.1-2.1 1.3-2.1c-.2 0-1 .8-1.7 1.7m167.6 2.3c-.3.6.1.7.9.4 1.8-.7 2.1-1.4.7-1.4-.6 0-1.3.4-1.6 1m-14.3 7c0 1.9.2 2.7.5 1.7.2-.9.2-2.5 0-3.5-.3-.9-.5-.1-.5 1.8m-148.7 0c-.3.6.1.7.9.4 1.8-.7 2.1-1.4.7-1.4-.6 0-1.3.4-1.6 1m-6.4 24.6c0 1.1.3 1.4.6.6.3-.7.2-1.6-.1-1.9-.3-.4-.6.2-.5 1.3m268.1 3.9c0 1.6.2 2.2.5 1.2.2-.9.2-2.3 0-3-.3-.6-.5.1-.5 1.8m-287.1 4.1c0 1.1.3 1.4.6.6.3-.7.2-1.6-.1-1.9-.3-.4-.6.2-.5 1.3m23 0c0 1.1.3 1.4.6.6.3-.7.2-1.6-.1-1.9-.3-.4-.6.2-.5 1.3m-27 3c0 1.1.3 1.4.6.6.3-.7.2-1.6-.1-1.9-.3-.4-.6.2-.5 1.3m295 68c0 1.1.3 1.4.6.6.3-.7.2-1.6-.1-1.9-.3-.4-.6.2-.5 1.3m-66.3 192.1c1.7.2 4.7.2 6.5 0 1.7-.2.3-.4-3.3-.4s-5 .2-3.2.4m33 0c.7.3 1.6.2 1.9-.1.4-.3-.2-.6-1.3-.5-1.1 0-1.4.3-.6.6m159.5 64c.9.2 2.5.2 3.5 0 .9-.3.1-.5-1.8-.5s-2.7.2-1.7.5m57.5 0c.7.3 1.6.2 1.9-.1.4-.3-.2-.6-1.3-.5-1.1 0-1.4.3-.6.6m4.5 0c.9.2 2.3.2 3 0 .6-.3-.1-.5-1.8-.5-1.6 0-2.2.2-1.2.5"/><g stroke-width="0"><path d="M344.8 226.1c-7.1 7.1-16.5 21.4-24.4 36.9-3.5 6.9-7.2 14.1-8.2 16-9.6 17.5-19.6 43.3-20.8 53.5-.4 2.9-.9 5.7-1.3 6.3-.3.5-6.1 3.7-12.8 7.1L265 352v26.7c0 26.2-.7 42.3-3.1 78.8-1.7 26.3-.7 89.5 1.7 103.5 1.6 8.9 1.8 16.9 1.9 53.5 0 23.6-.1 53.3-.3 66-.1 12.6.2 27.7.8 33.5s1.1 19.8 1 31.1c0 26.2.6 29.7 7.1 36 2.7 2.6 6.6 5.5 8.8 6.6l4 1.8.1 7c0 6.1 1.7 23.7 3.5 37.2l.6 4.3H0v5h500l500-.1V838H810.5l11.2-6.3c20.2-11.5 33.7-23.3 45.5-39.8 12.2-17 16.7-29.7 20.8-58.4 3.6-24.8 5.8-33.5 11.4-45.2 9.1-18.9 16.3-27.8 30.2-37.4 13.4-9.2 21.3-16.8 24.9-23.9 2.5-4.9 2.7-6.1 2.3-13.4-1.2-20.5-14.3-31.6-36.1-30.4-24.1 1.3-54.6 25.6-69.4 55.3-3.6 7.1-13.1 29.1-16.7 38.8-3.9 10.5-10.3 33.6-13.6 49.7-6.4 30.7-10.8 41.3-22.1 53.4-5.7 6.1-8.7 8.3-16.7 12.4-5.3 2.8-13.5 6.2-18.1 7.6-7.8 2.5-25.9 6.1-26.6 5.4-.2-.2-.8-7.5-1.5-16.3-1-14.7-3.2-34.9-6-55-1.7-12-4.7-25-7.9-34.5-1.6-4.7-3.9-13.5-5.1-19.5-5.6-28.5-16.8-64.2-28.3-90.2-11.8-26.4-38.7-80.4-46.8-93.8-13.3-22-25.6-36.7-38.5-46l-4.2-3-.5-14c-.3-7.7-1-17.4-1.6-21.5-.7-4.1-1.4-14.7-1.6-23.5-.3-13.2 0-17.7 1.6-25.9 1.6-8 1.8-10.1.7-10.7-.7-.5-10.4-.9-21.5-.9-11.2 0-20.3-.3-20.3-.8-.1-5.7-2.6-19.9-5-27.7-1.6-5.5-3-10.7-3-11.5 0-2.1-5.1-15.1-8.9-23.1-1.8-3.5-5.7-13.4-8.7-21.9-12.4-34.6-20.2-45-33.7-45-3.8 0-5.3.6-8.2 3.2-4.6 4-9.3 13.4-13.5 26.8-3.6 11.9-5.7 16.4-10.7 23.3-3.5 4.8-9.5 9-14.5 10.2l-2.8.7V262l-2.7.6c-1.6.4-10.8 4.7-20.7 9.6-19.9 10-20.1 10-26.4 3.5-3.3-3.4-4.7-6.4-6.7-14.2-1.8-6.9-8-20.7-12.7-28.1-3.2-5.1-4.8-6.7-9.6-9-3.7-1.7-7.9-2.9-11.9-3.2l-6.2-.4zm97.2 50.4v8.5l-10.7.2c-14.4.3-18.4.1-19.6-1.1-.6-.6 4.3-3.6 13.9-8.5 8.2-4.1 15.2-7.5 15.7-7.5.4-.1.7 3.7.7 8.4m-152.3 74.1c-.3.3-3.1.4-6.3.2l-5.9-.3 6-3.2 6-3.1.3 3c.2 1.6.1 3.2-.1 3.4m302.9 9.6c-2.7 20.7-2.6 35.5.5 60.4 1 8.2 1 13.6 0 28.5-1.1 15.8-1.1 23.6.3 54.9.9 20.1 2.1 41.4 2.6 47.5 1.4 16.9 2.4 51.6 1.6 56.8-.6 4.1-1 4.7-3.2 4.7-4.7 0-78.4-25-106.4-36-39.2-15.6-60.7-21.6-80.2-22.7-13.2-.7-21.2.5-29.2 4.3-4.6 2.2-10.6 6.6-10.6 7.8 0 .2-1.6 2.7-3.5 5.6-7.7 11.4-7.4 21.6 1.1 36 4.7 8 12.4 16.2 21.9 23.3 13.5 10.1 27.6 15.9 54 22.6 21 5.2 56.3 17 69.5 23.1 5.8 2.7 16.4 7.1 23.5 9.8 11.8 4.5 24.8 10.1 53 22.8 5.5 2.4 10.6 4.8 11.3 5.3 1 .6 1.3 5.7 1.3 22.3 0 28.2-1.5 34.6-9.3 39.3-3.1 1.9-5.2 2-37.8 2.2-37.5.2-46.4.6-60.3 2.8-14.7 2.3-40.7 3.5-93.2 4.3-51.4.7-60.4.7-93.1-.6l-20.1-.8-5.6-4.8c-3-2.6-6-6.1-6.6-7.8-1.3-3.7-1.4-17.8-.2-22.9.5-2 .5-4.3 0-5.1-.4-.7-1.7-13.1-2.7-27.3-1.8-22.7-1.9-29.3-1-51.5 1.3-36.1.5-91.9-1.7-103.5-2.2-12.1-3.3-82.6-1.6-106 1.4-18.8 2.7-46.3 3.7-77.3l.7-22.2h321.8z"/><path d="M419 434.6c0 1.4.4 5.5 1 9.2.5 3.7 1.6 12.1 2.6 18.7 4.6 33.8 10.8 57.9 15.6 60.9 2.7 1.6 5.6-1.9 7.8-9.3 1.7-5.6 5.6-27.8 8.8-49.6.7-4.6 1-5.4 1.5-3.5.3 1.4 2.3 9.2 4.3 17.5 4.4 17.9 8.6 31 11.2 34.5 2.3 3 6.7 3.8 9.2 1.5 3.1-2.8 4-9.5 4-30.6 0-11.2.2-21.8.5-23.4.3-1.7.2-7.1-.2-12-.6-6.9-1.1-9-2.3-9s-1.5 4.9-1.7 33c-.2 19.4-.8 34.3-1.4 36.2-1.4 4.2-4.3 4.4-6.4.3-2.1-4-9-28.4-12.1-42.7-2.6-12.1-4.4-16.3-6.9-16.3-1.7 0-2.2 1.7-3.4 13-1.2 11.2-6.8 43-8.8 50.3-.9 3.2-2.1 5.6-2.7 5.4-3.4-1.1-8.9-25.7-14.6-64.5-1.7-11.2-3.2-20.8-3.6-21.3-1.1-1.8-2.4-.9-2.4 1.7m-107.5 2c-10 1.3-11.5 1.6-11.5 2.8 0 1 3 1.2 12.3 1.2 11.3-.1 12.5.1 16.5 2.4 4.6 2.6 7.2 6.3 7.2 10.2 0 6.9-11.2 19.2-24.2 26.6-10 5.6-10.4 5.8-11.1 3-1.3-5.1-2.8-25.8-2.5-34.3.2-7.5 0-9-1.2-9-2.2 0-3 10.5-1.9 25.5 1 14.3 2.2 21.8 5 31.2 1.1 3.7 2.4 12.4 2.9 19.2.8 11.8 2 16.6 4 16.6 1.5 0 1.6-2.2.3-8.4-.7-3.4-1.3-9-1.3-12.6s-.9-9.7-2-13.5-2-7.4-2-8c0-.5 2-1.8 4.5-2.8 6.6-2.7 15.9-9.1 22.2-15 12.5-11.8 13.8-24.8 3-31.1-5.1-3-14-4.7-20.2-4m199.8 30c-.3.8-.4 1.7-.2 1.9.3.2 5 .8 10.7 1.3 17.2 1.5 17.7 3.7 5.8 24.6-9.3 16.4-10.6 20-8.4 22.3 1.5 1.5 2.7 1.5 12 .4 5.7-.7 11-1.4 11.8-1.4.8-.1 1.6-1.1 1.8-2.1.4-1.8-.1-1.9-6.9-1.3-4.1.4-9.4 1-11.8 1.3-4.2.7-4.3.6-3.6-1.7.4-1.3 2.8-6 5.3-10.4 10.1-17.8 11.3-20.4 11.4-24.7.1-5.8-3.9-9.4-11.4-10.2-15.6-1.6-15.9-1.6-16.5 0m-16.6 10.1c-.3.5-.1 3.3.4 6.3.6 3 1.3 10.4 1.7 16.5.6 8.8 1 11 2.2 11 2.7 0 2.4-13.4-.7-31.3-.5-2.9-2.5-4.3-3.6-2.5m-139.3 6.6c-.6 1.5 4.8 18.6 8.7 27.7 1.6 3.8 2.7 5 4.3 5 3.9-.1 6.5-5.7 8.6-18.5 1.7-10.9 2.5-11 5.5-.9 4.4 14.3 8 20.4 12 20.4 4.7 0 7-4.9 9-19.9.8-5.8 1.7-11.7 2.1-13 .6-1.9.3-2.2-1.1-2-2.2.5-3.1 3.5-4.5 14.7-2.2 17.3-5.1 20.3-9.9 10.2-1.6-3.3-3.7-9.2-4.6-13-1.6-6.3-4.3-11-6.5-11-2.1 0-4.2 5.4-6 15.5-1.7 9.5-3.4 14.4-4.7 13.1-.3-.2-2.7-6.9-5.4-14.8-4.8-13.9-6.3-16.6-7.5-13.5m-23.4 1.2c0 .8 1.3 2.1 2.9 2.9 4.6 2.5 11.6 11.5 9.9 13.1-.1.2-3.6.7-7.6 1.1l-7.3.7.3-4.9c.2-3.8 0-4.9-1.2-4.9-1.9 0-2.7 4.3-3.1 17.8-.4 10-.2 11.2 1.4 11.5 1.5.3 1.7-.5 1.7-6.5 0-3.7.4-7.3.8-8 .4-.6 3-1.4 5.7-1.7 2.8-.4 6.4-.9 8.1-1.2l3.2-.4 1.3 6.6c.7 3.6 1.9 7.3 2.5 8.2 4.3 5.8 1.3-13.5-3.6-23.3-4.1-8.2-15-16.2-15-11"/></g><path fill="#aaa" d="M416.8 285.2c.5.5 1.6.8 2.3.6.8-.3.3-.7-1-1.1-1.7-.4-2.1-.3-1.3.5m176 65.5c.7.3 1.6.2 1.9-.1.4-.3-.2-.6-1.3-.5-1.1 0-1.4.3-.6.6m-241.5 6c44.4.2 117 .2 161.5 0 44.4-.1 8-.2-80.8-.2s-125.2.1-80.7.2M299.5 438c-.3.5-1.2.7-2 .3-.8-.3-1.5-.3-1.5 0 0 1.3 2.8 1.3 4.5.1 1-.8 1.4-1.4.8-1.4-.7 0-1.4.4-1.8 1m-5.3 4c0 1.4.2 1.9.5 1.2.2-.6.2-1.8 0-2.5-.3-.6-.5-.1-.5 1.3m41.3 1c1 1.1 2 2 2.3 2s-.3-.9-1.3-2-2-2-2.3-2 .3.9 1.3 2m149.8 2c0 2.5.2 3.5.4 2.2.2-1.2.2-3.2 0-4.5-.2-1.2-.4-.2-.4 2.3m-61.2 1.6c0 1.1.3 1.4.6.6.3-.7.2-1.6-.1-1.9-.3-.4-.6.2-.5 1.3m168 6c0 1.1.3 1.4.6.6.3-.7.2-1.6-.1-1.9-.3-.4-.6.2-.5 1.3M425.2 454c0 1.4.2 1.9.5 1.2.2-.6.2-1.8 0-2.5-.3-.6-.5-.1-.5 1.3m56.1 4c0 2.5.2 3.5.4 2.2.2-1.2.2-3.2 0-4.5-.2-1.2-.4-.2-.4 2.3m-55.2 3.6c0 1.1.3 1.4.6.6.3-.7.2-1.6-.1-1.9-.3-.4-.6.2-.5 1.3m28.9.9c0 .8.4 1.5 1 1.5.5 0 .7-.7.4-1.5-.4-.8-.8-1.5-1-1.5s-.4.7-.4 1.5m-4.8 2c0 1.6.2 2.2.5 1.2.2-.9.2-2.3 0-3-.3-.6-.5.1-.5 1.8m-156 2c0 1.6.2 2.2.5 1.2.2-.9.2-2.3 0-3-.3-.6-.5.1-.5 1.8m224.6-.8c.6.2 1.8.2 2.5 0 .6-.3.1-.5-1.3-.5s-1.9.2-1.2.5m-69.7 6.9c0 1.1.3 1.4.6.6.3-.7.2-1.6-.1-1.9-.3-.4-.6.2-.5 1.3m-129.2 1.1c-1.3 1.6-1.2 1.7.4.4s2.1-2.1 1.3-2.1c-.2 0-1 .8-1.7 1.7m160.3 3.8c0 1.6.2 2.2.5 1.2.2-.9.2-2.3 0-3-.3-.6-.5.1-.5 1.8m54.9-.9c0 1.1.3 1.4.6.6.3-.7.2-1.6-.1-1.9-.3-.4-.6.2-.5 1.3m-239 7c0 1.1.3 1.4.6.6.3-.7.2-1.6-.1-1.9-.3-.4-.6.2-.5 1.3m296.1 3.4c0 1.4.2 1.9.5 1.2.2-.6.2-1.8 0-2.5-.3-.6-.5-.1-.5 1.3M302 489.1c0 .5.5.7 1 .4.6-.3 1-.8 1-1.1 0-.2-.4-.4-1-.4-.5 0-1 .5-1 1.1m178.3 2.9c0 2.5.2 3.5.4 2.2.2-1.2.2-3.2 0-4.5-.2-1.2-.4-.2-.4 2.3M338 490.4c0 .2.8 1 1.8 1.7 1.5 1.3 1.6 1.2.3-.4s-2.1-2.1-2.1-1.3m61.2 4.6c0 1.4.2 1.9.5 1.2.2-.6.2-1.8 0-2.5-.3-.6-.5-.1-.5 1.3m96.9 1.6c0 1.1.3 1.4.6.6.3-.7.2-1.6-.1-1.9-.3-.4-.6.2-.5 1.3m-163.3 5.1c.6.2 1.8.2 2.5 0 .6-.3.1-.5-1.3-.5s-1.9.2-1.2.5m-7.6 2.3c0 1.4.2 1.9.5 1.2.2-.6.2-1.8 0-2.5-.3-.6-.5-.1-.5 1.3m72.9-.4c0 1.1.3 1.4.6.6.3-.7.2-1.6-.1-1.9-.3-.4-.6.2-.5 1.3m-97 1c0 1.1.3 1.4.6.6.3-.7.2-1.6-.1-1.9-.3-.4-.6.2-.5 1.3m5.2 4.9c0 2.7.2 3.8.4 2.2.2-1.5.2-3.7 0-5-.2-1.2-.4 0-.4 2.8m234.5 2.2c.6.2 1.8.2 2.5 0 .6-.3.1-.5-1.3-.5s-1.9.2-1.2.5m52.4 4.8c0 1.6.2 2.2.5 1.2.2-.9.2-2.3 0-3-.3-.6-.5.1-.5 1.8m-240.1 1.1c0 1.1.3 1.4.6.6.3-.7.2-1.6-.1-1.9-.3-.4-.6.2-.5 1.3m-24 1c0 1.1.3 1.4.6.6.3-.7.2-1.6-.1-1.9-.3-.4-.6.2-.5 1.3M594.2 534c0 1.4.2 1.9.5 1.2.2-.6.2-1.8 0-2.5-.3-.6-.5-.1-.5 1.3m-190.4 19.7c.7.3 1.6.2 1.9-.1.4-.3-.2-.6-1.3-.5-1.1 0-1.4.3-.6.6M596.3 567c0 3 .2 4.3.4 2.7.2-1.5.2-3.9 0-5.5-.2-1.5-.4-.2-.4 2.8m1 29c0 4.7.2 6.6.4 4.2.2-2.3.2-6.1 0-8.5-.2-2.3-.4-.4-.4 4.3m-2.7 14.1c-2.1 2.1-1.6 3.5.9 2.6.8-.4 1.5-1.6 1.5-2.7 0-2.4 0-2.4-2.4.1M377.5 624c1 1.1 2 2 2.3 2s-.3-.9-1.3-2-2-2-2.3-2 .3.9 1.3 2m145.8 154.7c.9.2 2.5.2 3.5 0 .9-.3.1-.5-1.8-.5s-2.7.2-1.7.5m44 0c.9.2 2.3.2 3 0 .6-.3-.1-.5-1.8-.5-1.6 0-2.2.2-1.2.5m13.5 0c.7.3 1.6.2 1.9-.1.4-.3-.2-.6-1.3-.5-1.1 0-1.4.3-.6.6m-276 6c.6.2 1.8.2 2.5 0 .6-.3.1-.5-1.3-.5s-1.9.2-1.2.5m146 0c.7.3 1.6.2 1.9-.1.4-.3-.2-.6-1.3-.5-1.1 0-1.4.3-.6.6m-67 1c.6.2 1.8.2 2.5 0 .6-.3.1-.5-1.3-.5s-1.9.2-1.2.5"/></svg>