<svg xmlns="http://www.w3.org/2000/svg" xmlns:xlink="http://www.w3.org/1999/xlink" width="2000" zoomAndPan="magnify" viewBox="0 0 1500 1499.999933" height="2000" preserveAspectRatio="xMidYMid meet" version="1.0"><path fill="#000000" d="M 1262.929688 690.535156 C 1261.800781 728.75 1248.707031 765.222656 1238.496094 801.710938 C 1225.15625 846.3125 1219.417969 892.390625 1211.992188 937.535156 C 1211.957031 937.746094 1211.921875 937.941406 1211.886719 938.152344 C 1208.292969 960.742188 1204 983.527344 1197.890625 1005.730469 C 1186.347656 1070.175781 1162.761719 1129.082031 1106.738281 1174.5625 C 1103.320312 1177.308594 1099.820312 1179.945312 1096.28125 1182.515625 C 1095.578125 1198.773438 1093.640625 1214.976562 1090.15625 1230.984375 C 1074.792969 1302.46875 1046.894531 1343.269531 981.011719 1376.539062 C 961.757812 1387.21875 941.902344 1396.738281 921.558594 1404.957031 C 907.757812 1412.292969 893.78125 1419.03125 880.105469 1425.503906 C 832.074219 1444.964844 768.445312 1478.003906 717.808594 1470.632812 C 676.214844 1461.027344 669.441406 1398.164062 705.734375 1374.289062 C 710.925781 1369.695312 716.382812 1366.074219 722.050781 1363.238281 C 720.273438 1362.097656 718.492188 1360.917969 716.734375 1359.738281 C 712.933594 1360.109375 709.148438 1360.53125 705.417969 1361.058594 C 705.679688 1361.023438 705.945312 1360.988281 706.226562 1360.953125 C 706.402344 1360.933594 706.578125 1360.917969 706.738281 1360.898438 C 661.765625 1366.371094 617.023438 1377.507812 577.210938 1399.695312 C 569.148438 1404.144531 561.703125 1409.601562 555.105469 1416.023438 C 550.265625 1421.246094 547.253906 1427.863281 542.378906 1433.105469 C 516.011719 1465.125 451.027344 1473.675781 411.320312 1475.964844 C 397.664062 1479.464844 383.476562 1481.242188 369.378906 1480.308594 C 348.1875 1479.519531 334.316406 1469.507812 327.3125 1455.75 C 327.222656 1455.589844 327.152344 1455.433594 327.066406 1455.292969 C 326.785156 1454.726562 326.519531 1454.164062 326.273438 1453.601562 C 325.921875 1452.847656 325.605469 1452.089844 325.304688 1451.316406 C 325.234375 1451.121094 325.148438 1450.929688 325.078125 1450.734375 C 324.742188 1449.820312 324.425781 1448.90625 324.160156 1447.972656 C 324.074219 1447.691406 323.984375 1447.390625 323.898438 1447.109375 C 323.757812 1446.582031 323.617188 1446.035156 323.492188 1445.507812 C 319.179688 1428.144531 323.6875 1407.558594 336.429688 1391.652344 C 337.398438 1390.28125 338.382812 1388.945312 339.4375 1387.644531 C 245.328125 1353.492188 218.679688 1254.648438 259.617188 1117.558594 C 276.746094 1062.171875 301.914062 1010.972656 326.519531 959.828125 C 336.410156 940.191406 345.070312 919.90625 351.9375 898.933594 C 349.417969 895.328125 347.058594 891.6875 344.773438 888.273438 C 323.28125 854.40625 301.5625 820.710938 278.875 787.933594 C 238.023438 723.382812 180.574219 673.644531 149.261719 601.738281 C 138.980469 584.019531 130.585938 565.265625 124.953125 545.4375 C 116.925781 515.722656 102.210938 464.453125 129.371094 441.371094 C 129.652344 440.648438 129.933594 439.945312 130.269531 439.242188 C 134.195312 428.066406 140.53125 417.792969 149.3125 409.769531 C 165.753906 392.96875 190.058594 384.257812 213.203125 390.328125 C 215.015625 390.820312 217.058594 391.382812 219.066406 392.089844 C 231.542969 387.375 242.035156 391.191406 251.242188 398.863281 C 254.179688 360.191406 258.578125 323.734375 259.25 305.367188 C 266.570312 223.539062 273.683594 104.199219 389.074219 138.242188 C 421.546875 149.75 451.417969 166.886719 479.914062 186.1875 C 484.769531 185.09375 489.644531 184.074219 494.574219 183.25 C 530.691406 173.464844 567.722656 167.394531 604.738281 166.199219 C 621.195312 90.984375 652.667969 0.0234375 746.550781 53.984375 C 822.832031 104.480469 885.984375 206.578125 910.238281 307.269531 C 924.621094 284.660156 951.230469 272.660156 978.460938 284.167969 C 984.515625 283.832031 990.394531 281.386719 996.554688 281.300781 C 1019.59375 279.539062 1035.242188 294.617188 1043.410156 314.832031 C 1103.710938 342.070312 1076.429688 441.28125 1061.941406 496.035156 C 1055.976562 528.863281 1049.921875 561.695312 1045.308594 594.753906 C 1043.144531 615.164062 1038.675781 635.0625 1033.691406 654.855469 C 1032.742188 664.8125 1031.828125 674.769531 1030.980469 684.746094 C 1025.824219 738.335938 1023.253906 792.597656 1028.710938 846.136719 C 1032.621094 868.902344 1038.003906 891.492188 1045.117188 913.800781 C 1054.109375 945.347656 1062.804688 976.980469 1070.65625 1008.828125 C 1091.195312 957.292969 1095.632812 899.480469 1095.964844 844.867188 C 1100.367188 769.867188 1096.597656 675.175781 1153.660156 618.558594 C 1215.386719 566.339844 1265.515625 624.46875 1262.929688 690.570312 Z M 1262.929688 690.535156 " fill-opacity="1" fill-rule="nonzero"/><path fill="#ffffff" d="M 328.226562 271.394531 C 328.015625 271.605469 327.804688 271.832031 327.59375 272.046875 C 331.675781 239.480469 337.90625 193.222656 357.214844 200.386719 C 371.597656 204.835938 385.21875 211.011719 398.347656 218.261719 C 372.898438 232.808594 349.367188 250.828125 328.226562 271.410156 Z M 795.726562 212.347656 C 768.109375 163.015625 732.417969 118.589844 695.347656 103.441406 C 688.027344 112.996094 677.710938 139.933594 665.832031 168.960938 C 688.855469 171.882812 711.664062 176.96875 734.019531 184.671875 C 755.140625 191.800781 775.996094 201.035156 795.726562 212.347656 Z M 979.796875 329.699219 C 967.054688 332.65625 954.894531 338.460938 945.917969 348.210938 C 940.953125 353.503906 936.359375 359.839844 935.566406 367.261719 C 934.125 375.917969 940.828125 384.417969 949.453125 385.578125 C 958.238281 386.722656 966.597656 382.746094 973.917969 378.277344 C 973.953125 388.710938 978.335938 400.957031 989.480469 403.804688 C 994.019531 404.984375 999.246094 403.839844 1003.15625 401.5 C 1018.484375 392.265625 1023.785156 371.554688 1018.539062 355.070312 C 1013.453125 337.882812 998.457031 324.511719 979.816406 329.71875 Z M 968.21875 310.964844 C 967.933594 295.761719 946.109375 295.390625 945.210938 310.523438 C 945.492188 325.722656 967.320312 326.09375 968.21875 310.964844 Z M 1000.269531 314.304688 C 1000.585938 331.160156 1024.785156 331.566406 1025.773438 314.796875 C 1025.457031 297.941406 1001.253906 297.539062 1000.269531 314.304688 Z M 1030.578125 363.339844 C 1030.859375 378.628906 1052.808594 379 1053.703125 363.78125 C 1053.421875 348.492188 1031.476562 348.121094 1030.578125 363.339844 Z M 218.835938 464.539062 C 203.082031 455.988281 183.019531 457.132812 173.515625 473.972656 C 166.597656 485.074219 162.109375 497.777344 162.636719 511.007812 C 162.882812 518.253906 164.117188 525.980469 168.796875 531.800781 C 173.902344 538.945312 184.65625 540.210938 191.574219 534.953125 C 198.59375 529.550781 201.695312 520.824219 203.699219 512.5 C 211.109375 519.855469 222.867188 525.414062 232.757812 519.558594 C 236.808594 517.183594 239.695312 512.675781 240.785156 508.261719 C 245.078125 490.894531 234.183594 472.511719 218.820312 464.558594 Z M 135.496094 484.863281 C 146.460938 495.417969 162.144531 480.253906 152.078125 468.921875 C 141.109375 458.363281 125.429688 473.53125 135.496094 484.863281 Z M 195.480469 430.953125 C 183.335938 419.253906 165.929688 436.074219 177.105469 448.636719 C 189.25 460.335938 206.65625 443.515625 195.480469 430.953125 Z M 233.21875 461.882812 C 244.234375 472.492188 260.003906 457.238281 249.886719 445.839844 C 238.867188 435.230469 223.097656 450.484375 233.21875 461.882812 Z M 783.601562 972.6875 C 767.953125 990.140625 750.28125 1007.332031 734.386719 1024.925781 C 695.207031 1067.90625 662.257812 1118.808594 650.90625 1176.585938 C 641.59375 1228.453125 646.734375 1287.640625 679.949219 1330.410156 C 681.777344 1332.800781 685.472656 1333.03125 687.726562 1331.167969 C 694.574219 1325.183594 679.242188 1313.238281 677.183594 1306.128906 C 635.03125 1211.332031 683.132812 1103.746094 746.375 1030.273438 C 753.644531 1019.453125 807.730469 965.546875 798.402344 957.1875 C 793.175781 954.355469 788.070312 969.664062 783.582031 972.707031 Z M 591.117188 448.179688 C 596.027344 444.148438 599.035156 436.847656 600.144531 429.898438 C 601.992188 410.261719 590.90625 403.472656 572.632812 407.183594 C 562.460938 409.417969 554.398438 419.484375 556.054688 430.039062 C 557.777344 439.734375 567.425781 445.238281 575.378906 449.585938 C 577.949219 450.765625 580.308594 451.273438 582.492188 451.308594 C 585.570312 467.496094 589.65625 483.523438 593.507812 499.480469 C 594.847656 505.148438 603.628906 502.949219 602.222656 497.335938 C 599.210938 480.796875 595.339844 464.453125 591.097656 448.179688 Z M 835.945312 354.929688 C 839.097656 354.929688 842.863281 352.414062 845.714844 351.429688 C 850.695312 349.335938 855.710938 347.328125 860.726562 345.339844 C 867.398438 342.578125 874.332031 340.679688 880.722656 337.074219 C 884.472656 335.453125 886.496094 329.824219 882.253906 327.570312 C 877.429688 325.828125 871.164062 328.875 865.445312 331.847656 C 861.871094 333.289062 858.332031 334.800781 854.847656 336.457031 C 852.050781 337.742188 849.269531 339.078125 846.542969 340.503906 C 844.304688 341.453125 842.089844 342.402344 839.835938 343.300781 C 835.664062 344.742188 829.273438 346.308594 831.632812 352.148438 C 832.742188 354.226562 834.273438 354.949219 835.964844 354.949219 Z M 843.074219 386.195312 C 852.421875 387.566406 862.242188 388.621094 871.796875 389.0625 C 873.03125 389.0625 874.421875 389.167969 875.828125 389.167969 C 878.699219 389.167969 881.585938 388.726562 883.097656 386.140625 C 884.4375 383.609375 883.097656 380.53125 880.652344 379.28125 C 869.703125 374.671875 857.15625 376.273438 845.554688 374.742188 C 844.058594 374.742188 842.492188 374.496094 840.890625 374.230469 C 837.8125 373.738281 834.695312 373.246094 832.003906 374.707031 C 829.328125 376.414062 828.640625 380.300781 830.753906 382.730469 C 833.921875 385.964844 838.957031 385.175781 843.054688 386.195312 Z M 882.675781 431.761719 C 877.921875 427.839844 872.433594 424.988281 866.992188 422.140625 C 857.628906 417.035156 848.441406 411.6875 838.707031 407.324219 C 835.136719 405.390625 830.242188 402.664062 827.585938 407.394531 C 825.277344 411.847656 829.609375 414.609375 833.113281 416.316406 C 848.742188 424.355469 862.433594 436.144531 879.136719 442.019531 C 880.019531 442.230469 880.808594 442.335938 881.53125 442.335938 C 887.515625 442.335938 888.113281 435.441406 882.675781 431.746094 Z M 281.265625 435.335938 C 283.976562 435.230469 286.707031 435.140625 289.363281 435.441406 C 292.460938 435.6875 295.578125 435.949219 298.675781 436.214844 C 304.078125 436.777344 309.480469 437.304688 314.851562 438.132812 C 315.027344 438.132812 315.203125 438.148438 315.359375 438.148438 C 315.605469 438.148438 315.800781 438.0625 316.011719 438.027344 C 316.75 438.113281 317.507812 438.203125 318.265625 438.308594 C 318.476562 438.324219 318.703125 438.34375 318.898438 438.34375 C 324.300781 438.34375 325.199219 430.144531 319.496094 429.246094 C 303.796875 428.578125 288.414062 425.253906 272.871094 423.195312 C 263.316406 419.234375 259.214844 430.125 268.3125 434.101562 C 272.449219 435.652344 276.867188 435.492188 281.265625 435.335938 Z M 322.207031 462.851562 C 318.492188 461.199219 313.898438 462.078125 309.90625 462.234375 C 301.246094 462.710938 292.902344 465.191406 284.382812 466.597656 C 279.648438 467.601562 274.753906 468.042969 270.089844 469.324219 C 266.605469 470.679688 266.308594 475.925781 269.582031 477.683594 C 270.320312 478.125 271.09375 478.28125 271.867188 478.28125 C 273.488281 478.28125 275.140625 477.59375 276.726562 477.3125 C 280.757812 476.539062 284.824219 476.117188 288.90625 475.710938 C 299.238281 474.832031 309.65625 474.410156 319.636719 471.3125 C 324.003906 470.328125 327.046875 465.542969 322.207031 462.832031 Z M 332.433594 487.078125 C 332.222656 487.0625 332.046875 486.992188 331.835938 487.007812 C 330.621094 487.007812 329.546875 487.519531 328.667969 488.328125 C 325.9375 490.859375 323.191406 493.414062 320.449219 495.929688 C 315.660156 500.273438 310.925781 504.671875 306.261719 509.160156 C 305.238281 509.914062 304.238281 510.65625 303.234375 511.429688 C 298.832031 515.070312 287.09375 521.757812 290.386719 528.511719 C 291.527344 530.058594 292.867188 530.710938 294.308594 530.710938 C 300.398438 530.710938 308.445312 519.382812 312.105469 516.214844 C 314.164062 513.945312 316.347656 511.796875 318.582031 509.722656 C 321.273438 507.398438 323.933594 505.042969 326.554688 502.648438 C 329.917969 499.78125 333.3125 496.949219 336.675781 494.046875 C 340.671875 490.808594 336.304688 485.230469 332.46875 487.097656 Z M 514.058594 398.617188 C 518.335938 408.292969 516.574219 419.324219 516.207031 429.582031 C 512.96875 474.796875 469.492188 510.726562 424.628906 507.558594 C 369.429688 508.929688 325.550781 448.355469 353.449219 398.125 C 367.96875 370.148438 398.808594 351.761719 430.472656 354.859375 C 448.265625 355.5625 465.867188 360.382812 481.160156 369.621094 C 494.011719 376.835938 507.089844 385.421875 514.074219 398.617188 Z M 363.234375 435.597656 C 365.578125 475.710938 411.707031 504.726562 449.039062 490.824219 C 510.644531 467.796875 529.320312 392.738281 453.96875 373.492188 C 412.097656 360.894531 360.171875 388.058594 363.234375 435.597656 Z M 796.148438 345.535156 C 804.984375 366.242188 800.164062 390.574219 789.355469 409.628906 C 772.140625 438.183594 736.835938 453.472656 704.097656 450.167969 C 661.078125 447.492188 615.773438 410.015625 625.136719 363.816406 C 629.644531 336.613281 647.402344 311.140625 673.292969 300.566406 C 692.917969 291.855469 715.730469 290.660156 736.113281 297.433594 C 762.144531 303.0625 785.992188 320.535156 796.167969 345.550781 Z M 645.855469 375.988281 C 648.195312 416.105469 694.328125 445.117188 731.660156 431.21875 C 793.261719 408.1875 811.9375 333.132812 736.585938 313.882812 C 694.714844 301.285156 642.792969 328.453125 645.855469 375.988281 Z M 645.855469 375.988281 " fill-opacity="1" fill-rule="nonzero"/></svg>