<svg xmlns="http://www.w3.org/2000/svg" viewBox="0 0 1000 1000"><g fill="#fff" stroke-width="0"><path d="M0 419v419h291.2l-.7-3.7c-.9-4.9-.9-5-4.9-5.7-5.5-1-12.3-7.8-14.1-14-.9-2.9-1.3-6-1-6.8s-.1-8.2-1-16.4c-2.4-22.4-3.9-51.3-2.8-53.8.5-1.2.6-6 .2-11.1-1.2-14.5-2.3-32.8-2.2-35.5 0-1.4.4-26.4.8-55.5.6-45.6.5-54.9-.9-66.3-.9-7.4-1.8-13.7-2.1-14.2-2-3.2-2-85.6 0-108 1.5-16.5 1.7-27 .6-27-.7 0-4.6 1.6-8.8 3.5-8.8 4.1-11.3 4.4-11.3 1.5 0-2.2 7.9-6.6 16.5-9.1 3.9-1.2 4.4-1.7 4.9-4.9.3-1.9.5-5.2.5-7.2-.1-2 .2-4.1.5-4.7.4-.6 3.3-.8 7.5-.4l6.8.6.6-6.3c1.3-12.4 2.4-10.9-13.5-18.8-7.9-3.9-15.5-7.4-17-7.8-4.8-1.1-6.3-5.4-1.9-5.4 2.4 0 12.6 4.2 24.3 10.1 11.1 5.6 9.7 6.3 11.8-6 .6-3.5 2.2-10 3.4-14.5 1.3-4.4 2.6-10.8 3-14.1 1.4-12.8 7.4-30.6 15.3-45.2 1.9-3.5 3.2-7.1 2.9-7.9-.3-.7-.2-1.4.3-1.4s1.4-1.4 2.1-3c.7-1.7 1.6-3 2.1-3 1.3 0 9-16 8.3-17.2-.4-.6-.3-.8.3-.5.6.4 1.9-1.3 2.9-3.6s2.1-4.4 2.4-4.7 3.6-5.2 7.5-10.8c3.8-5.7 8.9-12.1 11.3-14.3 3.8-3.3 5.1-3.9 9.1-3.9 4.6 0 12.7 2 16.8 4.1 3.7 2 9.8 11.8 15.2 24.6 2.8 6.6 5.1 13 5.1 14 0 5.7 4.7 13 10 15.8 3.4 1.7 14.7 2.5 32 2.4 25.1-.3 23 .1 27.6-4.7 5.7-5.9 8.6-11.7 13.9-27.8 5.3-15.9 9-22.9 13.8-26.2 6.3-4.2 17-2 23.1 4.9 3.6 4 9.6 15.3 13.2 24.9 1.6 4.1 3.1 7.7 3.4 8s.5.9.5 1.5c0 2.4 5.1 15.8 9.5 25 2.6 5.5 5.3 11.8 6.1 14 .7 2.2 1.6 4.4 2 5 .4.5 1.7 4.8 2.9 9.5 4.2 15.9 6.8 24.5 9.8 32.5 1.6 4.4 4.2 13.5 5.8 20.2 2.6 11.3 3 12.2 4.9 11.7 1.1-.3 9.4-4.2 18.5-8.6s18-8.2 19.7-8.5c2.9-.5 3.3-.3 3.3 1.6 0 1.2-.8 2.4-1.7 2.8-1.9.6-36.7 16.8-39.3 18.2-.8.5-1.4 1.5-1.3 2.2.1.8.4 3.5.8 6l.6 4.7 12.4.7 12.5.7v3.2c0 5.6 1 7.4 4.4 8.1 19.1 4 23.7 5.8 20.8 8.7-.7.7-3.8.4-10.4-1.1-5.1-1.2-10.1-2.4-11.1-2.6-1.9-.4-1.9.2-.1 24.2l.6 7.3 6.1 4.9c20 16 33.7 36.5 59.2 88.6 22.6 46 34.7 74.3 38.6 89.8 1 4.2 1.3 4.6 2.8 3.5 1.4-1.1 1.4-1.1.3.3-1 1.4-.6 3.7 2.2 13.6 2.9 9.9 7 27.7 9.2 39.3.3 1.4 2.3 8 4.4 14.8 2.2 6.7 4.2 14.5 4.6 17.2.4 2.8.9 5 1.3 5 .3 0 .7 1.9.8 4.3.1 2.3 1.3 13.2 2.7 24.2 1.5 11 2.9 25.3 3.3 31.7.3 6.5.9 11.8 1.2 11.8.4 0 .6 2 .5 4.5s.2 4.5.6 4.5c3.2 0 19.4-3.5 26.2-5.6 26.9-8.4 42.3-23 50.6-47.9 1.1-3.3 3.7-13.7 5.6-23.2 7.2-34.2 17.2-63.7 30.7-90.5 11.8-23.5 32.7-43.4 55-52.5 9.1-3.7 20.4-4.3 29.6-1.5 13.7 4.3 20.1 13 21.1 28.8.4 7.2.2 8.5-2.2 13.2-3.5 6.9-5.6 9.3-14.3 16.2-3.9 3.2-6.9 6.1-6.5 6.6.4.4.2.4-.4.1-.7-.4-4.5 1.7-8.5 4.6-5.3 3.7-9 7.5-13.1 13.2-7.3 10.1-15 24.9-17.6 34-2 6.7-5 21.4-5 24.5 0 5.7-4.7 29.8-7.3 37.4-4.1 11.8-7.4 18.3-14.4 28.1-6.6 9.1-11.5 14.7-19.4 21.9-3.1 2.8-5.5 5.3-5.4 5.7.1.3-.4.6-1 .6-.7 0-3.6 1.6-6.4 3.7-2.9 2.1-9.6 6.2-15 9.2l-9.8 5.4H1000V0H0zm826-198.5c0 .8-.4 1.5-1 1.5-.5 0-1-.7-1-1.5s.5-1.5 1-1.5c.6 0 1 .7 1 1.5m-10.9 16.8c-.1 1.2-1.5.9-1.9-.4-.3-.6.1-1 .8-.8.6.3 1.1.8 1.1 1.2M711 313.5c0 .8-.7 1.5-1.5 1.5-1.6 0-2-1.2-.8-2.3 1.1-1.2 2.3-.8 2.3.8"/><path d="M483.9 363.3c-9 4.7-15.2 18.3-15.3 33.5l-.1 8.2-44-.2-43.9-.3.3-9c.4-13.5-3.8-23.7-11.8-29.1-10.6-7-22-2.5-28.8 11.4-2.5 5.1-2.8 6.8-2.8 16.2v10.5l-32.5-.2c-17.9-.2-33.1.1-33.9.6-1 .7-1.6 5.1-2.2 17.7-.4 9.3-1.3 24.5-2 33.9-1.6 23.8-.6 92.7 1.6 104.5 2.1 11.1 3 69.9 1.7 104.5-.9 21.8-.8 28.4 1 51 1 14.3 2.2 26.1 2.6 26.2.4.2.6 9.6.5 21-.2 25.4 1.8 48.2 4.8 53 1.1 1.8 3.2 4.2 4.6 5.3 2.5 1.9 4 2 37.7 2.1 19.3 0 46.1.4 59.6.8 13.5.5 28.8.4 34 0 19.1-1.7 84.2-2.8 98.2-1.7 9.8.8 18.2.8 32-.1 27-1.6 35.4-3.7 41.5-10.3 7.7-8.5 12.2-27.1 12.9-54l.5-18.6-5.8-1.7c-3.2-.9-11.6-3.9-18.7-6.6-14.5-5.6-29.2-10.8-61.1-21.4-12.1-4-26.5-9-32-11s-13.3-4.8-17.4-6.1c-37.8-12.7-54.1-21.6-62.7-34.1-4.7-6.7-5.3-8.1-6.4-14.7-1.2-7.7 3.4-23.2 8.7-29.2 5-5.7 17.1-10.7 28.3-11.9 16.8-1.7 49 6.8 88.5 23.6 15.7 6.6 49 22.6 56 26.9 4 2.4 14.6 6.8 18 7.4 1.8.3 3.4-.1 4.7-1.4 1.9-1.8 2-2.7 1.5-13.7-.3-6.5-1.3-14.7-2.2-18.3-1.7-6.8-3.4-34.9-3.8-63-.2-8.5-.8-24.3-1.5-35-2.7-44.1-3.2-63.4-2.2-74.5 2.1-22.2 2.3-26 1.1-35.9-.7-5.6-1.5-11.1-1.7-12.4l-.4-2.2h-75.7l-.5-10.3c-.8-16.1-6.6-27.4-16.2-31.8-5.5-2.5-9.4-2.4-14.7.4M500 368c7.7 5.5 11.5 16.7 11.1 32.8l-.1 4.2-19.2-.2-19.3-.3.1-9c.2-22.4 14.5-36.7 27.4-27.5m-134 .8c4.5 2.4 9.4 10.5 10.9 17.9 1.2 6.3.5 15.8-1.3 17.2-.6.4-8.4.6-17.3.3-18.5-.5-17.3.2-17.3-10.8 0-18.7 12.6-31.1 25-24.6m72.9 125.6c.6.7 2.3 9.6 3.6 19.7 3.8 27.9 7.3 46.4 10.7 56.7 3 8.8 3.2 9.2 4.4 6.9 1.3-2.4 8.8-46.1 9.9-57.9.7-7.4 2.2-9.6 5.4-7.8 2.3 1.2 2.6 2.3 9.1 29 4.7 19.1 7.2 26.7 9.9 30.1l1.8 2.3 1.3-2.3c.9-1.7 1.3-11.8 1.6-36 .3-18.5.9-34 1.4-34.5s1.6-.6 2.5-.2c1.5.5 1.6 3.8 1.1 35.8-.5 31.4-.8 35.4-2.4 38.2-2 3.5-7.1 4.7-9.9 2.4-3.6-2.9-10.9-25.2-15-45.3-1.4-7-1.9-8.2-2.1-5.5-.6 6.7-7.3 44.5-8.8 50.2-1.8 6.3-4.5 9.8-7.5 9.8-2.3 0-6.8-9-9.4-18.7-3.7-14.5-12.2-69.9-11.1-72.8.7-1.9 2-1.9 3.5-.1M349 501c19.5 10.9 6 35.1-27.8 49.6-.2.1.6 3.5 1.7 7.5 1.1 4.1 2.5 12.3 3.1 18.4.5 6 1.1 12.1 1.3 13.5.1 1.9-.3 2.6-2 2.8-2.9.4-4.1-4-4.9-17.8-.3-5.9-1.4-13.2-2.5-16.5-3-9.8-5-23.1-5.6-38.5-.6-15.6.3-20.7 3.3-19.6.9.4 2.2.2 2.8-.3 2-1.6 5-2 15.6-1.8 9.1.2 11.1.6 15 2.7m162.5 20c0 2.2-2.9 1.8-3.3-.3-.3-1.4.1-1.8 1.5-1.5 1 .2 1.8 1 1.8 1.8m31.9 6.6c5.1.5 6.5 1.1 9.4 4 3.1 3.1 3.4 3.9 2.9 7.9-.3 3-2.2 7.5-5.6 13.3-5.7 9.5-11.6 21.1-11 21.6.2.2 4.5-.3 9.4-1 10.3-1.6 13.5-1.2 13.5 1.6 0 2.2-1 2.5-12 3.6-20.5 2.1-21 .8-8-22.1 4.4-7.7 8.2-15.5 8.6-17.2.9-4.4-2.2-6.1-12.2-6.9-11-.8-12.4-1.1-12.4-3.3 0-3.2.9-3.3 17.4-1.5m-28.2 13.9c1.5 9.1 3 26.6 2.4 29-.4 1.6-1.3 2.5-2.6 2.5-1.7 0-2-.7-2-5.3 0-2.8-.7-10.2-1.5-16.2-2-14.6-2-14.7.7-14.3 1.8.2 2.4 1.2 3 4.3m-92.7 10c-.8 3.9-1.5 8.4-1.5 10.1s-.7 5.5-1.6 8.4c-2.5 8.5-7.2 11.2-11.5 6.9-2.6-2.6-7.2-12.7-9-19.7-.7-2.8-1.6-5.2-1.9-5.2s-1.2 3.3-1.8 7.4c-2.4 14-4.8 18.6-9.6 18.6-2.6 0-4.1-2.5-7.1-12-1-3-2.2-6.1-2.8-6.8-.5-.6-.7-1.2-.4-1.2s-.3-2.7-1.3-6.1c-2-6.4-1.7-9.2.8-8.7.9.2 3.2 5.4 6.3 14.3 2.7 7.7 4.9 14.2 4.9 14.5.1.3.7-.7 1.5-2.2.8-1.4 1.9-5.9 2.5-10 1.8-12.5 3.9-16.6 7.8-15.4 2.1.7 4 4.6 7.2 15.1 2.2 7.2 5.5 13.5 7 13.5 1.7 0 2.8-3.6 4.5-14.9.9-6.2 1.9-12.1 2.3-13 .9-2.4 2.5-3.2 3.9-1.8 1 1 1 2.7-.2 8.2m-60.2-.3c4 5.1 5.8 9.5 8.1 20.1 1.4 6.1 1.5 8.1.6 9.2-1.6 1.9-5 .2-5-2.5 0-1-.5-4.2-1.1-7l-1.1-5.1-3.9.5c-2.1.3-5.7.9-7.9 1.2l-4 .6v6.3c0 7.6-.6 9.5-3.1 9.5-1.7 0-1.9-.8-1.9-9.3 0-15.5 2.3-24.8 5.4-21.7.5.5.9 3 .7 5.4l-.2 4.5 5.3-.5c6.4-.7 7.8-1.1 7.8-2.2 0-1.9-6.6-9.3-9.7-10.7-3.3-1.6-4.5-4.9-2-5.8 2.2-.8 8.4 3.1 12 7.5"/><path d="m322.3 503.7-4.2.4-.6 5.3c-.7 5.1.9 32 2.1 34.9.4 1.1 1.9.7 7.2-2 7.8-4.1 11.1-6.5 17.4-12.6 14.6-14.1 10.3-25.7-9.7-26.3-4.4-.1-9.9 0-12.2.3m410.6 338.8c-.3.3-165.4.5-366.7.5H0v157h1000V843H869.1c-72 .1-132-.2-133.3-.5s-2.6-.4-2.9 0"/></g><path fill="#555" d="M371 367.4c0 .2.8 1 1.8 1.7 1.5 1.3 1.6 1.2.3-.4s-2.1-2.1-2.1-1.3m101.2 29.1c0 1.6.2 2.2.5 1.2.2-.9.2-2.3 0-3-.3-.6-.5.1-.5 1.8m59.1 8.2c8.1.2 21.3.2 29.5 0 8.1-.1 1.4-.3-14.8-.3s-22.9.2-14.7.3m-96.2 91.9c0 1.1.3 1.4.6.6.3-.7.2-1.6-.1-1.9-.3-.4-.6.2-.5 1.3m-103.3 2.1c1.2.2 3 .2 4 0 .9-.3-.1-.5-2.3-.4-2.2 0-3 .2-1.7.4m-5 4c.6.2 1.8.2 2.5 0 .6-.3.1-.5-1.3-.5s-1.9.2-1.2.5m11 0c.7.3 1.6.2 1.9-.1.4-.3-.2-.6-1.3-.5-1.1 0-1.4.3-.6.6m11.2 3.7c0 .2.8 1 1.8 1.7 1.5 1.3 1.6 1.2.3-.4s-2.1-2.1-2.1-1.3m148.1 3.2c0 1.1.3 1.4.6.6.3-.7.2-1.6-.1-1.9-.3-.4-.6.2-.5 1.3m-60 1c0 1.1.3 1.4.6.6.3-.7.2-1.6-.1-1.9-.3-.4-.6.2-.5 1.3m64 0c0 1.1.3 1.4.6.6.3-.7.2-1.6-.1-1.9-.3-.4-.6.2-.5 1.3m92 6c0 1.1.3 1.4.6.6.3-.7.2-1.6-.1-1.9-.3-.4-.6.2-.5 1.3m-155 2c0 1.1.3 1.4.6.6.3-.7.2-1.6-.1-1.9-.3-.4-.6.2-.5 1.3m29 8c0 1.1.3 1.4.6.6.3-.7.2-1.6-.1-1.9-.3-.4-.6.2-.5 1.3m71.2 5.1c.9.2 2.3.2 3 0 .6-.3-.1-.5-1.8-.5-1.6 0-2.2.2-1.2.5m-197.4 2c-1.3 1.6-1.2 1.7.4.4s2.1-2.1 1.3-2.1c-.2 0-1 .8-1.7 1.7m125.2.9c0 1.1.3 1.4.6.6.3-.7.2-1.6-.1-1.9-.3-.4-.6.2-.5 1.3m128 0c0 1.1.3 1.4.6.6.3-.7.2-1.6-.1-1.9-.3-.4-.6.2-.5 1.3m-127 16c0 1.1.3 1.4.6.6.3-.7.2-1.6-.1-1.9-.3-.4-.6.2-.5 1.3m-73 9c0 1.1.3 1.4.6.6.3-.7.2-1.6-.1-1.9-.3-.4-.6.2-.5 1.3m202.2 6.9c0 2.2.2 3 .4 1.7.2-1.2.2-3 0-4-.3-.9-.5.1-.4 2.3m-272.2 1.1c0 1.1.3 1.4.6.6.3-.7.2-1.6-.1-1.9-.3-.4-.6.2-.5 1.3m189.6 4.5c.7.7 1.5 1 1.8.7s-.2-.9-1.2-1.2c-1.4-.6-1.5-.5-.6.5m-166.5 2.4c0 1.6.2 2.2.5 1.2.2-.9.2-2.3 0-3-.3-.6-.5.1-.5 1.8m144.5-1.4c.7.7 1.5 1 1.8.7s-.2-.9-1.2-1.2c-1.4-.6-1.5-.5-.6.5m-148.5 2.4c0 1.6.2 2.2.5 1.2.2-.9.2-2.3 0-3-.3-.6-.5.1-.5 1.8m207.6-1.8c.6.2 1.8.2 2.5 0 .6-.3.1-.5-1.3-.5s-1.9.2-1.2.5m-95 250c.6.2 1.8.2 2.5 0 .6-.3.1-.5-1.3-.5s-1.9.2-1.2.5m-159 1c1.2.2 3 .2 4 0 .9-.3-.1-.5-2.3-.4-2.2 0-3 .2-1.7.4m52 0c.7.3 1.6.2 1.9-.1.4-.3-.2-.6-1.3-.5-1.1 0-1.4.3-.6.6m80 0c.6.2 1.8.2 2.5 0 .6-.3.1-.5-1.3-.5s-1.9.2-1.2.5m-48.5 1c.9.2 2.3.2 3 0 .6-.3-.1-.5-1.8-.5-1.6 0-2.2.2-1.2.5m348.5 17c.7.3 1.6.2 1.9-.1.4-.3-.2-.6-1.3-.5-1.1 0-1.4.3-.6.6m15 0c1.2.2 3 .2 4 0 .9-.3-.1-.5-2.3-.4-2.2 0-3 .2-1.7.4m46 0c.7.3 1.6.2 1.9-.1.4-.3-.2-.6-1.3-.5-1.1 0-1.4.3-.6.6"/><path fill="gray" d="M504.5 367c1 1.1 2 2 2.3 2s-.3-.9-1.3-2-2-2-2.3-2 .3.9 1.3 2m10.7 29.5c0 1.6.2 2.2.5 1.2.2-.9.2-2.3 0-3-.3-.6-.5.1-.5 1.8M467 404c-.9.6-1 1-.3 1 .6 0 1.5-.5 1.8-1 .8-1.2.4-1.2-1.5 0m24.8.7c3.4.2 9 .2 12.5 0 3.4-.2.6-.3-6.3-.3s-9.7.1-6.2.3m5.7 96.3c-.3.6.1.7.9.4 1.8-.7 2.1-1.4.7-1.4-.6 0-1.3.4-1.6 1m-165.7 1.7c1.2.2 3 .2 4 0 .9-.3-.1-.5-2.3-.4-2.2 0-3 .2-1.7.4m13.1 27-2.4 2.8 2.8-2.4c2.5-2.3 3.2-3.1 2.4-3.1-.2 0-1.4 1.2-2.8 2.7m181.6-1.6c-.4.6-.5 1.2-.2 1.5.2.3.7-.2 1-1.1.7-1.7.1-2-.8-.4m9.3-.4c.6.2 1.8.2 2.5 0 .6-.3.1-.5-1.3-.5s-1.9.2-1.2.5m-2 4c.6.2 1.8.2 2.5 0 .6-.3.1-.5-1.3-.5s-1.9.2-1.2.5m-190.6 38.8c0 1.6.2 2.2.5 1.2.2-.9.2-2.3 0-3-.3-.6-.5.1-.5 1.8m217.4 5.2c-.6 1.4-.5 1.5.5.6.7-.7 1-1.5.7-1.8s-.9.2-1.2 1.2m35.7 1.8c0 2.2.2 3 .4 1.7.2-1.2.2-3 0-4-.3-.9-.5.1-.4 2.3m1.1 23.5c0 5.2.1 7.4.3 4.7.2-2.6.2-6.8 0-9.5-.2-2.6-.3-.4-.3 4.8m-191.5 13.7c-1.3 1.6-1.2 1.7.4.4s2.1-2.1 1.3-2.1c-.2 0-1 .8-1.7 1.7m46.9 209c.7.3 1.6.2 1.9-.1.4-.3-.2-.6-1.3-.5-1.1 0-1.4.3-.6.6m-150 1c.7.3 1.6.2 1.9-.1.4-.3-.2-.6-1.3-.5-1.1 0-1.4.3-.6.6m123 0c.7.3 1.6.2 1.9-.1.4-.3-.2-.6-1.3-.5-1.1 0-1.4.3-.6.6m-39 1c1.8.2 4.5.2 6 0s0-.4-3.3-.4-4.5.2-2.7.4m336.5 17c.9.2 2.5.2 3.5 0 .9-.3.1-.5-1.8-.5s-2.7.2-1.7.5m59 0c1.5.2 3.7.2 5 0 1.2-.2 0-.4-2.8-.4-2.7 0-3.8.2-2.2.4"/><g stroke-width="0"><path d="M344.6 226.2c-6.6 6.8-16.7 22-24.6 37.3-3.4 6.6-7.2 13.8-8.5 16s-2.2 4.1-2 4.3-1.2 3.2-3 6.5c-7.6 14-14.8 35-15.8 46.2-.3 3.3-1.9 11.2-3.5 17.5-1.7 6.3-3.3 14.1-3.7 17.3s-1 5.6-1.4 5.5c-.3-.2-5.1-2.6-10.6-5.4-13.9-7.1-23.5-10.8-24.7-9.6-1.6 1.6-.2 2.8 5.9 5.2 3.2 1.3 11.1 5 17.6 8.3 11.8 5.9 11.9 6 11.3 9-.3 1.6-.6 5.6-.6 8.8v5.8l-7.2.3-7.3.3-.7 4c-.4 2.2-1 5.6-1.3 7.7-.5 3.5-.8 3.7-9.9 7.3-9.9 3.8-13.1 6-10.3 7.1.9.3 5.5-1 10.4-3 7.8-3.1 8.8-3.3 9.2-1.8.2.9-.2 10-1 20.2-.9 12-1.4 34.2-1.4 63 .1 39.2.3 45.9 2 56.5 1.8 10.6 2 17.1 2 54.5 0 23.4-.1 52.4-.3 64.5s.2 27.6.8 34.5 1.2 22.6 1.4 35 1 28.8 1.9 36.5 1.6 16.7 1.7 20c0 3.3.5 7.7 1.1 9.8 1.4 5.3 7.7 11.2 13.4 12.6 2.6.6 4.5 1.7 4.5 2.5 0 .7.3 2.8.6 4.5l.7 3.1H0v5l357.3.1c196.4.1 358.3 0 359.7-.2 2.3-.4 9.5-.4 46.5-.3H785c4.1-.1 8.6.1 10 .3s48.1.3 103.8.2l101.2-.1v-5H810.5l11.2-6.3c20.2-11.5 33.7-23.3 45.5-39.8 12.1-17 16.7-29.6 20.8-58.3 3.7-24.8 5.9-33.6 11.5-45.3 9-18.8 16.2-27.8 30.1-37.4 13.4-9.2 21.3-16.8 24.9-23.9 2.5-4.9 2.7-6.1 2.3-13.4-1.2-20.5-14.3-31.6-36.1-30.4-23.9 1.3-54.4 25.5-69.2 54.8-5.2 10.3-15.6 35.5-19.5 47-3.9 11.8-8.8 31-13.5 53-6.2 29-17.1 45.3-37.1 55.3-4.9 2.4-12.7 5.6-17.3 7.1-7.8 2.5-25.9 6.1-26.6 5.4-.2-.2-.8-7.5-1.5-16.3-1-14.5-3.2-34.7-6-54.5-1.8-12.8-4.1-23.1-7.6-34.1-1.9-5.8-4.5-16.1-5.9-23-5.7-28-16.5-62-27.8-87.4-12.2-27.6-37.9-79.2-46.2-93.1-13.6-22.4-21.9-32.7-36-44.4l-7.1-5.8-.3-11.3c-.1-6.2-.6-13.2-1-15.6-1-5.1-1.2-5.1 10.9-2.3 10.6 2.4 12.2 2.5 11.8.3-.3-1.7-9.2-4.5-18.9-5.8l-4.8-.7-.8-5.1c-1-6.1-1.6-6.4-16-6.6-10.3-.1-9.6.4-10.8-8.9l-.7-5.3 4.4-1.7c10.2-4 38.3-18.2 38.3-19.4 0-2.4-4.8-.8-22.5 7.6-9.6 4.6-18.2 8.6-19.1 8.9-1.4.4-2.2-1.8-4.9-13.1-1.8-7.5-4.7-17.8-6.6-22.7-2.9-7.9-8.9-28.2-10-33.8-.6-3.3-5.5-15.7-9.1-23.2-1.9-3.9-5.9-14-8.9-22.5-12.7-35.1-20-45-33.7-45-9 0-15.1 8.5-21.7 30-3.9 12.7-8 20.8-13.6 26.5l-4.1 4.3-11.9.7c-17.1 1.1-37.8-.1-42.4-2.5-5.8-3-9.7-8.1-11.1-14.7-1.7-7.8-11.1-28.7-15.7-34.8-3-4-4.9-5.4-9.7-7.1-3.3-1.2-8.4-2.3-11.3-2.3-5.1-.1-5.5.1-10.6 5.1m156.7 137.7c8.7 5.6 13.8 16.9 14 31.3l.2 8.8 30 .2c16.5.2 33.5.3 37.8.3h7.7l.4 3c3.1 21.5 3.2 26 1.4 43-1.3 12.4 0 59.4 2.6 97.5.8 11.3 1.8 30.6 2.1 43 .5 15.9 1.4 27.1 3.1 38 3.4 22.3 3.2 34-.7 34-4 0-15.1-4.7-32.4-13.6C545.3 638 532.2 632 507 622c-35-13.9-48.5-17.4-67.5-17.5-22.1 0-30.7 4.5-38.5 20-4.1 8.3-4.5 9.6-4.4 16.5 0 9.5 3 15.9 11.8 24.5 11.6 11.4 29.1 18.6 118.1 48.5 19.3 6.5 38.6 13.3 43 15 4.4 1.8 13 4.9 19 7l11 3.7.3 16.9c.2 13.9-.1 18.7-1.8 27.4-4.7 23.4-9.4 31.4-20.7 35.4-9.9 3.5-18 3.9-77.3 4.1-35.6.1-66.3.7-78.5 1.4-16.1 1.1-26.9 1.1-55.5.2-19.5-.7-44.9-1-56.5-.7-25.7.7-26.9.4-30.7-7.4-2.1-4.4-2.9-8-3.7-17.5-1.7-18.6-2.2-41.6-1.2-49.1.6-4 .6-7.1.1-7.4s-1.8-12.2-2.8-26.5c-1.8-22.7-1.9-29.3-1-51.5 1.3-36.1.5-91.9-1.7-103.5-2.3-12.3-3.3-81.7-1.5-106 .6-9.4 1.6-24.7 2-34 .5-9.4.9-17.1.9-17.3.1-.1 15.3-.2 33.9-.2h33.7v-10.8c0-12.1 1.9-17.9 7.8-24 4.5-4.7 7.8-6.2 13.8-6.2 13.8 0 24.2 15.9 22.5 34.2l-.6 6.8h86.7l.6-9.3c.7-11.5 2.6-18 7.5-24.5 7.1-9.7 16.4-12 25.5-6.3"/><path d="M488.6 366c-4.2 1.3-10.1 7.5-12.7 13.4-1.7 3.8-2.4 7.6-2.7 14.8l-.4 9.8H511v-6.8c0-7.5-1.7-14.7-4.8-20.8-2.2-4.4-8.4-10.4-10.7-10.4-.7 0-1.9-.2-2.7-.4-.7-.2-2.6 0-4.2.4m-135.4 3.1c-7.9 4-13.1 16.9-11.7 29l.7 5.9h33.7l.7-3.6c1.2-6.3-.2-16-3.1-21.9-4.8-10-12.4-13.4-20.3-9.4M436 496.2c0 3.8 4.8 37.4 7.5 53.2 2.8 15.6 7.5 30.7 10.6 34.1 2.4 2.5 4.7 1.3 7.1-3.6 1.6-3.2 7.6-35.2 9.9-52.3.5-3.8 1-7.1 1.2-7.3.2-.1 1.1 3.4 2.1 8 3.4 16.1 9.7 38.1 12.4 43.1 2.8 5.2 4.5 6.2 8.7 5.2 4.4-1.1 5.3-6.5 5.8-35.1.6-30.3.1-40.5-1.9-40.5-.8 0-1.4.3-1.4.7-.1.5-.3 15.9-.6 34.3-.4 26.9-.8 33.9-2 35.7-.8 1.3-1.9 2.3-2.4 2.3-2.7 0-10-22.1-14.5-44.2-2.7-13.2-4.8-18.1-7.3-17.6-2 .4-2.7 3.3-4.1 16.3-2.3 22.6-8.8 53.4-11 52.1-.4-.3-2.1-4.9-3.8-10.3-3.1-9.6-7.2-31.7-11.3-60.2-1.1-7.9-2.3-14.7-2.6-15.2-1-1.7-2.4-.9-2.4 1.3m-115 3.6c-4 1.2-3.2 3.8 1 3.2 1.9-.3 7.3-.5 12-.5 6.8.1 9.3.5 12.7 2.3 4.3 2.3 7.3 6.4 7.3 10.2 0 3.1-3.7 9.7-8.2 14.6-4.1 4.5-16.7 13.1-22.9 15.7l-3.6 1.5-1.2-8.2c-.6-4.4-1.1-14.5-1.1-22.3 0-9.3-.4-14.4-1.1-14.9-2.5-1.5-3 2.6-2.6 19.1.5 16.8 2.2 29.1 5.3 37.7.8 2.4 1.9 9.3 2.4 15.4 1 12.7 2.6 19.7 4.3 19.1.7-.2 1.1-1.5 1-2.8s-.7-7.9-1.3-14.6c-.5-6.7-1.9-15-3-18.5-2.4-7.7-2.4-7.8-.2-7.8 2.5 0 12.9-5.7 19.3-10.6 10.4-7.9 15.9-16.1 15.9-23.4 0-5.8-2.3-9.5-7.8-12.7-4.2-2.5-5.7-2.8-15.2-3-5.8-.1-11.6.1-13 .5M527.5 528c-1.3 2.1.7 2.7 9.3 3.2 17.6 1 18.5 4.4 6.7 24.2-11.5 19.3-12 23.2-2.9 23 11-.4 19.9-1.9 19.9-3.4 0-1.7-2.7-1.8-14.7-.6-6.3.7-7.8.6-7.8-.5 0-.8 3-6.6 6.6-12.9 11.1-19.3 12.3-23.4 8.3-28.3-1.1-1.5-3.7-3.1-5.7-3.6-5.9-1.4-19-2.2-19.7-1.1m-16 10c-.4.6-.2 6.2.4 12.3.7 6.2 1.3 13.4 1.4 16.2.2 3.8.6 5.1 2 5.3 1.5.3 1.7-.5 1.7-7 0-8.5-2.5-25.7-3.8-27-.6-.6-1.2-.5-1.7.2M350 545.4c0 .8 2 2.9 4.5 4.6 3.8 2.6 9.4 10.4 8.3 11.5-.2.2-3.6.7-7.6 1.2l-7.2.9.2-5c.2-3.9 0-5.1-1.2-5.1-1.9 0-2.7 4.4-3.1 17.8-.4 10-.2 11.2 1.4 11.5 1.4.3 1.7-.4 1.7-4 0-2.4.3-5.9.6-7.9l.6-3.6 8-1c9.1-1 9-1.1 10.3 7.9.8 5.6 2 7.7 3.5 6.2 2-2-2.6-20.1-6.6-26.6-3.8-6-13.4-12.1-13.4-8.4m23 .3c0 2 8.1 25.8 10 29.3 2.7 5.1 9.4-1.1 10.5-9.8 1.3-9.9 2.7-15.4 3.6-14.5.5.5 1.8 4 2.9 7.8 2.5 8.6 6.8 17.3 9.3 18.7 2.8 1.5 6.5.1 8.2-3.1.8-1.6 1.9-6.2 2.5-10.3.6-4 1.6-9.9 2.1-13.1 1.1-6.2.9-7.3-1.4-6.4-1.4.5-2.7 6.1-4.2 17.7-1.7 13.4-4.4 15.4-8.7 6.7-1.4-2.8-3.3-7.9-4.2-11.2-2.5-8.6-4.6-12.5-6.6-12.5-3 0-4 2.4-6.1 13.9-1.9 9.9-3.9 15.5-5.2 14.1-.3-.3-2.5-6.8-5-14.5-3.1-9.3-5.1-14.1-6.1-14.3s-1.6.3-1.6 1.5"/></g><path fill="#d4d4d4" d="M410.8 281.7c.6.2 1.8.2 2.5 0 .6-.3.1-.5-1.3-.5s-1.9.2-1.2.5m14 1c2.9.2 7.4.2 10 0s.2-.3-5.3-.3-7.6.1-4.7.3m16 0c.6.2 1.8.2 2.5 0 .6-.3.1-.5-1.3-.5s-1.9.2-1.2.5M368 370.4c0 .2.8 1 1.8 1.7 1.5 1.3 1.6 1.2.3-.4s-2.1-2.1-2.1-1.3m9.2 22.6c0 1.9.2 2.7.5 1.7.2-.9.2-2.5 0-3.5-.3-.9-.5-.1-.5 1.8m-97.1-.4c0 1.1.3 1.4.6.6.3-.7.2-1.6-.1-1.9-.3-.4-.6.2-.5 1.3m101 1c0 1.1.3 1.4.6.6.3-.7.2-1.6-.1-1.9-.3-.4-.6.2-.5 1.3m-115.8 5.9c-.3.9-.3 1.9.1 2.2.3.4.6-.1.6-1 0-.8 1-1.8 2.3-2l2.2-.4-2.3-.2c-1.2 0-2.5.6-2.9 1.4m311 .2c1.5.2 3.9.2 5.5 0 1.5-.2.2-.4-2.8-.4s-4.3.2-2.7.4m15 1c.9.2 2.5.2 3.5 0 .9-.3.1-.5-1.8-.5s-2.7.2-1.7.5m-221.5 4c1.2.2 3 .2 4 0 .9-.3-.1-.5-2.3-.4-2.2 0-3 .2-1.7.4m23.5 0c7 .2 18.4.2 25.5 0 7-.1 1.2-.3-12.8-.3s-19.8.2-12.7.3m44.5 0c3.4.2 9 .2 12.5 0 3.4-.2.6-.3-6.3-.3s-9.7.1-6.2.3M591.2 464c0 1.4.2 1.9.5 1.2.2-.6.2-1.8 0-2.5-.3-.6-.5-.1-.5 1.3m0 11c0 1.4.2 1.9.5 1.2.2-.6.2-1.8 0-2.5-.3-.6-.5-.1-.5 1.3m1 18c0 1.4.2 1.9.5 1.2.2-.6.2-1.8 0-2.5-.3-.6-.5-.1-.5 1.3m-268.4 5.7c.7.3 1.6.2 1.9-.1.4-.3-.2-.6-1.3-.5-1.1 0-1.4.3-.6.6m-10.3 2.3c-.3.6.1.7.9.4 1.8-.7 2.1-1.4.7-1.4-.6 0-1.3.4-1.6 1m187.6 1.6c0 1.1.3 1.4.6.6.3-.7.2-1.6-.1-1.9-.3-.4-.6.2-.5 1.3M317.2 506c0 1.9.2 2.7.5 1.7.2-.9.2-2.5 0-3.5-.3-.9-.5-.1-.5 1.8m-5 1c0 1.9.2 2.7.5 1.7.2-.9.2-2.5 0-3.5-.3-.9-.5-.1-.5 1.8m129.9 8.6c0 1.1.3 1.4.6.6.3-.7.2-1.6-.1-1.9-.3-.4-.6.2-.5 1.3m55.2 3.9c0 3.3.2 4.5.4 2.7s.2-4.5 0-6-.4 0-.4 3.3m-30.2 1.1c0 1.1.3 1.4.6.6.3-.7.2-1.6-.1-1.9-.3-.4-.6.2-.5 1.3m43.1 1c-.7.8-.8 1.4-.3 1.4 1 0 2.5-1.9 2-2.5-.2-.1-1 .3-1.7 1.1m82.9 0c0 1.1.3 1.4.6.6.3-.7.2-1.6-.1-1.9-.3-.4-.6.2-.5 1.3m-150 1c0 1.1.3 1.4.6.6.3-.7.2-1.6-.1-1.9-.3-.4-.6.2-.5 1.3m-130.9 1.9c0 1.6.2 2.2.5 1.2.2-.9.2-2.3 0-3-.3-.6-.5.1-.5 1.8m5.1 2c0 2.2.2 3 .4 1.7.2-1.2.2-3 0-4-.3-.9-.5.1-.4 2.3m211.5.2c.6.2 1.8.2 2.5 0 .6-.3.1-.5-1.3-.5s-1.9.2-1.2.5m13 1c.7.3 1.6.2 1.9-.1.4-.3-.2-.6-1.3-.5-1.1 0-1.4.3-.6.6m-70.6 2.3c0 1.4.2 1.9.5 1.2.2-.6.2-1.8 0-2.5-.3-.6-.5-.1-.5 1.3m-130.3 2.7c-1.3 1.6-1.2 1.7.4.4.9-.7 1.7-1.5 1.7-1.7 0-.8-.8-.3-2.1 1.3m160.3.3c0 1.4.2 1.9.5 1.2.2-.6.2-1.8 0-2.5-.3-.6-.5-.1-.5 1.3m40.6-.3c.7.3 1.6.2 1.9-.1.4-.3-.2-.6-1.3-.5-1.1 0-1.4.3-.6.6m-197.9 4c-1.3 1.6-1.2 1.7.4.4.9-.7 1.7-1.5 1.7-1.7 0-.8-.8-.3-2.1 1.3m152.4 2.8c0 2.2.2 3 .4 1.7.2-1.2.2-3 0-4-.3-.9-.5.1-.4 2.3m97.8-.9c0 1.1.3 1.4.6.6.3-.7.2-1.6-.1-1.9-.3-.4-.6.2-.5 1.3M496.3 551c0 3.6.2 5 .4 3.2.2-1.7.2-4.7 0-6.5-.2-1.7-.4-.3-.4 3.3M357 553.4c0 .2.8 1 1.8 1.7 1.5 1.3 1.6 1.2.3-.4s-2.1-2.1-2.1-1.3m155.1 5.2c0 1.1.3 1.4.6.6.3-.7.2-1.6-.1-1.9-.3-.4-.6.2-.5 1.3m-164 3c0 1.1.3 1.4.6.6.3-.7.2-1.6-.1-1.9-.3-.4-.6.2-.5 1.3m153.1.9c0 1.6.2 2.2.5 1.2.2-.9.2-2.3 0-3-.3-.6-.5.1-.5 1.8m16.1 3.5c0 3 .2 4.3.4 2.7.2-1.5.2-3.9 0-5.5-.2-1.5-.4-.2-.4 2.8m-174.2-1.4c0 1.1.3 1.4.6.6.3-.7.2-1.6-.1-1.9-.3-.4-.6.2-.5 1.3m-22.8 9.9c0 2.7.2 3.8.4 2.2.2-1.5.2-3.7 0-5-.2-1.2-.4 0-.4 2.8m90.7-1.1c.7.7 1.3.7 2 0 .6-.6.3-1-1-1s-1.6.4-1 1m145.3-.7c.9.2 2.3.2 3 0 .6-.3-.1-.5-1.8-.5-1.6 0-2.2.2-1.2.5m39 3.3c0 2.5.2 3.5.4 2.2.2-1.2.2-3.2 0-4.5-.2-1.2-.4-.2-.4 2.3m-106.8 0c1 1.1 2 2 2.3 2s-.3-.9-1.3-2-2-2-2.3-2 .3.9 1.3 2m8.1.5c-1.1.8-1.5 1.5-.9 1.5s1.6-.7 2.3-1.5c1.6-1.9 1.1-1.9-1.4 0M325.2 578c0 1.4.2 1.9.5 1.2.2-.6.2-1.8 0-2.5-.3-.6-.5-.1-.5 1.3m46 0c0 1.4.2 1.9.5 1.2.2-.6.2-1.8 0-2.5-.3-.6-.5-.1-.5 1.3m183.6-.3c1.2.2 3 .2 4 0 .9-.3-.1-.5-2.3-.4-2.2 0-3 .2-1.7.4M366 578.9c0 .6.4 1.3 1 1.6s.7-.1.4-.9c-.7-1.8-1.4-2.1-1.4-.7m44.8-.2c.6.2 1.8.2 2.5 0 .6-.3.1-.5-1.3-.5s-1.9.2-1.2.5m127.5 1c.9.2 2.3.2 3 0 .6-.3-.1-.5-1.8-.5-1.6 0-2.2.2-1.2.5m-217.2 5.9c0 1.1.3 1.4.6.6.3-.7.2-1.6-.1-1.9-.3-.4-.6.2-.5 1.3m275 0c0 1.1.3 1.4.6.6.3-.7.2-1.6-.1-1.9-.3-.4-.6.2-.5 1.3m-269 5c0 1.1.3 1.4.6.6.3-.7.2-1.6-.1-1.9-.3-.4-.6.2-.5 1.3m106.7 13.1c.7.3 1.6.2 1.9-.1.4-.3-.2-.6-1.3-.5-1.1 0-1.4.3-.6.6m8 0c.7.3 1.6.2 1.9-.1.4-.3-.2-.6-1.3-.5-1.1 0-1.4.3-.6.6M597.3 615c0 2.5.2 3.5.4 2.2.2-1.2.2-3.2 0-4.5-.2-1.2-.4-.2-.4 2.3m-195.8 5.1c-.9 1.7-1.5 3.3-1.3 3.5.3.2 1.2-1.2 2.1-3.1 2.1-4.3 1.3-4.7-.8-.4m196.6 1.5c0 1.1.3 1.4.6.6.3-.7.2-1.6-.1-1.9-.3-.4-.6.2-.5 1.3m4.2 29.4c0 2.5.2 3.5.4 2.2.2-1.2.2-3.2 0-4.5-.2-1.2-.4-.2-.4 2.3m-2.3 9c-.8.5-1.1 1.2-.7 1.6s1.3.2 1.9-.4c1.5-1.5.7-2.4-1.2-1.2m-193.5 5c1 1.1 2 2 2.3 2s-.3-.9-1.3-2-2-2-2.3-2 .3.9 1.3 2m-140.2 82.5c0 2.7.2 3.8.4 2.2.2-1.5.2-3.7 0-5-.2-1.2-.4 0-.4 2.8m7 12.5c0 3 .2 4.3.4 2.7.2-1.5.2-3.9 0-5.5-.2-1.5-.4-.2-.4 2.8m325.9-2.5c0 1.6.2 2.2.5 1.2.2-.9.2-2.3 0-3-.3-.6-.5.1-.5 1.8m-331.1 21.1c0 1.1.3 1.4.6.6.3-.7.2-1.6-.1-1.9-.3-.4-.6.2-.5 1.3m7 20c0 1.1.3 1.4.6.6.3-.7.2-1.6-.1-1.9-.3-.4-.6.2-.5 1.3m-5 1c0 1.1.3 1.4.6.6.3-.7.2-1.6-.1-1.9-.3-.4-.6.2-.5 1.3m0 10c0 1.1.3 1.4.6.6.3-.7.2-1.6-.1-1.9-.3-.4-.6.2-.5 1.3m11.4 11.4c1 1.1 2 2 2.3 2s-.3-.9-1.3-2-2-2-2.3-2 .3.9 1.3 2m207.8 1.7c.9.2 2.3.2 3 0 .6-.3-.1-.5-1.8-.5-1.6 0-2.2.2-1.2.5m11.5 0c.6.2 1.8.2 2.5 0 .6-.3.1-.5-1.3-.5s-1.9.2-1.2.5m-53 1c.7.3 1.6.2 1.9-.1.4-.3-.2-.6-1.3-.5-1.1 0-1.4.3-.6.6m93 0c.6.2 1.8.2 2.5 0 .6-.3.1-.5-1.3-.5s-1.9.2-1.2.5m-183 1c1.2.2 3.2.2 4.5 0 1.2-.2.2-.4-2.3-.4s-3.5.2-2.2.4m62 0c.6.2 1.8.2 2.5 0 .6-.3.1-.5-1.3-.5s-1.9.2-1.2.5m-23 1c.6.2 1.8.2 2.5 0 .6-.3.1-.5-1.3-.5s-1.9.2-1.2.5m340 17c.7.3 1.6.2 1.9-.1.4-.3-.2-.6-1.3-.5-1.1 0-1.4.3-.6.6"/><path fill="#aaa" d="M571.8 399.7c.7.3 1.6.2 1.9-.1.4-.3-.2-.6-1.3-.5-1.1 0-1.4.3-.6.6m-113.5 5c1.5.2 3.9.2 5.5 0 1.5-.2.2-.4-2.8-.4s-4.3.2-2.7.4m17.4 0c1.8.2 5 .2 7 0 2.1-.2.7-.4-3.2-.4-3.8 0-5.5.2-3.8.4m115.6 64.8c0 2.2.2 3 .4 1.7.2-1.2.2-3 0-4-.3-.9-.5.1-.4 2.3M501.2 506c0 1.4.2 1.9.5 1.2.2-.6.2-1.8 0-2.5-.3-.6-.5-.1-.5 1.3m-60.1 3.6c0 1.1.3 1.4.6.6.3-.7.2-1.6-.1-1.9-.3-.4-.6.2-.5 1.3M312.3 516c0 3.6.2 5 .4 3.2.2-1.7.2-4.7 0-6.5-.2-1.7-.4-.3-.4 3.3m36.6 15.7c-1.3 1.6-1.2 1.7.4.4s2.1-2.1 1.3-2.1c-.2 0-1 .8-1.7 1.7m181.9 0c.7.3 1.6.2 1.9-.1.4-.3-.2-.6-1.3-.5-1.1 0-1.4.3-.6.6m24.4 6.3c0 1.4.2 1.9.5 1.2.2-.6.2-1.8 0-2.5-.3-.6-.5-.1-.5 1.3M374 543.4c0 .2.7.7 1.6 1 .8.3 1.2.2.9-.4-.6-1-2.5-1.4-2.5-.6m222.1 29.2c0 1.1.3 1.4.6.6.3-.7.2-1.6-.1-1.9-.3-.4-.6.2-.5 1.3m-63 3c0 1.1.3 1.4.6.6.3-.7.2-1.6-.1-1.9-.3-.4-.6.2-.5 1.3m63 7c0 1.1.3 1.4.6.6.3-.7.2-1.6-.1-1.9-.3-.4-.6.2-.5 1.3m6 63c0 1.1.3 1.4.6.6.3-.7.2-1.6-.1-1.9-.3-.4-.6.2-.5 1.3M266.2 741c0 1.4.2 1.9.5 1.2.2-.6.2-1.8 0-2.5-.3-.6-.5-.1-.5 1.3m6.9 25.6c0 1.1.3 1.4.6.6.3-.7.2-1.6-.1-1.9-.3-.4-.6.2-.5 1.3m221.7 56.1c1.2.2 3 .2 4 0 .9-.3-.1-.5-2.3-.4-2.2 0-3 .2-1.7.4m-203 2c.7.3 1.6.2 1.9-.1.4-.3-.2-.6-1.3-.5-1.1 0-1.4.3-.6.6m62 0c.7.3 1.6.2 1.9-.1.4-.3-.2-.6-1.3-.5-1.1 0-1.4.3-.6.6"/></svg>