<svg xmlns="http://www.w3.org/2000/svg" xmlns:xlink="http://www.w3.org/1999/xlink" width="2000" zoomAndPan="magnify" viewBox="0 0 1500 1499.999933" height="2000" preserveAspectRatio="xMidYMid meet" version="1.0"><defs><clipPath id="48d9d572cf"><path d="M 747 13.195312 L 755 13.195312 L 755 703 L 747 703 Z M 747 13.195312 " clip-rule="nonzero"/></clipPath></defs><path fill="#637950" d="M 996.085938 1187.597656 C 989.308594 1181.699219 960.6875 1173.324219 957.371094 1180.726562 C 949.464844 1197.484375 949.761719 1237.363281 977.195312 1241.753906 C 1010.269531 1244.628906 1020.386719 1206.671875 996.085938 1187.597656 Z M 996.085938 1187.597656 " fill-opacity="1" fill-rule="nonzero"/><path fill="#486137" d="M 977.3125 1196.175781 C 984.039062 1208.625 987 1218.886719 985.53125 1232.335938 C 985.769531 1232.625 986.113281 1233.371094 986.496094 1232.9375 C 990.625 1225.371094 988.253906 1215.480469 985.183594 1207.378906 C 980.921875 1198.296875 976.09375 1184.214844 964.914062 1180.976562 C 969.253906 1185.664062 974.644531 1190.300781 977.3125 1196.175781 Z M 977.3125 1196.175781 " fill-opacity="1" fill-rule="nonzero"/><path fill="#637950" d="M 573.085938 1453.820312 C 578.539062 1449.074219 601.574219 1442.339844 604.222656 1448.296875 C 610.585938 1461.777344 610.34375 1493.847656 588.285156 1497.378906 C 561.679688 1499.691406 553.542969 1469.160156 573.085938 1453.820312 Z M 573.085938 1453.820312 " fill-opacity="1" fill-rule="nonzero"/><path fill="#486137" d="M 588.207031 1460.714844 C 582.800781 1470.726562 580.414062 1478.992188 581.601562 1489.804688 C 581.402344 1490.039062 581.128906 1490.636719 580.820312 1490.289062 C 577.503906 1484.199219 579.410156 1476.25 581.902344 1469.710938 C 585.324219 1462.410156 589.210938 1451.082031 598.199219 1448.480469 C 594.664062 1452.265625 590.332031 1455.996094 588.207031 1460.714844 Z M 588.207031 1460.714844 " fill-opacity="1" fill-rule="nonzero"/><path fill="#c29869" d="M 880.65625 1049.960938 L 754.496094 716.449219 L 751.359375 717.082031 L 748.21875 716.449219 L 621.402344 1049.960938 L 627.683594 1051.234375 L 751.359375 724.804688 L 874.375 1051.234375 Z M 880.65625 1049.960938 " fill-opacity="1" fill-rule="nonzero"/><path fill="#c29869" d="M 757.09375 736.941406 L 745.261719 736.941406 C 744.691406 736.941406 744.128906 736.886719 743.570312 736.773438 C 743.011719 736.664062 742.46875 736.5 741.941406 736.28125 C 741.417969 736.0625 740.917969 735.796875 740.441406 735.480469 C 739.96875 735.164062 739.53125 734.804688 739.128906 734.402344 C 738.726562 734 738.367188 733.558594 738.050781 733.085938 C 737.734375 732.613281 737.46875 732.113281 737.25 731.589844 C 737.03125 731.0625 736.867188 730.519531 736.753906 729.960938 C 736.644531 729.402344 736.589844 728.839844 736.589844 728.269531 C 736.589844 727.699219 736.644531 727.136719 736.753906 726.578125 C 736.867188 726.019531 737.03125 725.476562 737.25 724.953125 C 737.46875 724.425781 737.734375 723.925781 738.050781 723.453125 C 738.367188 722.980469 738.726562 722.542969 739.128906 722.140625 C 739.53125 721.738281 739.96875 721.378906 740.441406 721.0625 C 740.917969 720.746094 741.417969 720.476562 741.941406 720.261719 C 742.46875 720.042969 743.011719 719.878906 743.570312 719.765625 C 744.128906 719.65625 744.691406 719.601562 745.261719 719.601562 L 757.058594 719.601562 C 757.628906 719.601562 758.195312 719.65625 758.753906 719.765625 C 759.3125 719.875 759.855469 720.039062 760.382812 720.257812 C 760.90625 720.476562 761.40625 720.742188 761.882812 721.058594 C 762.355469 721.375 762.792969 721.734375 763.195312 722.136719 C 763.601562 722.539062 763.960938 722.976562 764.277344 723.453125 C 764.59375 723.925781 764.859375 724.425781 765.078125 724.949219 C 765.296875 725.476562 765.460938 726.019531 765.574219 726.578125 C 765.683594 727.136719 765.738281 727.699219 765.738281 728.269531 C 765.738281 728.839844 765.683594 729.402344 765.574219 729.957031 C 765.460938 730.515625 765.296875 731.058594 765.082031 731.582031 C 764.863281 732.105469 764.597656 732.605469 764.28125 733.078125 C 763.96875 733.550781 763.609375 733.988281 763.207031 734.390625 C 762.808594 734.792969 762.371094 735.152344 761.898438 735.46875 C 761.425781 735.785156 760.929688 736.054688 760.402344 736.273438 C 759.878906 736.492188 759.339844 736.65625 758.78125 736.769531 C 758.222656 736.882812 757.660156 736.9375 757.09375 736.941406 Z M 757.09375 736.941406 " fill-opacity="1" fill-rule="nonzero"/><path fill="#c29869" d="M 757.09375 702.253906 L 745.261719 702.253906 C 744.691406 702.253906 744.128906 702.199219 743.570312 702.085938 C 743.011719 701.976562 742.46875 701.8125 741.941406 701.59375 C 741.417969 701.375 740.917969 701.109375 740.441406 700.792969 C 739.96875 700.476562 739.53125 700.117188 739.128906 699.714844 C 738.726562 699.3125 738.367188 698.875 738.050781 698.398438 C 737.734375 697.925781 737.46875 697.425781 737.25 696.902344 C 737.03125 696.375 736.867188 695.832031 736.753906 695.273438 C 736.644531 694.714844 736.589844 694.152344 736.589844 693.582031 C 736.589844 693.015625 736.644531 692.449219 736.753906 691.890625 C 736.867188 691.332031 737.03125 690.792969 737.25 690.265625 C 737.46875 689.738281 737.734375 689.238281 738.050781 688.765625 C 738.367188 688.292969 738.726562 687.855469 739.128906 687.453125 C 739.53125 687.050781 739.96875 686.691406 740.441406 686.375 C 740.917969 686.058594 741.417969 685.792969 741.941406 685.574219 C 742.46875 685.355469 743.011719 685.191406 743.570312 685.078125 C 744.128906 684.96875 744.691406 684.914062 745.261719 684.914062 L 757.058594 684.914062 C 757.628906 684.914062 758.195312 684.96875 758.753906 685.078125 C 759.3125 685.191406 759.855469 685.355469 760.382812 685.570312 C 760.90625 685.789062 761.40625 686.054688 761.882812 686.371094 C 762.355469 686.6875 762.792969 687.046875 763.195312 687.449219 C 763.601562 687.851562 763.960938 688.292969 764.277344 688.765625 C 764.59375 689.238281 764.859375 689.738281 765.078125 690.265625 C 765.296875 690.789062 765.460938 691.332031 765.574219 691.890625 C 765.683594 692.449219 765.738281 693.015625 765.738281 693.582031 C 765.738281 694.152344 765.683594 694.714844 765.574219 695.273438 C 765.460938 695.828125 765.296875 696.371094 765.082031 696.894531 C 764.863281 697.421875 764.597656 697.917969 764.285156 698.390625 C 763.96875 698.863281 763.609375 699.300781 763.207031 699.703125 C 762.808594 700.105469 762.371094 700.464844 761.898438 700.785156 C 761.425781 701.101562 760.929688 701.367188 760.402344 701.585938 C 759.878906 701.804688 759.339844 701.96875 758.78125 702.082031 C 758.222656 702.195312 757.660156 702.25 757.09375 702.253906 Z M 757.09375 702.253906 " fill-opacity="1" fill-rule="nonzero"/><path fill="#c29869" d="M 757.09375 719.601562 L 745.261719 719.601562 C 744.691406 719.601562 744.128906 719.542969 743.570312 719.433594 C 743.007812 719.324219 742.46875 719.15625 741.941406 718.941406 C 741.414062 718.722656 740.914062 718.453125 740.441406 718.136719 C 739.96875 717.820312 739.527344 717.460938 739.125 717.058594 C 738.722656 716.65625 738.363281 716.21875 738.046875 715.742188 C 737.730469 715.269531 737.464844 714.769531 737.246094 714.242188 C 737.03125 713.71875 736.863281 713.175781 736.753906 712.617188 C 736.644531 712.058594 736.589844 711.492188 736.589844 710.921875 C 736.589844 710.355469 736.644531 709.789062 736.753906 709.230469 C 736.867188 708.675781 737.03125 708.132812 737.25 707.605469 C 737.46875 707.078125 737.734375 706.582031 738.050781 706.105469 C 738.367188 705.632812 738.726562 705.195312 739.128906 704.792969 C 739.53125 704.390625 739.96875 704.03125 740.441406 703.714844 C 740.917969 703.398438 741.417969 703.132812 741.941406 702.914062 C 742.46875 702.695312 743.011719 702.53125 743.570312 702.421875 C 744.128906 702.308594 744.691406 702.253906 745.261719 702.253906 L 757.058594 702.253906 C 757.628906 702.253906 758.195312 702.308594 758.753906 702.421875 C 759.3125 702.53125 759.855469 702.695312 760.378906 702.914062 C 760.90625 703.132812 761.40625 703.398438 761.878906 703.714844 C 762.355469 704.03125 762.792969 704.390625 763.195312 704.792969 C 763.597656 705.195312 763.957031 705.632812 764.273438 706.105469 C 764.589844 706.578125 764.859375 707.078125 765.078125 707.605469 C 765.296875 708.132812 765.460938 708.671875 765.570312 709.230469 C 765.683594 709.789062 765.738281 710.355469 765.738281 710.921875 C 765.738281 711.492188 765.683594 712.054688 765.574219 712.613281 C 765.460938 713.167969 765.300781 713.710938 765.082031 714.238281 C 764.863281 714.761719 764.597656 715.261719 764.285156 715.734375 C 763.96875 716.207031 763.609375 716.644531 763.207031 717.046875 C 762.808594 717.449219 762.371094 717.808594 761.898438 718.125 C 761.425781 718.445312 760.929688 718.710938 760.40625 718.929688 C 759.878906 719.148438 759.339844 719.316406 758.78125 719.429688 C 758.222656 719.539062 757.660156 719.597656 757.09375 719.601562 Z M 757.09375 719.601562 " fill-opacity="1" fill-rule="nonzero"/><g clip-path="url(#48d9d572cf)"><path fill="#c29869" d="M 747.574219 13.195312 L 754.785156 13.195312 L 754.785156 702.390625 L 747.574219 702.390625 Z M 747.574219 13.195312 " fill-opacity="1" fill-rule="nonzero"/></g><path fill="#a75842" d="M 631.203125 1020.222656 L 744.882812 1015.128906 C 748.5625 1014.824219 752.25 1014.75 755.9375 1014.902344 L 863.246094 1014.902344 C 878.046875 1015.511719 889.742188 1028.210938 889.742188 1043.664062 L 889.742188 1186.902344 C 889.742188 1203.160156 879.003906 1217.28125 863.824219 1220.980469 L 808.53125 1235.914062 C 800.132812 1237.960938 791.640625 1239.511719 783.0625 1240.566406 C 774.480469 1241.621094 765.867188 1242.175781 757.222656 1242.222656 C 748.578125 1242.269531 739.957031 1241.8125 731.367188 1240.855469 C 722.773438 1239.894531 714.265625 1238.4375 705.84375 1236.484375 L 636.90625 1218.285156 C 625.886719 1215.730469 617.953125 1205.65625 617.707031 1193.878906 L 613.03125 1041.1875 C 612.769531 1030.308594 620.714844 1021.101562 631.203125 1020.222656 Z M 631.203125 1020.222656 " fill-opacity="1" fill-rule="nonzero"/><path fill="#afad8f" d="M 629.628906 971.949219 C 606.226562 1008.6875 609.367188 1043.382812 565.027344 1064.085938 C 548.40625 1066.660156 597.804688 1044.542969 602.394531 1020.273438 C 614.847656 986.078125 634.617188 946.15625 666.199219 927.871094 C 655.0625 941.59375 638.703125 955.886719 629.628906 971.949219 Z M 629.628906 971.949219 " fill-opacity="1" fill-rule="nonzero"/><path fill="#afad8f" d="M 606.140625 1045.492188 C 608.410156 1050.460938 608.726562 1056.410156 611.347656 1061.21875 C 612.09375 1063.722656 620.191406 1073.382812 614.800781 1075.167969 C 607.625 1066.851562 603.777344 1054.957031 601.90625 1044.164062 C 601.554688 1040.480469 598.628906 1033.589844 602.222656 1030.984375 C 605.691406 1034.332031 604.28125 1041.089844 606.140625 1045.492188 Z M 606.140625 1045.492188 " fill-opacity="1" fill-rule="nonzero"/><path fill="#afad8f" d="M 577.917969 1159.683594 C 571.867188 1209.890625 595.757812 1215.101562 599.871094 1252.800781 C 599.871094 1268.667969 595.339844 1283.601562 596.675781 1299.265625 C 597.390625 1315.203125 600.578125 1333.714844 599.082031 1350.761719 C 593.085938 1388.359375 585.972656 1373.828125 604.746094 1410.121094 C 605.980469 1422.371094 601.128906 1407.003906 598.125 1404.019531 C 586.410156 1389.277344 586.019531 1378.785156 592.722656 1361.890625 C 599.507812 1328.464844 587.546875 1294.207031 595.3125 1260.671875 C 598.964844 1238.921875 582.9375 1222.339844 576.574219 1202.925781 C 570.128906 1182.292969 573.476562 1160.554688 576.285156 1139.75 C 581.128906 1105.015625 584.503906 1061.988281 601.0625 1032.582031 C 589.636719 1070.964844 581.476562 1118.550781 577.917969 1159.683594 Z M 577.917969 1159.683594 " fill-opacity="1" fill-rule="nonzero"/><path fill="#afad8f" d="M 584.746094 1387.085938 C 582.367188 1390.363281 578.09375 1391.675781 575.351562 1394.433594 C 574.84375 1394.945312 570.109375 1399.820312 567.570312 1399.675781 C 565.71875 1398.730469 564.636719 1397.519531 566.640625 1395.992188 C 574.507812 1390.230469 581.417969 1383.226562 590.140625 1378.84375 C 596.867188 1378.351562 586.1875 1385.863281 584.746094 1387.085938 Z M 584.746094 1387.085938 " fill-opacity="1" fill-rule="nonzero"/><path fill="#afad8f" d="M 578.589844 1217.703125 L 578.589844 1217.664062 C 580.132812 1216.023438 582.171875 1217.152344 584.351562 1215.867188 C 586.503906 1215.113281 587.492188 1219.308594 586.164062 1220.207031 C 585.25 1220.566406 584.234375 1219.820312 583.460938 1220.789062 C 582.105469 1220.460938 581.09375 1221.546875 579.796875 1221.34375 C 578.925781 1221.445312 578.792969 1222.6875 577.242188 1221.914062 C 574.285156 1220.878906 576.140625 1218.089844 578.433594 1217.886719 Z M 578.589844 1217.703125 " fill-opacity="1" fill-rule="nonzero"/><path fill="#afad8f" d="M 555.6875 1013.578125 C 562.339844 1010.03125 570.332031 1008.761719 577.089844 1005.660156 C 578.355469 1005.773438 594.59375 995.6875 595.871094 1002.058594 C 578.171875 1010.699219 558.953125 1017.464844 539.785156 1022.523438 C 528.550781 1022.582031 553.78125 1014.285156 555.6875 1013.578125 Z M 555.6875 1013.578125 " fill-opacity="1" fill-rule="nonzero"/><path fill="#afad8f" d="M 646.410156 895.421875 C 647.683594 903.285156 648.863281 911.730469 652.867188 918.808594 C 653.84375 921.699219 663.355469 933.664062 661.636719 937.296875 C 658.949219 943.523438 644.59375 912.125 644.554688 908.796875 C 641.453125 899.53125 640.28125 878.566406 650.289062 874.226562 C 649.617188 880.859375 645.230469 888.210938 646.410156 895.421875 Z M 646.410156 895.421875 " fill-opacity="1" fill-rule="nonzero"/><path fill="#afad8f" d="M 640.417969 865.132812 C 645.695312 863.164062 653.835938 878.191406 648.789062 880.472656 C 647.414062 881.179688 646.371094 880.78125 646.167969 879.320312 C 645.511719 872.019531 641.375 865.355469 634.015625 871.453125 C 630.90625 871.933594 632.644531 867.5625 634.289062 866.695312 C 636.007812 865.132812 638.320312 865.214844 640.417969 865.132812 Z M 640.417969 865.132812 " fill-opacity="1" fill-rule="nonzero"/><path fill="#afad8f" d="M 597.476562 931.070312 C 609.929688 935.65625 635.875 946.144531 634.066406 962.925781 C 628.992188 968.6875 632.101562 951.359375 617.148438 945.496094 C 600.828125 935.25 590.980469 930.933594 572.363281 934.355469 C 577.023438 926.816406 590.015625 928.855469 597.476562 931.070312 Z M 597.476562 931.070312 " fill-opacity="1" fill-rule="nonzero"/><path fill="#afad8f" d="M 659.128906 970.21875 C 647.152344 954.007812 639.355469 965.089844 635.960938 958.222656 C 648.941406 950.273438 663.078125 964.878906 667.03125 976.792969 C 667.761719 978.4375 665.90625 981.578125 664.058594 980.167969 C 663.367188 979.511719 663.992188 979.160156 663.742188 978.503906 C 662.332031 975.882812 661.007812 972.605469 659.128906 970.21875 Z M 659.128906 970.21875 " fill-opacity="1" fill-rule="nonzero"/><path fill="#496037" d="M 597.535156 1058.933594 C 598.199219 1057.734375 599.015625 1056.648438 599.988281 1055.679688 C 600.957031 1054.710938 602.042969 1053.894531 603.242188 1053.230469 C 604.445312 1052.566406 605.714844 1052.082031 607.050781 1051.777344 C 608.386719 1051.472656 609.742188 1051.359375 611.109375 1051.4375 C 654.074219 1052.195312 685.097656 1103.757812 662.855469 1141.261719 C 620.984375 1190.179688 550.679688 1127.265625 597.535156 1058.933594 Z M 597.535156 1058.933594 " fill-opacity="1" fill-rule="nonzero"/><path fill="#8dba79" d="M 511.308594 1066.261719 C 520.179688 1056.476562 530.976562 1048.1875 543.429688 1043.769531 C 555.128906 1040.890625 571.90625 1039.957031 579.515625 1045.9375 C 612.390625 1081.390625 577.59375 1143.648438 531.527344 1141.074219 C 486.039062 1144.421875 484.304688 1091.476562 511.308594 1066.261719 Z M 511.308594 1066.261719 " fill-opacity="1" fill-rule="nonzero"/><path fill="#496037" d="M 627.339844 998.820312 C 638.394531 940.964844 697.710938 965.246094 701.507812 1011.269531 C 706.902344 1047.3125 675.167969 1069.597656 643.433594 1051.351562 C 626.097656 1040.539062 623.023438 1017.367188 627.339844 998.820312 Z M 627.339844 998.820312 " fill-opacity="1" fill-rule="nonzero"/><path fill="#637950" d="M 565.554688 972.023438 C 602.40625 937.789062 662.371094 968.640625 635.179688 1018.183594 C 601.507812 1073.089844 518.761719 1022.5625 565.554688 972.023438 Z M 565.554688 972.023438 " fill-opacity="1" fill-rule="nonzero"/><path fill="#496037" d="M 485.214844 998.886719 C 503.246094 983.15625 531.296875 998.886719 540.734375 1016.578125 C 541.191406 1017.292969 541.550781 1018.050781 541.8125 1018.851562 C 542.070312 1019.65625 542.226562 1020.480469 542.277344 1021.324219 C 542.324219 1022.167969 542.269531 1023.007812 542.101562 1023.835938 C 541.9375 1024.664062 541.667969 1025.457031 541.300781 1026.21875 C 519.765625 1072.683594 452.785156 1041.292969 485.214844 998.886719 Z M 485.214844 998.886719 " fill-opacity="1" fill-rule="nonzero"/><path fill="#496037" d="M 590.992188 1314.035156 C 537.96875 1319.117188 548.554688 1239.761719 599.15625 1234.945312 C 619.011719 1241.792969 626.175781 1273.957031 615.648438 1293.925781 C 609.039062 1303.019531 601.816406 1311.046875 590.992188 1314.035156 Z M 590.992188 1314.035156 " fill-opacity="1" fill-rule="nonzero"/><path fill="#5e834a" d="M 514.226562 1413.535156 C 521.632812 1384.804688 555.433594 1380.769531 580.382812 1385.402344 C 593.570312 1400.34375 590.757812 1428.242188 577.921875 1443 C 554.09375 1472.894531 495.726562 1455.398438 514.226562 1413.535156 Z M 514.226562 1413.535156 " fill-opacity="1" fill-rule="nonzero"/><path fill="#496037" d="M 602.300781 1405.632812 C 619.34375 1394.539062 637.699219 1412.015625 635.730469 1430.234375 C 637.546875 1451.285156 614.183594 1482.214844 601.824219 1450.214844 C 592.152344 1420.082031 602.300781 1405.632812 602.300781 1405.632812 Z M 602.300781 1405.632812 " fill-opacity="1" fill-rule="nonzero"/><path fill="#8dba79" d="M 632.007812 1385.855469 C 604.695312 1395.535156 581.902344 1365.296875 591.648438 1339.824219 C 591.851562 1338.941406 592.195312 1338.113281 592.675781 1337.34375 C 593.15625 1336.574219 593.75 1335.902344 594.457031 1335.332031 C 595.164062 1334.757812 595.941406 1334.320312 596.796875 1334.007812 C 597.648438 1333.699219 598.527344 1333.535156 599.4375 1333.519531 C 620.929688 1331.3125 659.128906 1370.304688 632.007812 1385.855469 Z M 632.007812 1385.855469 " fill-opacity="1" fill-rule="nonzero"/><path fill="#5e834a" d="M 488.957031 1194.207031 C 497.636719 1169.03125 532.953125 1170.039062 551.339844 1184.265625 C 563.847656 1193.230469 572.554688 1206.660156 578.414062 1220.898438 C 561.234375 1235.585938 535.40625 1245.21875 513.851562 1235.644531 C 498.984375 1228.601562 485.175781 1211.273438 488.957031 1194.207031 Z M 488.957031 1194.207031 " fill-opacity="1" fill-rule="nonzero"/><path fill="#5e834a" d="M 588.429688 883.539062 C 597.835938 866.847656 620.183594 865.347656 636.9375 870.433594 C 652.492188 933.160156 570.140625 926.039062 588.429688 883.539062 Z M 588.429688 883.539062 " fill-opacity="1" fill-rule="nonzero"/><path fill="#8dba79" d="M 682.1875 842.042969 C 695.199219 841.894531 707.617188 853.386719 711.851562 865.636719 C 712.558594 876.777344 701.28125 886.691406 692.183594 891.5 C 675.351562 898.585938 657.496094 887.464844 645.730469 875.601562 C 652.210938 860.804688 665.058594 843.214844 682.1875 842.042969 Z M 682.1875 842.042969 " fill-opacity="1" fill-rule="nonzero"/><path fill="#5e834a" d="M 651.332031 907.664062 C 654.976562 904.386719 659.914062 902.242188 664.777344 902.878906 L 663.636719 903.21875 C 678.824219 904.148438 694.523438 916.136719 696.203125 931.777344 C 694.296875 946.773438 677.304688 958.273438 662.949219 958.648438 C 632.324219 957.351562 633.640625 924.804688 651.332031 907.664062 Z M 651.332031 907.664062 " fill-opacity="1" fill-rule="nonzero"/><path fill="#5e834a" d="M 545.84375 926.3125 C 554.5 923.808594 583.035156 929.90625 582.261719 939.039062 C 580.890625 959.933594 561.285156 999.984375 535.722656 990.464844 C 506.066406 976.578125 515.832031 933.199219 545.84375 926.3125 Z M 545.84375 926.3125 " fill-opacity="1" fill-rule="nonzero"/><path fill="#303823" d="M 662.746094 998.597656 C 666.738281 1015.03125 669.5625 1034.34375 667.871094 1051.476562 C 664.1875 1059.050781 666.46875 1026.914062 664.523438 1024.320312 C 663.867188 1006.90625 656.65625 989.585938 653.804688 973.273438 C 658.667969 980.050781 660.320312 990.476562 662.746094 998.597656 Z M 662.746094 998.597656 " fill-opacity="1" fill-rule="nonzero"/><path fill="#303823" d="M 622.128906 1087.171875 C 629.480469 1106.328125 639.050781 1131.445312 636.933594 1151.492188 C 636.636719 1151.855469 636.136719 1152.804688 635.871094 1151.925781 C 634.242188 1140.738281 633.417969 1128.679688 629.742188 1117.847656 C 625.367188 1096.949219 613.511719 1077.21875 608.195312 1057.378906 C 614.160156 1065.585938 617.804688 1077.675781 622.128906 1087.171875 Z M 622.128906 1087.171875 " fill-opacity="1" fill-rule="nonzero"/><path fill="#303823" d="M 517.871094 1019.246094 C 503.449219 1016.199219 491.941406 1017.9375 481.464844 1028.734375 C 481.085938 1028.734375 480.269531 1029.042969 480.390625 1028.421875 C 484.085938 1019.488281 495.523438 1015.367188 504.644531 1015.3125 C 515.617188 1015.910156 528.65625 1017.824219 537.839844 1023.066406 C 531.566406 1023.667969 524.242188 1020.070312 517.871094 1019.246094 Z M 517.871094 1019.246094 " fill-opacity="1" fill-rule="nonzero"/><path fill="#303823" d="M 599.523438 1265.382812 C 597.445312 1280.609375 592.863281 1298.871094 582.136719 1310.640625 C 576.046875 1313.570312 589.027344 1297.699219 588.953125 1295.15625 C 597.140625 1278.195312 596.511719 1258.03125 600.996094 1240.863281 C 602.496094 1248.320312 600.144531 1257.675781 599.523438 1265.382812 Z M 599.523438 1265.382812 " fill-opacity="1" fill-rule="nonzero"/><path fill="#303823" d="M 620.378906 1423 C 624.078125 1427.699219 632.675781 1455.695312 624.785156 1457.121094 C 626.214844 1441.066406 621.292969 1421.597656 608.054688 1411.375 C 607.808594 1411.125 607.75 1410.941406 607.925781 1410.835938 C 614.160156 1409.925781 617.71875 1418.515625 620.378906 1423 Z M 620.378906 1423 " fill-opacity="1" fill-rule="nonzero"/><path fill="#486137" d="M 670.199219 918.933594 C 672.730469 921.851562 678.234375 949.851562 672.925781 949.464844 C 671.832031 934.96875 671.292969 919.242188 660.175781 908.273438 C 659.210938 906.4375 661.828125 907.519531 662.871094 908.574219 C 666.148438 911.34375 668.355469 915.105469 670.199219 918.933594 Z M 670.199219 918.933594 " fill-opacity="1" fill-rule="nonzero"/><path fill="#5e834a" d="M 667.113281 864.003906 C 673.390625 860.554688 709.59375 859.777344 709.554688 867.429688 C 689.804688 861.597656 668.738281 863.441406 652.59375 872.753906 C 649.253906 874.84375 649.261719 872.535156 652.125 870.679688 C 656.441406 867.652344 661.675781 865.597656 667.113281 864.003906 Z M 667.113281 864.003906 " fill-opacity="1" fill-rule="nonzero"/><path fill="#486137" d="M 618.015625 883.074219 C 614.179688 887.660156 609.847656 892.328125 606.71875 897.433594 C 605.347656 899.136719 600.5625 909.183594 597.816406 909.589844 C 593.882812 909.796875 608.484375 890.753906 609.984375 888.617188 C 614.683594 882.496094 623.578125 872.117188 631.738281 875.414062 C 627.21875 877.332031 621.476562 878.964844 618.015625 883.074219 Z M 618.015625 883.074219 " fill-opacity="1" fill-rule="nonzero"/><path fill="#486137" d="M 557.785156 944.492188 C 545.984375 953.613281 538.488281 962.460938 533.230469 976.753906 C 532.882812 976.929688 532.226562 977.5 532.117188 976.871094 C 532.253906 967.152344 539.078125 958.398438 545.660156 951.785156 C 553.703125 944.792969 564.667969 933.054688 575.8125 935.46875 C 569.710938 937.976562 562.859375 939.925781 557.785156 944.492188 Z M 557.785156 944.492188 " fill-opacity="1" fill-rule="nonzero"/><path fill="#486137" d="M 605.636719 980.890625 C 587.460938 990.386719 580.316406 1003.765625 568.746094 1018.898438 C 568.332031 1019.003906 567.433594 1019.449219 567.632812 1018.675781 C 572.410156 1007.535156 580.503906 997.226562 589.492188 989.109375 C 600.394531 979.933594 616.597656 970.101562 630.742188 972.914062 C 622.960938 975.179688 612.972656 976.347656 605.636719 980.890625 Z M 605.636719 980.890625 " fill-opacity="1" fill-rule="nonzero"/><path fill="#5e834a" d="M 549.453125 1074.242188 C 531.566406 1088.429688 515.175781 1104.242188 510.941406 1128.339844 C 510.609375 1128.679688 510.003906 1129.710938 509.839844 1128.714844 C 509.074219 1120.378906 512.832031 1111.433594 517.050781 1104.34375 C 525.371094 1089.765625 539.078125 1079.4375 551.984375 1069.175781 C 559.292969 1063.84375 567.207031 1055.015625 575.273438 1051.726562 C 568.589844 1059.917969 557.523438 1066.972656 549.453125 1074.242188 Z M 549.453125 1074.242188 " fill-opacity="1" fill-rule="nonzero"/><path fill="#486137" d="M 548.351562 1207.046875 C 531.527344 1200.355469 515.996094 1199.835938 498.777344 1207.046875 C 498.382812 1206.921875 497.398438 1206.875 497.925781 1206.304688 C 507.332031 1198.867188 520.992188 1198.054688 532.4375 1199.957031 C 546.117188 1203.015625 561.621094 1208.335938 572.128906 1216.933594 C 564.339844 1215.386719 556.179688 1209.472656 548.351562 1207.046875 Z M 548.351562 1207.046875 " fill-opacity="1" fill-rule="nonzero"/><path fill="#5e834a" d="M 614.527344 1354.167969 C 618.832031 1358.101562 636.722656 1380.152344 629.675781 1384.234375 C 625.53125 1368.507812 613.941406 1354.746094 600.886719 1345.289062 C 600.628906 1345.132812 600.09375 1344.554688 600.433594 1344.386719 C 606.109375 1343.953125 610.804688 1350.5 614.527344 1354.167969 Z M 614.527344 1354.167969 " fill-opacity="1" fill-rule="nonzero"/><path fill="#486137" d="M 558.828125 1405.84375 C 548.003906 1415.101562 538.1875 1424.46875 530.507812 1437.234375 C 530.292969 1437.566406 530.824219 1438.707031 529.914062 1438.203125 C 526.675781 1433.078125 534.847656 1427.71875 537.3125 1423.53125 C 547.695312 1411.503906 561.03125 1397.753906 575.988281 1393.121094 C 571.550781 1397.964844 563.808594 1401.195312 558.828125 1405.84375 Z M 558.828125 1405.84375 " fill-opacity="1" fill-rule="nonzero"/><path fill="#afad8f" d="M 741.078125 1012.03125 C 739.21875 1013.054688 732.328125 1019.59375 725.019531 1027.328125 C 726.742188 1027.230469 728.4375 1027.417969 730.097656 1027.890625 C 739.277344 1018.335938 750.703125 1009.824219 760.621094 1001.019531 C 770.085938 993.078125 783.425781 988.925781 795.046875 987.332031 C 777.6875 978.941406 753.984375 1000.785156 741.078125 1012.03125 Z M 741.078125 1012.03125 " fill-opacity="1" fill-rule="nonzero"/><path fill="#afad8f" d="M 780.3125 1043.054688 C 767.46875 1037.105469 754.472656 1032.929688 740.613281 1039.921875 C 739.832031 1039.652344 737.953125 1039.265625 738.121094 1038.316406 C 754.8125 1023.242188 782.140625 1036.742188 796.464844 1049.503906 C 797.773438 1050.558594 798.921875 1054.390625 796.042969 1052.820312 C 795.972656 1052.6875 795.894531 1052.746094 795.78125 1052.863281 C 795.519531 1053.25 795.832031 1053.265625 795.691406 1053.089844 C 790.871094 1049.484375 785.902344 1045.558594 780.3125 1043.054688 Z M 780.3125 1043.054688 " fill-opacity="1" fill-rule="nonzero"/><path fill="#afad8f" d="M 774.757812 1052.511719 C 775.460938 1050 783.9375 1041.5625 786.703125 1042.679688 C 787.660156 1043.652344 789.148438 1045.300781 787.46875 1046.207031 C 785.089844 1047.640625 782.925781 1049.351562 780.980469 1051.335938 C 779.03125 1053.316406 777.363281 1055.511719 775.972656 1057.917969 C 774.339844 1060.40625 770.175781 1059.226562 772.359375 1056.21875 C 772.9375 1055.179688 774.246094 1053.796875 774.757812 1052.511719 Z M 774.757812 1052.511719 " fill-opacity="1" fill-rule="nonzero"/><path fill="#afad8f" d="M 883.214844 1016.574219 C 871.058594 1005.359375 854.5625 997.382812 837.859375 1002.746094 C 829.460938 1005.007812 821.335938 1008.011719 813.484375 1011.757812 C 805.636719 1015.503906 798.1875 1019.929688 791.148438 1025.03125 C 791.65625 1024.929688 792.164062 1024.828125 792.675781 1024.75 C 795.082031 1024.339844 797.484375 1024.355469 799.886719 1024.796875 C 823.089844 1008.851562 848.746094 997.515625 872.808594 1013.742188 C 888.320312 1026.191406 907.308594 1036.757812 920.398438 1051.46875 C 921.554688 1052.714844 923.128906 1057.800781 923.382812 1054.398438 C 918.414062 1036.207031 895.988281 1028.652344 883.214844 1016.574219 Z M 883.214844 1016.574219 " fill-opacity="1" fill-rule="nonzero"/><path fill="#afad8f" d="M 790.28125 1072.523438 C 795.460938 1049.726562 815.996094 1037.070312 837.523438 1031.324219 C 841.175781 1029.816406 844.152344 1029.882812 845.632812 1027.4375 C 845.90625 1026.839844 846.839844 1025.675781 845.691406 1025.578125 C 819.921875 1028.683594 790.578125 1044.996094 786.09375 1072.761719 C 784.585938 1084.4375 786.570312 1101.597656 799.773438 1105.527344 C 800.507812 1105.527344 800.75 1105.304688 800.566406 1104.972656 C 792.097656 1097.402344 787.128906 1084.011719 790.28125 1072.523438 Z M 790.28125 1072.523438 " fill-opacity="1" fill-rule="nonzero"/><path fill="#afad8f" d="M 901.15625 1088.5625 C 892.285156 1067.539062 894.191406 1044.101562 888.738281 1021.617188 C 889.015625 1021.046875 889.261719 1019.652344 890.050781 1020.308594 C 898.265625 1029.894531 895.859375 1044.4375 898.171875 1055.976562 C 898.859375 1064.15625 900.339844 1072.183594 902.613281 1080.070312 C 904.886719 1087.953125 907.910156 1095.539062 911.683594 1102.828125 C 913.242188 1106.882812 919.070312 1114.585938 918.238281 1118.15625 C 909.578125 1111.804688 905.492188 1098.332031 901.15625 1088.5625 Z M 901.15625 1088.5625 " fill-opacity="1" fill-rule="nonzero"/><path fill="#afad8f" d="M 945.453125 1184.175781 C 951.472656 1178.933594 962.292969 1173.9375 958.28125 1164.015625 C 958.597656 1163.28125 958.40625 1161.539062 959.265625 1161.296875 C 968.886719 1165.464844 960.898438 1178.546875 954.714844 1182.398438 C 950.488281 1186.121094 937.75 1195.117188 932.816406 1191.273438 C 935.359375 1187.394531 941.914062 1187.289062 945.453125 1184.175781 Z M 945.453125 1184.175781 " fill-opacity="1" fill-rule="nonzero"/><path fill="#496037" d="M 885.757812 1179.421875 C 902.9375 1168.734375 930.835938 1166.820312 943.605469 1185.359375 C 940.25 1206.46875 927.367188 1229.742188 906.289062 1237.054688 C 875.609375 1242.78125 862.445312 1195.726562 885.757812 1179.421875 Z M 885.757812 1179.421875 " fill-opacity="1" fill-rule="nonzero"/><path fill="#8dba79" d="M 714.617188 1066.507812 C 745.207031 1030.820312 774.265625 1047.214844 774.265625 1047.214844 C 787.605469 1081.136719 762.46875 1129.066406 723.9375 1128.195312 C 695.09375 1122.410156 696.542969 1083.96875 714.617188 1066.507812 Z M 714.617188 1066.507812 " fill-opacity="1" fill-rule="nonzero"/><path fill="#8dba79" d="M 855.636719 999.527344 C 869.5 1012.691406 875.433594 1042.300781 853.136719 1049.390625 C 820.816406 1052.5 819.511719 1003.820312 855.636719 999.527344 Z M 855.636719 999.527344 " fill-opacity="1" fill-rule="nonzero"/><path fill="#637950" d="M 917.535156 1052.648438 C 944.410156 1040.261719 988.730469 1076.078125 956.300781 1100.644531 C 924.496094 1122.574219 881.34375 1058.671875 917.535156 1052.648438 Z M 917.535156 1052.648438 " fill-opacity="1" fill-rule="nonzero"/><path fill="#303823" d="M 917.738281 1193.09375 C 909.21875 1196.765625 901.011719 1200.054688 894.027344 1206.371094 C 889.933594 1209.253906 884.996094 1216.320312 881.527344 1217.511719 C 877.246094 1215.546875 899.566406 1198.113281 903.226562 1196.914062 C 913.753906 1191.605469 927.527344 1185.289062 939.003906 1187.96875 C 932.691406 1190.316406 924.214844 1190.230469 917.738281 1193.09375 Z M 917.738281 1193.09375 " fill-opacity="1" fill-rule="nonzero"/><path fill="#afad8f" d="M 962.796875 1165.164062 C 953.019531 1162.621094 930.257812 1145.960938 931.5625 1135.671875 C 933.117188 1130.609375 942.242188 1149.738281 947.421875 1151.027344 C 953.917969 1157.078125 962.207031 1161.160156 970.664062 1163.675781 C 974.839844 1165.125 981.808594 1164.332031 984.535156 1167.554688 C 978.367188 1171.023438 969.242188 1166.984375 962.796875 1165.164062 Z M 962.796875 1165.164062 " fill-opacity="1" fill-rule="nonzero"/><path fill="#8dba79" d="M 992.183594 1127.875 C 1014.96875 1111.734375 1047.246094 1136.125 1034.203125 1161.953125 C 1021.40625 1184.15625 990.636719 1178.734375 972.007812 1166.855469 C 975.042969 1152.082031 979.710938 1136.257812 992.183594 1127.875 Z M 992.183594 1127.875 " fill-opacity="1" fill-rule="nonzero"/><path fill="#5e834a" d="M 992.34375 1155.058594 C 996.65625 1152.585938 1029.929688 1137.921875 1031.234375 1143.425781 C 1017.46875 1147.566406 1003.617188 1151.996094 990.683594 1158.5 C 965.972656 1172.882812 976.039062 1162.59375 992.34375 1155.058594 Z M 992.34375 1155.058594 " fill-opacity="1" fill-rule="nonzero"/><path fill="#486137" d="M 935.871094 1065.183594 C 945.277344 1072.144531 956.308594 1088.730469 949.164062 1100.410156 C 948.804688 1100.515625 948.109375 1100.867188 948.0625 1100.292969 C 949.957031 1091.28125 947.511719 1082.078125 941.945312 1074.734375 C 935.609375 1067.058594 926.746094 1060.792969 918.097656 1056.5625 C 923.238281 1053.867188 931.253906 1062.582031 935.871094 1065.183594 Z M 935.871094 1065.183594 " fill-opacity="1" fill-rule="nonzero"/><path fill="#5e834a" d="M 847.921875 1017.824219 C 842.507812 1032.4375 847.148438 1034.246094 846.679688 1045.832031 C 843.3125 1048.34375 841.894531 1027.410156 843.304688 1025.046875 C 844.996094 1018.105469 847.730469 1008.707031 853.355469 1004.558594 C 853.203125 1008.984375 849.09375 1013.386719 847.921875 1017.824219 Z M 847.921875 1017.824219 " fill-opacity="1" fill-rule="nonzero"/><path fill="#5e834a" d="M 755.265625 1083.238281 C 749.980469 1092.238281 742.398438 1100.351562 735.722656 1108.144531 C 733.273438 1110.886719 721.203125 1124.859375 716.804688 1125.457031 C 712.871094 1125.691406 725.738281 1115.625 726.738281 1114.066406 C 743.839844 1097.992188 755.855469 1076.5625 768.820312 1058.171875 C 766.8125 1066.804688 759.90625 1075.546875 755.265625 1083.238281 Z M 755.265625 1083.238281 " fill-opacity="1" fill-rule="nonzero"/><path fill="#5e834a" d="M 867.34375 1007.757812 C 878.585938 978.050781 930.152344 981.589844 938.957031 1011.035156 C 943.304688 1026.703125 928.46875 1037.097656 912.390625 1034.96875 C 880.558594 1033.652344 867.34375 1007.757812 867.34375 1007.757812 Z M 867.34375 1007.757812 " fill-opacity="1" fill-rule="nonzero"/><path fill="#486137" d="M 896.371094 1001.441406 C 910.601562 1000.425781 927.605469 1006.894531 935.917969 1017.9375 C 936.539062 1021.46875 933.535156 1017.347656 932.488281 1016.625 C 928.023438 1012.496094 922.871094 1008.761719 916.898438 1006.796875 C 903.5 1000.523438 887.960938 1003.644531 874.945312 1007.824219 C 880.160156 1003.308594 889.308594 1001.996094 896.371094 1001.441406 Z M 896.371094 1001.441406 " fill-opacity="1" fill-rule="nonzero"/><path fill="#496037" d="M 858.984375 1070.460938 C 865.769531 1064.5625 894.382812 1056.1875 897.699219 1063.59375 C 905.605469 1080.351562 905.308594 1120.226562 877.882812 1124.617188 C 844.800781 1127.496094 834.691406 1089.539062 858.984375 1070.460938 Z M 858.984375 1070.460938 " fill-opacity="1" fill-rule="nonzero"/><path fill="#303823" d="M 877.785156 1079.03125 C 871.058594 1091.484375 868.097656 1101.753906 869.570312 1115.199219 C 869.328125 1115.488281 868.988281 1116.230469 868.601562 1115.804688 C 864.480469 1108.226562 866.851562 1098.34375 869.945312 1090.246094 C 874.207031 1081.167969 879.039062 1067.085938 890.207031 1063.847656 C 885.816406 1068.527344 880.433594 1073.167969 877.785156 1079.03125 Z M 877.785156 1079.03125 " fill-opacity="1" fill-rule="nonzero"/><path fill="#afad8f" d="M 755.75 982.277344 C 759.394531 991.703125 759.15625 1019.894531 750.011719 1024.875 C 744.992188 1026.574219 755.207031 1007.996094 753.226562 1003.039062 C 754.339844 994.230469 752.820312 985.125 749.949219 976.785156 C 748.683594 972.554688 743.964844 967.351562 745 963.261719 C 751.390625 966.222656 753.433594 975.980469 755.75 982.277344 Z M 755.75 982.277344 " fill-opacity="1" fill-rule="nonzero"/><path fill="#8dba79" d="M 704.257812 971.175781 C 677.847656 962.109375 678.804688 921.660156 707.398438 917.175781 C 732.90625 914.59375 746.46875 942.734375 747.699219 964.789062 C 733.925781 970.949219 718.386719 976.40625 704.257812 971.175781 Z M 704.257812 971.175781 " fill-opacity="1" fill-rule="nonzero"/><path fill="#5e834a" d="M 723.996094 958.101562 C 719.472656 956.046875 688.132812 937.605469 691.84375 933.332031 C 703.230469 942.074219 714.929688 950.742188 727.746094 957.449219 C 753.875 969.101562 739.636719 966.9375 723.996094 958.101562 Z M 723.996094 958.101562 " fill-opacity="1" fill-rule="nonzero"/><path fill="#5e834a" d="M 716.636719 989.703125 C 745.804688 976.714844 769.921875 1008.300781 774.976562 1034.128906 C 725.027344 1074.640625 670.433594 1018.800781 716.636719 989.703125 Z M 716.636719 989.703125 " fill-opacity="1" fill-rule="nonzero"/><path fill="#486137" d="M 749.34375 1020.019531 C 736.183594 1012.933594 721.25 1007.179688 707.445312 1016.78125 C 707.058594 1016.742188 706.132812 1016.917969 706.441406 1016.269531 C 709.488281 1011.210938 716.417969 1009.179688 722.050781 1009.015625 C 738.042969 1009.082031 759.289062 1019.910156 768.117188 1032.542969 C 761.898438 1029.457031 755.953125 1023.066406 749.34375 1020.019531 Z M 749.34375 1020.019531 " fill-opacity="1" fill-rule="nonzero"/><path fill="#496037" d="M 821.640625 1038.796875 C 832.640625 1017.535156 810.65625 994.054688 791.226562 989.09375 C 790.425781 988.820312 789.601562 988.652344 788.757812 988.589844 C 787.914062 988.527344 787.078125 988.574219 786.246094 988.726562 C 785.410156 988.878906 784.613281 989.136719 783.847656 989.496094 C 783.078125 989.851562 782.371094 990.304688 781.71875 990.84375 C 741.714844 1022.777344 788.152344 1080.382812 821.640625 1038.796875 Z M 821.640625 1038.796875 " fill-opacity="1" fill-rule="nonzero"/><path fill="#486137" d="M 794.082031 1011.925781 C 800.46875 1025.183594 801.535156 1036.828125 793.527344 1049.53125 C 793.59375 1049.910156 793.527344 1050.769531 794.082031 1050.5 C 801.890625 1044.792969 803.167969 1032.699219 801.050781 1023.871094 C 797.859375 1013.386719 792.898438 1001.144531 785.621094 993.484375 C 786.558594 999.710938 791.800781 1005.949219 794.082031 1011.925781 Z M 794.082031 1011.925781 " fill-opacity="1" fill-rule="nonzero"/><path fill="#5e834a" d="M 918.257812 1111.050781 C 939.554688 1115.476562 961.980469 1136.046875 959.257812 1159.132812 C 953.957031 1176.992188 929.714844 1193.761719 913.65625 1178.65625 C 895.804688 1156.511719 904.269531 1129.347656 918.257812 1111.050781 Z M 918.257812 1111.050781 " fill-opacity="1" fill-rule="nonzero"/><path fill="#486137" d="M 931.308594 1134.714844 C 935.589844 1146.242188 939.660156 1164.785156 934.945312 1175.929688 C 934.605469 1176.101562 933.96875 1176.585938 933.839844 1176.015625 C 934.207031 1166.960938 934.585938 1157.628906 932.664062 1148.628906 C 931.355469 1137.21875 924.144531 1126.898438 920.765625 1116.804688 C 926.023438 1120.667969 928.640625 1128.785156 931.308594 1134.714844 Z M 931.308594 1134.714844 " fill-opacity="1" fill-rule="nonzero"/><path fill="#496037" d="M 778.195312 997.300781 C 777.003906 997.476562 775.816406 997.488281 774.625 997.328125 C 773.433594 997.171875 772.285156 996.851562 771.183594 996.371094 C 770.082031 995.890625 769.070312 995.265625 768.144531 994.5 C 767.21875 993.730469 766.417969 992.851562 765.738281 991.859375 C 743.328125 961.582031 762.632812 912.484375 800.597656 907.929688 C 856.980469 910.933594 850.734375 993.398438 778.195312 997.300781 Z M 778.195312 997.300781 " fill-opacity="1" fill-rule="nonzero"/><path fill="#303823" d="M 784.710938 965.128906 C 794.109375 949.789062 806.472656 929.742188 821.550781 920.492188 C 821.957031 920.492188 822.90625 920.328125 822.414062 921.003906 C 815.5 928.101562 807.554688 935.113281 801.976562 943.464844 C 789.769531 957.65625 782.351562 976.453125 771.417969 990.726562 C 773.941406 982.179688 780.410156 973.195312 784.710938 965.128906 Z M 784.710938 965.128906 " fill-opacity="1" fill-rule="nonzero"/><path fill="#496037" d="M 642.898438 866.625 C 662.339844 860.675781 660.71875 835.371094 645.472656 825.203125 C 630.488281 810.300781 591.765625 808.367188 608.382812 838.386719 C 625.304688 865.132812 642.898438 866.625 642.898438 866.625 Z M 642.898438 866.625 " fill-opacity="1" fill-rule="nonzero"/><path fill="#303823" d="M 641.171875 845.203125 C 639.933594 839.351562 623.980469 814.789062 617.816406 819.917969 C 631.050781 829.132812 642.832031 845.398438 642.183594 862.109375 C 642.183594 862.449219 642.320312 862.621094 642.511719 862.554688 C 647.191406 858.382812 642.902344 850.117188 641.171875 845.203125 Z M 641.171875 845.203125 " fill-opacity="1" fill-rule="nonzero"/><path fill="#afad8f" d="M 747.988281 1161.144531 C 747.613281 1155.53125 764.34375 1152.015625 765.089844 1157.503906 C 765.371094 1159.03125 764.691406 1159.914062 763.234375 1159.691406 C 756.023438 1158.257812 748.480469 1160.292969 752.222656 1169.089844 C 751.804688 1172.203125 748.105469 1169.285156 747.746094 1167.464844 C 746.730469 1165.375 747.488281 1163.183594 747.988281 1161.144531 Z M 747.988281 1161.144531 " fill-opacity="1" fill-rule="nonzero"/><path fill="#496037" d="M 788.011719 1082.703125 C 823.679688 1096.339844 820.945312 1152.167969 787.601562 1167.3125 C 736.308594 1177.757812 737.035156 1099.339844 788.011719 1082.703125 Z M 788.011719 1082.703125 " fill-opacity="1" fill-rule="nonzero"/><path fill="#303823" d="M 789.3125 1111.414062 C 789.3125 1121.191406 786.035156 1131.160156 783.484375 1140.367188 C 782.429688 1143.640625 777.984375 1160.191406 774.640625 1162.503906 C 770.976562 1164.136719 779.539062 1146.492188 779.742188 1144.152344 C 786.097656 1125.148438 789.140625 1105.488281 785.449219 1085.566406 C 790.152344 1088.015625 789.429688 1105.0625 789.3125 1111.414062 Z M 789.3125 1111.414062 " fill-opacity="1" fill-rule="nonzero"/><path fill="#5e834a" d="M 743.472656 1222.566406 C 770.191406 1215.636719 772.03125 1179.621094 750.746094 1164.71875 C 750.113281 1164.128906 749.402344 1163.660156 748.609375 1163.3125 C 747.820312 1162.960938 746.992188 1162.75 746.132812 1162.675781 C 745.269531 1162.601562 744.421875 1162.671875 743.582031 1162.882812 C 742.742188 1163.09375 741.960938 1163.433594 741.238281 1163.90625 C 723.097656 1173.628906 713.796875 1224.765625 743.472656 1222.566406 Z M 743.472656 1222.566406 " fill-opacity="1" fill-rule="nonzero"/><path fill="#486137" d="M 738.554688 1182.109375 C 736.960938 1188.570312 733.90625 1220.773438 743.144531 1220.035156 C 737.152344 1202.621094 739.453125 1182.273438 745.871094 1164.988281 C 746.023438 1164.679688 746.164062 1163.789062 745.734375 1163.847656 C 740.097656 1167.117188 739.773438 1176.273438 738.554688 1182.109375 Z M 738.554688 1182.109375 " fill-opacity="1" fill-rule="nonzero"/></svg>